<svg viewBox="0 0 132.75 38.4" xmlns="http://www.w3.org/2000/svg"><g fill="#fff"><path d="m68.37 75.88h4.4l1.07-3.58 9.33-5.3 1-3.16h-4.4l-.47 1.58-6.9 3.87-4.34-3.75.53-1.74h-4.42l-.9 3 6.2 5.37z" transform="translate(-38.87 -61.24)"/><path d="m105.46 71-1.46 4.88h19.94l1-3.19h-15.19l6.67-2.8-5.22-2.89h15.4l1-3.19h-19.99l-1.43 4.76 2.15 1.22z" transform="translate(-38.87 -61.24)"/><path d="m7.99 2.56h-4.37l-3.62 12.08h4.37z"/><g transform="translate(-38.87 -61.24)"><path d="m62 63.8h-4l-1.34 4.44h-10l-1 3.19h10c-.25.82-1.34 4.44-1.34 4.44h4.4l3.68-12.07z"/><path d="m89.1 67h11.15l-.3 1-3.75 1.57h-6.74l-1 3.19h8.44l6.88-2.89 1.82-6.06h-19.94l-3.66 12.07h4.4z"/><path d="m127.22 71.84-1.21 4h4.39s.75-2.51.92-3.07c-1.32-.32-2.68-.65-4.1-.93z"/><path d="m141.37 72.58 6.34-2.58 1.86-6.2h-19.94l-1.9 6.34a46.72 46.72 0 0 1 13.64 2.44zm-8.29-5.58h11.14l-.33 1.12-3.42 1.45h-8.17c.17-.57.7-2.25.78-2.57z"/><path d="m169.1 99.64c-3-8.88-7.52-15.18-12.66-19.64 4.6-4.48 7.74-10.55 8.31-18.76 0 0-1.88 8.17-12 16-15-10.2-32.9-7.3-32.9-7.3a61.16 61.16 0 0 1 29.22 9.89c-9.44 6-24.39 11.17-48 11.34 0 0 33.73 5.08 52.1-8.42a66.76 66.76 0 0 1 15.93 16.89z"/><path d="m168.35 63.8v.42h-.82v2.13h-.53v-2.12h-.82v-.43zm2.76 2.56-.09-1.5c0-.2 0-.44 0-.71-.07.23-.14.53-.22.76l-.46 1.42h-.53l-.46-1.46-.18-.72v.71l-.09 1.5h-.49l.19-2.56h.76l.44 1.25c.06.2.1.39.17.65.07-.23.12-.45.18-.64l.44-1.26h.73l.2 2.56z"/></g></g></svg>