<svg enable-background="new 0 0 512 512" viewBox="0 0 512 512" xmlns="http://www.w3.org/2000/svg"><path d="m0 85.337h512v341.326h-512z" fill="#f0f0f0"/><path d="m0 256h512v170.663h-512z" fill="#496e2d"/><path d="m377.332 199.376c-6.62-18.777-24.511-32.239-45.554-32.239h-41.4c-26.674 0-48.299 21.624-48.299 48.299 0 8.715 2.32 17.091 6.358 24.15-15.373-.126-29.601.106-38.557 0 0-18.627 0-42.357 0-47.322l1.902-1.902c8.539-8.539 5.691-22.77 5.691-22.77s-14.229-2.846-22.767 5.693l-9.952 9.952h-11.099c-24.452 0-44.274 19.822-44.274 44.274h32.199v36.224c0 5.298 1.069 10.346 2.999 14.943l-11.048 9.207h-16.1v-16.1h-16.1v32.199h72.448v32.199h-16.1v16.1h32.199v-32.199l14.758-17.71h34.883l14.758 17.71v16.1h-16.1v16.1h64.398v-88.548c0-13.338 10.812-24.15 24.15-24.15.343 0 .682.012 1.022.026-.667-2.581-1.022-5.287-1.022-8.076.001-17.248 13.564-31.327 30.607-32.16zm-86.955 136.808v-33.809h1.342l14.758 17.71v16.1h-16.1z" fill="#d80027"/></svg>