<svg enable-background="new 0 0 512 512" viewBox="0 0 512 512" xmlns="http://www.w3.org/2000/svg"><path d="m0 85.331h512v341.337h-512z" fill="#0052b4"/><g fill="#ffda44"><path d="m256 159.994 5.107 15.715h16.523l-13.368 9.713 5.106 15.715-13.368-9.712-13.368 9.712 5.106-15.715-13.368-9.713h16.523z"/><path d="m188.118 188.112 14.723 7.501 11.684-11.683-2.586 16.32 14.723 7.502-16.32 2.585-2.585 16.321-7.502-14.723-16.319 2.584 11.684-11.684z"/><path d="m160 255.994 15.715-5.106.001-16.523 9.711 13.368 15.716-5.106-9.713 13.367 9.713 13.368-15.716-5.105-9.711 13.367v-16.523z"/><path d="m188.118 323.877 7.5-14.724-11.682-11.683 16.321 2.585 7.5-14.723 2.585 16.321 16.32 2.584-14.722 7.502 2.585 16.319-11.684-11.683z"/><path d="m256 351.994-5.107-15.715h-16.523l13.369-9.712-5.107-15.715 13.368 9.712 13.368-9.712-5.106 15.715 13.368 9.712h-16.524z"/><path d="m323.882 323.877-14.723-7.501-11.684 11.684 2.586-16.322-14.723-7.501 16.319-2.584 2.586-16.321 7.502 14.723 16.319-2.585-11.684 11.684z"/><path d="m352 255.994-15.715 5.107v16.523l-9.712-13.369-15.716 5.107 9.713-13.368-9.713-13.367 15.716 5.105 9.711-13.367.001 16.524z"/><path d="m323.882 188.112-7.501 14.723 11.684 11.684-16.322-2.586-7.5 14.724-2.586-16.32-16.319-2.585 14.723-7.502-2.586-16.32 11.684 11.684z"/></g></svg>