<svg enable-background="new 0 0 512 512" viewBox="0 0 512 512" xmlns="http://www.w3.org/2000/svg"><path d="m0 85.338h512v341.326h-512z" fill="#f0f0f0"/><path d="m0 128.001h512v42.663h-512z" fill="#d80027"/><path d="m0 170.664h512v42.663h-512z" fill="#0052b4"/><path d="m0 256.001h512v42.663h-512z" fill="#d80027"/><path d="m0 298.664h512v42.663h-512z" fill="#0052b4"/><path d="m0 384.001h512v42.663h-512z" fill="#d80027"/><path d="m0 85.338h256v170.663h-256z" fill="#f0f0f0"/><path d="m144 85.336h-32v69.334h-112v32h112v69.333h32v-69.333h112v-32h-112z" fill="#d80027"/><g fill="#0052b4"><path d="m196.892 200.351 59.108 32.837v-32.837z"/><path d="m155.826 200.351 100.174 55.652v-15.737l-71.847-39.915z"/><path d="m229.317 256.003-73.491-40.832v40.832z"/></g><path d="m155.826 200.351 100.174 55.652v-15.737l-71.847-39.915z" fill="#f0f0f0"/><path d="m155.826 200.351 100.174 55.652v-15.737l-71.847-39.915z" fill="#d80027"/><path d="m45.171 200.35-45.171 25.095v-25.095z" fill="#0052b4"/><path d="m100.174 207.427v48.575h-87.429z" fill="#0052b4"/><path d="m71.846 200.351-71.846 39.915v15.737l100.174-55.652z" fill="#d80027"/><path d="m59.108 140.988-59.108-32.837v32.837z" fill="#0052b4"/><path d="m100.174 140.988-100.174-55.652v15.737l71.847 39.915z" fill="#0052b4"/><path d="m26.683 85.336 73.491 40.833v-40.833z" fill="#0052b4"/><path d="m100.174 140.988-100.174-55.652v15.737l71.847 39.915z" fill="#f0f0f0"/><path d="m100.174 140.988-100.174-55.652v15.737l71.847 39.915z" fill="#d80027"/><path d="m210.829 140.989 45.171-25.094v25.094z" fill="#0052b4"/><path d="m155.826 133.912v-48.575h87.429z" fill="#0052b4"/><path d="m184.154 140.988 71.846-39.914v-15.738l-100.174 55.652z" fill="#d80027"/></svg>