<svg enable-background="new 0 0 512 512" viewBox="0 0 512 512" xmlns="http://www.w3.org/2000/svg"><path d="m0 85.331h512v341.337h-512z" fill="#338af3"/><g fill="#f0f0f0"><path d="m256.248 197.043c-32.628 0-59.077 26.449-59.077 59.077s26.449 59.077 59.077 59.077c32.627 0 59.077-26.449 59.077-59.077s-26.451-59.077-59.077-59.077zm-14.77 59.077c0-8.156 6.613-14.769 14.769-14.769s14.769 6.613 14.769 14.769c0 8.158-6.613 14.769-14.769 14.769s-14.769-6.612-14.769-14.769zm30.082-25.265c-2.292-1.392-4.792-2.473-7.437-3.204v-15.127c6.662 1.195 12.804 3.876 18.076 7.692zm-22.205-3.457c-2.771.662-5.389 1.715-7.796 3.098l-10.689-10.689c5.404-3.783 11.685-6.397 18.483-7.46v15.051zm-7.796 54.346c2.406 1.381 5.024 2.434 7.795 3.098v15.049c-6.798-1.062-13.079-3.676-18.483-7.46zm22.565 2.845c2.646-.73 5.144-1.812 7.436-3.204l10.638 10.638c-5.271 3.817-11.414 6.497-18.075 7.692v-15.126zm17.746-13.781c1.301-2.264 2.317-4.714 2.985-7.304h15.075c-1.11 6.609-3.68 12.719-7.372 17.991zm2.986-22.073c-.667-2.59-1.684-5.039-2.985-7.303l10.689-10.689c3.692 5.272 6.262 11.382 7.372 17.991h-15.076zm-64.511-18.567 10.638 10.638c-1.479 2.434-2.616 5.099-3.344 7.928h-15.075c1.15-6.85 3.871-13.164 7.781-18.566zm-7.78 33.336h15.075c.728 2.829 1.865 5.494 3.344 7.928l-10.638 10.638c-3.911-5.4-6.632-11.714-7.781-18.566z"/><path d="m352.248 256.12c0-26.259-10.547-50.052-27.631-67.385l-15.665 15.665c13.075 13.323 21.143 31.578 21.143 51.72 0 40.784-33.063 73.846-73.846 73.846-40.785 0-73.846-33.062-73.846-73.846 0-20.393 8.265-38.854 21.629-52.217l-15.665-15.665c-17.372 17.372-28.118 41.373-28.118 67.882 0 43.931 29.509 80.969 69.787 92.377-4.415 8.389-3.743 18.951 2.564 26.822 8.285-6.64 16.864-13.515 24.141-19.346 7.277 5.831 15.855 12.705 24.141 19.346 6.371-7.95 6.998-18.646 2.434-27.075 39.837-11.686 68.932-48.505 68.932-92.124z"/></g></svg>