<svg enable-background="new 0 0 512 512" viewBox="0 0 512 512" xmlns="http://www.w3.org/2000/svg"><path d="m0 85.333h512v341.337h-512z" fill="#f0f0f0"/><path d="m85.334 85.33 170.666 170.666v-170.666z"/><path d="m0 426.662h85.334l170.666-170.666h-256z"/><path d="m426.666 426.662-170.666-170.666v170.666z"/><path d="m426.666 85.33-170.666 170.666h256v-170.666z"/><path d="m196.638 204.054 59.362 7.421 59.362-7.421v-35.618l-23.745 11.873-35.617-35.617-35.617 35.617-23.745-11.873z" fill="#ffda44"/><path d="m256 345.04c-32.732 0-59.362-26.63-59.362-59.362v-59.36l22.261-22.262h74.203l22.261 22.262v59.36c-.001 32.732-26.631 59.362-59.363 59.362z" fill="#d80027"/><path d="m256 322.779c-20.458 0-37.101-16.643-37.101-37.101v-59.361h74.203v59.361c-.001 20.457-16.644 37.101-37.102 37.101z" fill="#f0f0f0"/><g fill="#ffda44"><path d="m196.641 204.05h22.261v22.261h-22.261z"/><path d="m293.098 204.05h22.261v22.261h-22.261z"/><path d="m293.098 252.29h22.261v22.261h-22.261z"/><path d="m196.641 252.29h22.261v22.261h-22.261z"/><path d="m256 322.779c-3.877 0-7.615-.6-11.13-1.709v22.908c3.608.688 7.325 1.062 11.13 1.062s7.522-.374 11.13-1.062v-22.908c-3.515 1.109-7.253 1.709-11.13 1.709z"/><path d="m219.395 291.7-17.766 17.766c3.081 7.013 7.474 13.319 12.876 18.606l15.733-15.733c-5.614-5.426-9.525-12.599-10.843-20.639z"/><path d="m310.371 309.467-17.766-17.767c-1.319 8.038-5.229 15.212-10.843 20.638l15.733 15.733c5.401-5.286 9.795-11.591 12.876-18.604z"/></g><path d="m248.579 238.683v12.367c0 4.098 3.322 7.421 7.421 7.421 4.098 0 7.421-3.322 7.421-7.421v-12.367z" fill="#0052b4"/><path d="m248.579 288.151v12.367c0 4.098 3.322 7.421 7.421 7.421 4.098 0 7.421-3.322 7.421-7.421v-12.367z" fill="#0052b4"/><path d="m270.84 263.417v12.368c0 4.097 3.322 7.421 7.421 7.421s7.421-3.324 7.421-7.421v-12.368z" fill="#0052b4"/><path d="m248.579 263.417v12.368c0 4.097 3.322 7.421 7.421 7.421 4.098 0 7.421-3.324 7.421-7.421v-12.368z" fill="#0052b4"/><path d="m226.318 263.417v12.368c0 4.097 3.322 7.421 7.421 7.421s7.421-3.324 7.421-7.421v-12.368z" fill="#0052b4"/></svg>