<svg enable-background="new 0 0 512 512" viewBox="0 0 512 512" xmlns="http://www.w3.org/2000/svg"><path d="m0 85.331h512v341.337h-512z" fill="#f0f0f0"/><path d="m0 85.331h512v48.762h-512z" fill="#6da544"/><path d="m0 182.856h512v48.762h-512z" fill="#6da544"/><path d="m0 280.381h512v48.762h-512z" fill="#6da544"/><path d="m0 377.895h512v48.762h-512z" fill="#6da544"/><path d="m0 85.331h256v146.287h-256z" fill="#d80027"/><g fill="#f0f0f0"><path d="m116.87 199.777-7.421-14.84v-29.682l18.551-14.84 18.551 14.84v22.261l7.42-7.42v14.841l-14.841 14.84z"/><path d="m76.959 154.266 1.965 6.047h6.357l-5.143 3.736 1.966 6.047-5.145-3.737-5.143 3.737 1.964-6.047-5.142-3.736h6.357z"/><path d="m91.8 139.425 1.965 6.048h6.358l-5.144 3.736 1.965 6.046-5.144-3.736-5.143 3.736 1.965-6.046-5.144-3.736h6.358z"/><path d="m106.641 124.584 1.964 6.047h6.358l-5.143 3.738 1.964 6.046-5.143-3.737-5.144 3.737 1.965-6.046-5.144-3.738h6.358z"/><path d="m179.041 154.266-1.965 6.047h-6.357l5.143 3.736-1.966 6.047 5.145-3.737 5.143 3.737-1.964-6.047 5.142-3.736h-6.357z"/><path d="m164.199 139.425-1.964 6.048h-6.357l5.143 3.736-1.965 6.046 5.143-3.736 5.145 3.736-1.966-6.046 5.144-3.736h-6.358z"/><path d="m149.359 124.584-1.964 6.047h-6.358l5.143 3.738-1.964 6.046 5.143-3.737 5.144 3.737-1.965-6.046 5.144-3.738h-6.358z"/><path d="m128 117.164-1.965 6.048h-6.357l5.143 3.736-1.964 6.046 5.143-3.736 5.143 3.736-1.964-6.046 5.143-3.736h-6.356z"/></g></svg>