<svg enable-background="new 0 0 509.85 509.85" viewBox="0 0 509.85 509.85" xmlns="http://www.w3.org/2000/svg"><path d="m0 84.975h509.85v339.904h-509.85z" fill="#f0f0f0"/><path d="m0 84.975h509.85v169.946h-509.85z" fill="#f0f0f0"/><path d="m0 154.015h509.85v31.866h-509.85z" fill="#d80027"/><g fill="#0052b4"><path d="m379.051 199.5 130.799 32.699v-32.699z"/><path d="m288.176 199.5 221.674 55.418v-15.672l-158.989-39.746z"/><path d="m450.804 254.918-162.628-40.661v40.661z"/></g><path d="m288.176 199.5 221.674 55.418v-15.672l-158.989-39.746z" fill="#f0f0f0"/><path d="m288.176 199.5 221.674 55.418v-15.672l-158.989-39.746z" fill="#d80027"/><path d="m99.957 199.499-99.957 24.988v-24.988z" fill="#0052b4"/><path d="m221.674 206.546v48.371h-193.469z" fill="#0052b4"/><path d="m158.988 199.5-158.988 39.746v15.672l221.674-55.418z" fill="#d80027"/><path d="m130.799 140.389-130.799-32.699v32.699z" fill="#0052b4"/><path d="m221.674 140.389-221.674-55.418v15.671l158.989 39.747z" fill="#0052b4"/><path d="m59.046 84.971 162.628 40.66v-40.66z" fill="#0052b4"/><path d="m221.674 140.389-221.674-55.418v15.671l158.989 39.747z" fill="#f0f0f0"/><path d="m221.674 140.389-221.674-55.418v15.671l158.989 39.747z" fill="#d80027"/><path d="m409.893 140.39 99.957-24.989v24.989z" fill="#0052b4"/><path d="m288.176 133.342v-48.369h193.469z" fill="#0052b4"/><path d="m350.862 140.389 158.988-39.746v-15.672l-221.674 55.418z" fill="#d80027"/><path d="m238.998 84.975h31.855v169.946h-31.855z" fill="#d80027"/><path d="m509.85 270.693v22.234c-4.411.743-12.802 5.497-19.053 9.055-10.906 6.196-21.214 12.048-31.068 12.048-9.864 0-20.161-5.852-31.079-12.048-6.805-3.868-16.127-9.155-20.128-9.155s-13.323 5.287-20.128 9.155c-10.906 6.196-21.214 12.048-31.068 12.048s-20.161-5.852-31.079-12.048c-6.805-3.868-16.127-9.155-20.128-9.155-3.99 0-13.312 5.287-20.117 9.155-10.917 6.196-21.225 12.048-31.079 12.048s-20.161-5.852-31.079-12.048c-6.805-3.868-16.127-9.155-20.117-9.155-4.001 0-13.323 5.287-20.128 9.155-10.917 6.196-21.225 12.048-31.079 12.048-9.853 0-20.161-5.852-31.068-12.048-6.805-3.868-16.127-9.155-20.128-9.155s-13.323 5.287-20.128 9.155c-10.917 6.196-21.214 12.048-31.079 12.048-9.853 0-20.161-5.852-31.068-12.048-6.247-3.557-14.638-8.312-19.049-9.055v-22.234c9.521.388 19.485 6.041 30.004 12.015 6.805 3.857 16.127 9.155 20.117 9.155 4.001 0 13.323-5.298 20.128-9.155 10.917-6.196 21.225-12.048 31.079-12.048s20.161 5.852 31.068 12.048c6.805 3.857 16.127 9.155 20.128 9.155s13.323-5.298 20.128-9.155c10.917-6.196 21.214-12.048 31.079-12.048 9.853 0 20.161 5.852 31.068 12.048 6.805 3.857 16.127 9.155 20.128 9.155s13.323-5.298 20.128-9.155c10.906-6.196 21.214-12.048 31.068-12.048 9.864 0 20.161 5.852 31.079 12.048 6.805 3.857 16.127 9.155 20.128 9.155s13.323-5.298 20.128-9.155c10.906-6.196 21.214-12.048 31.068-12.048 9.853 0 20.161 5.852 31.079 12.048 6.805 3.857 16.127 9.155 20.128 9.155 3.99 0 13.312-5.298 20.117-9.155 10.515-5.974 20.479-11.627 30-12.015z" fill="#0052b4"/><path d="m509.85 326.112v22.234c-4.411.743-12.802 5.497-19.053 9.055-10.906 6.196-21.214 12.048-31.068 12.048-9.864 0-20.161-5.852-31.079-12.048-6.805-3.868-16.127-9.155-20.128-9.155s-13.323 5.287-20.128 9.155c-10.906 6.196-21.214 12.048-31.068 12.048s-20.161-5.852-31.079-12.048c-6.805-3.868-16.127-9.155-20.128-9.155-3.99 0-13.312 5.287-20.117 9.155-10.917 6.196-21.225 12.048-31.079 12.048s-20.161-5.852-31.079-12.048c-6.805-3.868-16.127-9.155-20.117-9.155-4.001 0-13.323 5.287-20.128 9.155-10.917 6.196-21.225 12.048-31.079 12.048-9.853 0-20.161-5.852-31.068-12.048-6.805-3.868-16.127-9.155-20.128-9.155s-13.323 5.287-20.128 9.155c-10.917 6.196-21.214 12.048-31.079 12.048-9.853 0-20.161-5.852-31.068-12.048-6.251-3.558-14.642-8.313-19.053-9.055v-22.234c9.521.388 19.485 6.041 30.004 12.015 6.805 3.857 16.127 9.155 20.117 9.155 4.001 0 13.323-5.298 20.128-9.155 10.917-6.196 21.225-12.048 31.079-12.048s20.161 5.852 31.068 12.048c6.805 3.857 16.127 9.155 20.128 9.155s13.323-5.298 20.128-9.155c10.917-6.196 21.214-12.048 31.079-12.048 9.853 0 20.161 5.852 31.068 12.048 6.805 3.857 16.127 9.155 20.128 9.155s13.323-5.298 20.128-9.155c10.906-6.196 21.214-12.048 31.068-12.048 9.864 0 20.161 5.852 31.079 12.048 6.805 3.857 16.127 9.155 20.128 9.155s13.323-5.298 20.128-9.155c10.906-6.196 21.214-12.048 31.068-12.048 9.853 0 20.161 5.852 31.079 12.048 6.805 3.857 16.127 9.155 20.128 9.155 3.99 0 13.312-5.298 20.117-9.155 10.519-5.975 20.483-11.628 30.004-12.015z" fill="#0052b4"/><path d="m509.85 381.53v22.234c-4.411.743-12.802 5.497-19.053 9.055-10.906 6.196-21.214 12.048-31.068 12.048-9.864 0-20.161-5.852-31.079-12.048-6.805-3.868-16.127-9.155-20.128-9.155s-13.323 5.287-20.128 9.155c-10.906 6.196-21.214 12.048-31.068 12.048s-20.161-5.852-31.079-12.048c-6.805-3.868-16.127-9.155-20.128-9.155-3.99 0-13.312 5.287-20.117 9.155-10.917 6.196-21.225 12.048-31.079 12.048s-20.161-5.852-31.079-12.048c-6.805-3.868-16.127-9.155-20.117-9.155-4.001 0-13.323 5.287-20.128 9.155-10.917 6.196-21.225 12.048-31.079 12.048-9.853 0-20.161-5.852-31.068-12.048-6.805-3.868-16.127-9.155-20.128-9.155s-13.323 5.287-20.128 9.155c-10.917 6.196-21.214 12.048-31.079 12.048-9.853 0-20.161-5.852-31.068-12.048-6.251-3.558-14.642-8.313-19.053-9.055v-22.234c9.521.388 19.485 6.041 30.004 12.015 6.805 3.857 16.127 9.155 20.117 9.155 4.001 0 13.323-5.298 20.128-9.155 10.917-6.196 21.225-12.048 31.079-12.048s20.161 5.852 31.068 12.048c6.805 3.857 16.127 9.155 20.128 9.155s13.323-5.298 20.128-9.155c10.917-6.196 21.214-12.048 31.079-12.048 9.853 0 20.161 5.852 31.068 12.048 6.805 3.857 16.127 9.155 20.128 9.155s13.323-5.298 20.128-9.155c10.906-6.196 21.214-12.048 31.068-12.048 9.864 0 20.161 5.852 31.079 12.048 6.805 3.857 16.127 9.155 20.128 9.155s13.323-5.298 20.128-9.155c10.906-6.196 21.214-12.048 31.068-12.048 9.853 0 20.161 5.852 31.079 12.048 6.805 3.857 16.127 9.155 20.128 9.155 3.99 0 13.312-5.298 20.117-9.155 10.519-5.974 20.483-11.627 30.004-12.015z" fill="#0052b4"/><path d="m306.463 388.055 18.96-34.485-38.667 7.395-4.899-39.06-26.932 28.728-26.931-28.728-4.901 39.06-38.665-7.395 18.961 34.484-35.608 16.75 35.607 16.747-1.824 3.32h106.721l-1.824-3.319 35.608-16.748z" fill="#ffda44"/></svg>