<svg enable-background="new 0 0 512 512" viewBox="0 0 512 512" xmlns="http://www.w3.org/2000/svg"><path d="m0 85.331h512v341.337h-512z" fill="#0052b4"/><g fill="#f0f0f0"><path d="m160.299 189.212 3.685 11.337h11.919l-9.643 7.007 3.684 11.336-9.645-7.006-9.644 7.006 3.684-11.336-9.643-7.007h11.919z"/><path d="m197.4 178.081 3.685 11.338h11.919l-9.643 7.006 3.684 11.337-9.645-7.007-9.644 7.007 3.684-11.337-9.643-7.006h11.919z"/><path d="m234.503 166.951 3.683 11.337h11.919l-9.643 7.007 3.684 11.336-9.643-7.006-9.645 7.006 3.684-11.336-9.643-7.007h11.919z"/><path d="m351.701 189.212-3.685 11.337h-11.919l9.643 7.007-3.684 11.336 9.645-7.006 9.644 7.006-3.684-11.336 9.643-7.007h-11.919z"/><path d="m314.6 178.081-3.685 11.338h-11.919l9.643 7.006-3.684 11.337 9.645-7.007 9.644 7.007-3.684-11.337 9.643-7.006h-11.919z"/><path d="m277.497 166.951-3.683 11.337h-11.919l9.643 7.007-3.684 11.336 9.643-7.006 9.645 7.006-3.684-11.336 9.643-7.007h-11.92z"/></g><path d="m285.682 263.414-29.682-37.102-14.84 7.421v14.84l-22.261 14.84h-14.84v19.172c21.751 8.808 37.101 30.12 37.101 55.03h14.84v-14.84l14.84-14.84 14.84 14.84 14.841-14.839v-14.84l14.84-22.261z" fill="#ffda44"/></svg>