<svg enable-background="new 0 0 512 512" viewBox="0 0 512 512" xmlns="http://www.w3.org/2000/svg"><path d="m0 85.337h512v341.326h-512z" fill="#f0f0f0"/><path d="m0 85.337h512v113.775h-512z" fill="#496e2d"/><path d="m0 312.888h512v113.775h-512z" fill="#d80027"/><path d="m256 218.899 9.208 28.341h29.803l-24.111 17.519 9.211 28.342-24.111-17.516-24.111 17.516 9.211-28.342-24.111-17.519h29.803z"/><g fill="#f0f0f0"><path d="m306.706 118.725v34.628c0 5.456-4.439 9.894-9.894 9.894v14.84c13.639 0 24.734-11.096 24.734-24.735v-34.628h-14.84z"/><path d="m200.348 153.352c0 5.456-4.439 9.894-9.894 9.894v14.841c13.639 0 24.734-11.096 24.734-24.735v-34.628h-14.84z"/><path d="m284.449 118.728h14.84v34.627h-14.84z"/><path d="m262.184 138.512c0 1.363-1.11 2.474-2.473 2.474s-2.473-1.11-2.473-2.474v-19.787h-14.84v19.787c0 1.363-1.11 2.474-2.473 2.474s-2.473-1.11-2.473-2.474v-19.787h-14.842v19.787c0 9.548 7.767 17.314 17.314 17.314 3.676 0 7.087-1.155 9.894-3.118 2.807 1.962 6.217 3.118 9.894 3.118.74 0 1.468-.052 2.185-.144-1.052 4.333-4.953 7.564-9.604 7.564v14.84c13.639 0 24.734-11.096 24.734-24.735v-14.84-19.787h-14.84v19.787h-.003z"/><path d="m222.609 163.25h22.261v14.84h-22.261z"/></g></svg>