<svg enable-background="new 0 0 512 512" viewBox="0 0 512 512" xmlns="http://www.w3.org/2000/svg"><path d="m0 85.333h512v341.337h-512z" fill="#d80027"/><path d="m11.13 96.464h489.739v319.076h-489.739z" fill="#0052b4"/><path d="m131.2 255.996 124.8-78.442 124.8 78.442-124.8 78.443z" fill="#d80027"/><path d="m250.435 85.33v165.101h-250.435v11.13h250.435v165.101h11.13v-165.101h250.435v-11.13h-250.435v-165.101z" fill="#d80027"/><path d="m152.116 255.996 103.884-65.294 103.884 65.294-103.884 65.296z" fill="#f0f0f0"/><path d="m325.02 277.901-12.366 7.78h-116.013l.646-1.291 14.191-28.394 14.837 14.837h29.685l14.837-22.261 14.848 7.424 14.837-14.837z" fill="#6da544"/><path d="m256 211.474 3.684 11.338h11.92l-9.644 7.005 3.685 11.339-9.645-7.008-9.645 7.008 3.685-11.339-9.644-7.005h11.92z" fill="#ffda44"/></svg>