<svg enable-background="new 0 0 512 512" viewBox="0 0 512 512" xmlns="http://www.w3.org/2000/svg"><path d="m0 85.331h512v341.337h-512z" fill="#338af3"/><path d="m166.957 270.831h178.087v22.261h-178.087z" fill="#818085"/><path d="m196.638 204.052 59.362 7.422 59.362-7.422v-35.617l-23.745 11.872-35.617-35.617-35.617 35.617-23.745-11.872z" fill="#ffda44"/><path d="m181.797 315.357h-22.261v-40.811l7.421-11.131-7.421-11.13v-25.971h22.261z" fill="#f0f0f0"/><path d="m352.464 315.357h-22.261v-89.043h22.261v25.97l-7.421 11.317 7.421 10.947z" fill="#f0f0f0"/><path d="m159.533 252.288h192.924v22.261h-192.924z" fill="#acabb1"/><path d="m256 345.038c-32.732 0-59.362-26.63-59.362-59.362v-81.623h118.725v81.623c-.001 32.732-26.631 59.362-59.363 59.362z" fill="#f0f0f0"/><path d="m256 322.777c-20.458 0-37.101-16.643-37.101-37.101v-59.362h74.203v59.362c-.001 20.458-16.644 37.101-37.102 37.101z" fill="#0052b4"/><g fill="#d80027"><path d="m196.641 204.049h22.261v22.261h-22.261z"/><path d="m293.098 204.049h22.261v22.261h-22.261z"/><path d="m293.098 252.288h22.261v22.261h-22.261z"/><path d="m196.641 252.288h22.261v22.261h-22.261z"/><path d="m244.87 204.049h22.261v22.261h-22.261z"/><path d="m256 322.777c-3.877 0-7.615-.6-11.13-1.709v22.908c3.608.688 7.325 1.062 11.13 1.062s7.522-.374 11.13-1.062v-22.908c-3.515 1.109-7.253 1.709-11.13 1.709z"/><path d="m219.395 291.699-17.766 17.766c3.081 7.013 7.474 13.319 12.876 18.606l15.733-15.733c-5.614-5.426-9.525-12.6-10.843-20.639z"/><path d="m310.371 309.465-17.766-17.766c-1.319 8.038-5.229 15.212-10.843 20.638l15.733 15.733c5.401-5.286 9.795-11.592 12.876-18.605z"/></g></svg>