<svg enable-background="new 0 0 512 512" viewBox="0 0 512 512" xmlns="http://www.w3.org/2000/svg"><path d="m0 85.333h512v341.337h-512z" fill="#338af3"/><g fill="#ffda44"><path d="m321.691 333.909 3.684 11.338h11.921l-9.644 7.006 3.684 11.338-9.645-7.007-9.644 7.007 3.684-11.338-9.644-7.006h11.921z"/><path d="m416.628 259.706 3.684 11.338h11.92l-9.644 7.006 3.684 11.337-9.644-7.006-9.644 7.006 3.684-11.337-9.645-7.006h11.921z"/><path d="m440.416 148.402 3.684 11.337h11.921l-9.644 7.007 3.684 11.337-9.645-7.007-9.644 7.007 3.684-11.337-9.644-7.007h11.92z"/><path d="m446.309 230.025 3.683 11.338h11.921l-9.643 7.006 3.684 11.337-9.645-7.007-9.644 7.007 3.684-11.337-9.645-7.006h11.921z"/><path d="m338.785 307.245 10.623 5.412 8.428-8.429-1.865 11.773 10.622 5.412-11.775 1.865-1.864 11.774-5.412-10.622-11.774 1.866 8.43-8.429z"/><path d="m338.785 262.723 10.623 5.412 8.428-8.429-1.865 11.774 10.622 5.411-11.775 1.866-1.864 11.773-5.412-10.621-11.774 1.865 8.43-8.429z"/><path d="m375.886 291.262 10.623 5.411 8.429-8.429-1.864 11.774 10.62 5.412-11.775 1.865-1.864 11.774-5.411-10.622-11.774 1.866 8.429-8.429z"/><path d="m375.886 195.941 10.623 5.411 8.429-8.429-1.864 11.774 10.62 5.412-11.775 1.865-1.864 11.774-5.411-10.622-11.774 1.866 8.429-8.43z"/><path d="m411.844 194.798 10.623 5.411 8.429-8.428-1.865 11.773 10.621 5.412-11.775 1.865-1.864 11.774-5.411-10.622-11.774 1.865 8.429-8.429z"/></g><path d="m0 85.333h256v170.663h-256z" fill="#f0f0f0"/><path d="m144 85.33h-32v69.333h-112v32h112v69.333h32v-69.333h112v-32h-112z" fill="#d80027"/><path d="m196.892 200.344 59.108 32.838v-32.838z" fill="#0052b4"/><path d="m155.826 200.344 100.174 55.652v-15.737l-71.847-39.915z" fill="#0052b4"/><path d="m229.317 255.996-73.491-40.832v40.832z" fill="#0052b4"/><path d="m155.826 200.344 100.174 55.652v-15.737l-71.847-39.915z" fill="#f0f0f0"/><path d="m155.826 200.344 100.174 55.652v-15.737l-71.847-39.915z" fill="#d80027"/><path d="m45.171 200.343-45.171 25.096v-25.096z" fill="#0052b4"/><path d="m100.174 207.421v48.575h-87.429z" fill="#0052b4"/><path d="m71.846 200.344-71.846 39.915v15.737l100.174-55.652z" fill="#d80027"/><path d="m59.108 140.982-59.108-32.838v32.838z" fill="#0052b4"/><path d="m100.174 140.982-100.174-55.652v15.737l71.847 39.915z" fill="#0052b4"/><path d="m26.683 85.33 73.491 40.832v-40.832z" fill="#0052b4"/><path d="m100.174 140.982-100.174-55.652v15.737l71.847 39.915z" fill="#f0f0f0"/><path d="m100.174 140.982-100.174-55.652v15.737l71.847 39.915z" fill="#d80027"/><path d="m210.829 140.983 45.171-25.095v25.095z" fill="#0052b4"/><path d="m155.826 133.906v-48.575h87.429z" fill="#0052b4"/><path d="m184.154 140.982 71.846-39.915v-15.737l-100.174 55.652z" fill="#d80027"/></svg>