<svg enable-background="new 0 0 512 512" viewBox="0 0 512 512" xmlns="http://www.w3.org/2000/svg"><path d="m0 85.331h512v341.337h-512z" fill="#0052b4"/><path d="m329.244 264.191c.628-3.878.959-7.855.959-11.906 0 4.051-.331 8.028-.959 11.906l30.641-11.906-30.641-11.906-16.829-6.54-27.343-10.625-10.625-27.343c17.916 5.872 32.095 20.05 37.967 37.967l16.829 6.54c-5.087-31.398-29.94-56.251-61.336-61.338l-11.907-30.64-11.906 30.641c-31.397 5.087-56.251 29.94-61.336 61.338l-30.641 11.906 30.641 11.906c5.085 31.397 29.94 56.251 61.336 61.336l11.906 30.641 11.906-30.641c31.398-5.085 56.251-29.939 61.338-61.336zm-55.639-29.511-17.605 17.605h62.91l-45.305 17.605-17.605-17.605v62.911l-17.605-45.305 17.605-17.606h-62.91l45.304-17.604 17.606 17.604v-62.91zm-36.051-38.809-10.625 27.343-27.342 10.625c5.872-17.918 20.05-32.094 37.967-37.968zm-37.968 74.86 27.342 10.625 10.625 27.342c-17.916-5.873-32.093-20.051-37.967-37.967zm74.86 37.966 10.625-27.342 27.342-10.625c-5.873 17.917-20.051 32.095-37.967 37.967z" fill="#f0f0f0"/><g fill="#0052b4"><path d="m318.91 252.285h-62.91l17.605 17.605z"/><path d="m193.09 252.285h62.91l-17.605-17.605z"/><path d="m256 315.195v-62.91l-17.605 17.605z"/><path d="m256 252.285 17.605-17.605-17.605-45.306z"/></g><path d="m248.576 103.875h14.84v29.682h-14.84z" fill="#f0f0f0"/><path d="m107.598 244.864h29.682v14.84h-29.682z" fill="#f0f0f0"/><path d="m248.576 371.005h14.84v29.682h-14.84z" fill="#f0f0f0"/><path d="m374.728 244.864h29.682v14.84h-29.682z" fill="#f0f0f0"/></svg>