<svg enable-background="new 0 0 512 512" viewBox="0 0 512 512" xmlns="http://www.w3.org/2000/svg"><path d="m0 85.331h512v341.337h-512z" fill="#ffda44"/><path d="m22.261 107.592h467.478v296.815h-467.478z" fill="#d80027"/><g fill="#0052b4"><path d="m370.111 404.4h119.628v-70.263l-233.739-70.264 55.983 91.477z"/><path d="m489.739 167.017-233.739 96.856h233.739z"/><path d="m320.76 107.589-64.76 156.284 156.284-156.284z"/><path d="m191.24 107.589 64.76 156.284v-156.284z"/><path d="m22.261 107.589v59.428l233.739 96.856-156.285-156.284z"/><path d="m22.261 263.873v70.263l233.739-70.263z"/></g><path d="m258.469 266.281 48.717 33.919c8.681-12.468 12.605-28.247 9.716-44.383-5.779-32.272-36.625-53.748-68.896-47.969-32.272 5.779-53.748 36.625-47.969 68.896 2.889 16.136 12.045 29.572 24.514 38.253z" fill="#ffda44"/><path d="m492.208 404.299h-467.478l233.739-138.018z" fill="#f0f0f0"/><path d="m281.971 351.718c0 14.344-11.628 18.551-25.971 18.551s-25.971-4.207-25.971-18.551 11.628-25.971 25.971-25.971c14.343.001 25.971 11.628 25.971 25.971z" fill="#ffda44"/><path d="m281.971 351.718c0 14.344-11.628 25.971-25.971 25.971s-25.971-11.628-25.971-25.971" fill="#0052b4"/></svg>