<svg enable-background="new 0 0 473.68 473.68" viewBox="0 0 473.68 473.68" xmlns="http://www.w3.org/2000/svg"><path d="m41.712 102.641c-15.273 22.168-26.88 47.059-33.918 73.812h107.734z" fill="#29337a"/><path d="m170.511 9.48c-27.288 7.947-52.56 20.628-74.814 37.168l74.814 74.814z" fill="#29337a"/><path d="m101.261 430.982c20.874 14.607 44.195 25.915 69.25 33.211v-102.45z" fill="#29337a"/><path d="m10.512 306.771c7.831 25.366 19.831 48.899 35.167 69.833l69.833-69.833z" fill="#29337a"/><path d="m45.619 97.144c-1.324 1.81-2.629 3.646-3.908 5.501l73.816 73.812h-107.734c-1.746 6.645-3.171 13.418-4.345 20.284h141.776z" fill="#fff"/><path d="m95.767 427.074c1.802 1.343 3.654 2.621 5.493 3.908l69.25-69.242v102.45c6.653 1.945 13.41 3.624 20.284 4.974v-137.114z" fill="#fff"/><path d="m5.25 286.487c1.47 6.873 3.205 13.642 5.258 20.284h105.001l-69.833 69.833c7.595 10.377 16.017 20.115 25.168 29.12l119.236-119.237z" fill="#fff"/><path d="m170.511 9.48v111.982l-74.815-74.81c-10.314 7.67-19.955 16.185-28.888 25.403l123.983 123.983v-191.532c-6.87 1.358-13.627 3.041-20.28 4.974z" fill="#fff"/><path d="m170.511 306.056-.711.715h.711z" fill="#d32030"/><path d="m190.084 286.487h.71v-.714z" fill="#d32030"/><path d="m281.229 196.737h-.684v.688z" fill="#d32030"/><path d="m171.21 176.457-.699-.703v.703z" fill="#d32030"/><path d="m190.794 196.037v.7h.7z" fill="#d32030"/><path d="m300.825 411.764v53.091c25.381-7.105 49.045-18.305 70.211-32.897l-57.526-57.526c-4.597 16.151-6.279 24.501-12.685 37.332z" fill="#252f6c"/><path d="m313.812 108.471 62.799-62.799c-22.561-16.522-48.155-29.113-75.787-36.854v54.538c7.386 14.79 8.007 26.028 12.988 45.115z" fill="#252f6c"/><path d="m427.029 377.984c15.815-21.275 28.141-45.29 36.147-71.213h-107.36z" fill="#252f6c"/><path d="m465.887 176.457c-7.188-27.318-19.143-52.676-34.898-75.192l-75.2 75.192z" fill="#252f6c"/><g fill="#e7e7e7"><path d="m327.638 290.5 16.275 16.275 77.903 77.903c1.769-2.214 3.526-4.42 5.217-6.69l-71.213-71.213h107.36c2.046-6.638 3.784-13.41 5.25-20.284h-139.27c-.228 2.876-1.249 1.152-1.522 4.009z"/><path d="m311.352 120.348 70.607-70.615c-1.769-1.372-3.541-2.737-5.348-4.061l-62.799 62.799c.651 2.483-3.066 9.334-2.46 11.877z"/><path d="m300.825 58.992v-50.178c-6.645-1.862-13.41-3.44-20.284-4.727v24.476c7.547 8.182 14.312 18.459 20.284 30.429z"/><path d="m326.041 196.737h144.195c-1.171-6.866-2.599-13.635-4.345-20.284h-110.098l75.2-75.192c-7.393-10.561-15.609-20.493-24.584-29.696l-84.702 84.694c2.281 15.363 3.302 24.285 4.334 40.478z"/><path d="m310.088 371.002 60.952 60.959c10.138-6.982 19.685-14.753 28.593-23.189l-80.173-80.177c-2.559 14.828-5.595 29.15-9.372 42.407z"/><path d="m280.545 442.301v27.28c6.873-1.279 13.635-2.865 20.284-4.727v-53.091c-5.976 11.975-12.741 22.367-20.284 30.538z"/></g><path d="m321.707 156.259 84.694-84.694c-7.625-7.831-15.8-15.119-24.446-21.832l-66.55 66.561c2.958 12.363 4.301 26.514 6.302 39.965z" fill="#d71f28"/><path d="m225.019.292c3.946-.191 7.88-.292 11.817-.292-3.96 0-7.901.101-11.817.292z" fill="#d32030"/><path d="m236.836 473.68c-3.938 0-7.872-.108-11.81-.299 3.916.198 7.85.299 11.81.299z" fill="#d32030"/><path d="m236.836 473.68c14.943 0 29.535-1.447 43.708-4.099v-27.28c-12.441 13.485-26.995 31.379-43.708 31.379z" fill="#d32030"/><path d="m470.232 196.737h-142.321c1.885 29.704 1.657 60.249-.681 89.75h141.2c3.418-16.017 5.25-32.613 5.25-49.643 0-13.68-1.219-27.06-3.448-40.107z" fill="#d71f28"/><path d="m327.638 290.5c-1.316 13.994-5.901 24.898-8.182 38.099l80.173 80.173c7.932-7.517 15.347-15.557 22.183-24.094l-77.9-77.907z" fill="#d71f28"/><path d="m280.545 30.324v-26.233c-14.169-2.644-28.761-4.091-43.709-4.091 16.713 0 31.267 16.843 43.709 30.324z" fill="#d32030"/><path d="m300.825 422.007c6.406-12.834 11.899-27.609 16.499-43.757l-16.499-16.499z" fill="#29337a"/><path d="m319.377 102.906c-4.989-19.087-11.166-36.439-18.552-51.229v69.773z" fill="#29337a"/><path d="m332.234 295.092c.269-2.857.512-5.725.744-8.605h-9.349z" fill="#fff"/><path d="m300.825 121.451v-69.777c-5.976-11.97-12.737-22.254-20.284-30.429v129.906l40.735-40.735c-.613-2.543-1.257-5.034-1.9-7.517z" fill="#fff"/><path d="m281.229 196.737h52.429c-1.028-16.192-2.666-32.123-4.944-47.482z" fill="#fff"/><path d="m280.545 452.432c7.547-8.182 14.308-18.459 20.284-30.429v-60.256l16.499 16.499c3.784-13.264 6.959-27.434 9.525-42.261l-46.307-46.304z" fill="#fff"/><path d="m280.545 452.432v-162.751l46.304 46.307c2.277-13.205 4.069-26.899 5.381-40.896l-8.605-8.605h9.349c2.337-29.502 2.565-60.047.681-89.75h-52.429l47.482-47.482c-2.001-13.455-4.476-26.469-7.434-38.836l-40.728 40.735v-129.906c-12.443-13.485-26.997-21.248-43.71-21.248-3.938 0-7.872.101-11.817.292-11.649.583-23.073 2.016-34.225 4.215v191.531l-123.986-123.983c-7.618 7.861-14.704 16.237-21.189 25.089l79.313 79.313 20.291 20.284h-141.775c-2.221 13.043-3.448 26.423-3.448 40.103 0 17.034 1.84 33.626 5.25 49.643h184.834l-119.237 119.237c7.808 7.67 16.121 14.813 24.921 21.349l95.023-95.023v137.116c11.151 2.199 22.583 3.631 34.232 4.215 3.938.191 7.872.299 11.81.299 16.716 0 31.27-7.763 43.712-21.248z" fill="#e51d35"/></svg>