<?xml version="1.0" encoding="utf-8"?>
<!-- Generator: Adobe Illustrator 21.0.0, SVG Export Plug-In . SVG Version: 6.00 Build 0)  -->
<svg version="1.1" width="116" height="64" xmlns="http://www.w3.org/2000/svg" xmlns:xlink="http://www.w3.org/1999/xlink" x="0px" y="0px"
	 viewBox="0 0 116 64" style="enable-background:new 0 0 116 64;" xml:space="preserve">
<style type="text/css">
	.st0{fill:#222222;}
	.st1{fill:#48ABBC;}
</style>
<path class="st0" d="M11.9,37.7L7.3,26.8l-0.6-1.3l-0.1-0.3c-0.1-0.3-0.3-0.4-0.5-0.4c-0.3,0-0.4,0.2-0.5,0.4l-0.1,0.3l-0.6,1.3
	L0.2,37.7c-0.1,0.3,0,0.6,0.4,0.7c0.2,0,0.4-0.1,0.4-0.3l1.3-3.2h7.4l1.3,3.2c0.1,0.2,0.3,0.3,0.4,0.3C11.9,38.3,12.1,38,11.9,37.7z
	 M2.7,34.1l3-7.3l0.3-0.7l0.3,0.7l3,7.3H2.7z"/>
<path class="st0" d="M5.4,25.1c0.1-0.3,0.3-0.5,0.7-0.5c0.2,0,0.3,0,0.4,0.1c0.1,0.1,0.2,0.2,0.2,0.4l0.1,0.3l0.6,1.3l4.7,10.9
	c0.1,0.2,0.1,0.4,0,0.5c-0.1,0.2-0.2,0.3-0.5,0.3c-0.3,0-0.5-0.1-0.6-0.4l-1.3-3.1H2.5l-1.3,3.1l0,0c-0.1,0.2-0.3,0.4-0.6,0.4
	c-0.2,0-0.4-0.1-0.5-0.3C0,38,0,37.8,0.1,37.6l0,0l4.6-10.9l0.6-1.3l0,0L5.4,25.1z M5.7,25.3C5.7,25.3,5.7,25.3,5.7,25.3l-0.1,0.3
	l0,0L5,26.9L0.3,37.8c0,0.1,0,0.2,0,0.3c0,0.1,0.1,0.1,0.2,0.1l0,0l0,0c0.1,0,0.2-0.1,0.3-0.2l1.4-3.2h7.6l1.4,3.3l0,0
	c0,0.1,0.2,0.2,0.3,0.2l0,0l0,0c0.1,0,0.2-0.1,0.2-0.2c0-0.1,0-0.2,0-0.3l0,0L7.1,26.9l-0.6-1.3l0,0l-0.1-0.3l0,0
	c0-0.1-0.1-0.2-0.1-0.2c0,0-0.1-0.1-0.2-0.1C5.9,24.9,5.8,25.1,5.7,25.3z M6.1,25.7l0.5,1.1l3.1,7.5H2.5l3.1-7.5l0,0L6.1,25.7z
	 M5.9,26.9L5.9,26.9l-3,7.1h6.3l-3-7l0,0l-0.2-0.4L5.9,26.9z"/>
<path class="st0" d="M24.9,35.9c-1.1,1.1-2.4,1.6-3.9,1.7c-0.1,0-0.3,0-0.4,0c-0.3,0-0.6,0-0.9-0.1c-2.9-0.4-5-3-5-6
	c0-3.1,2.2-5.6,5-6c0.3-0.1,0.6-0.1,0.9-0.1c0.1,0,0.3,0,0.4,0c1.4,0.1,2.8,0.7,3.9,1.8c0.2,0.2,0.5,0.2,0.7,0
	c0.1-0.2,0.1-0.4-0.1-0.6c-1.3-1.2-2.8-1.9-4.4-2c-0.1,0-0.3,0-0.4,0c-0.3,0-0.6,0-0.9,0.1c-3.5,0.4-5.9,3.5-5.9,6.9
	c0,3.5,2.6,6.4,5.9,6.9c0.3,0,0.6,0.1,0.9,0.1c0.1,0,0.3,0,0.4,0c1.6-0.1,3.2-0.7,4.4-2c0.2-0.2,0.2-0.4,0.1-0.6
	C25.4,35.8,25.1,35.8,24.9,35.9z"/>
<path class="st0" d="M19.7,24.6c0.3,0,0.6-0.1,0.9-0.1h0c0.1,0,0.3,0,0.4,0c1.7,0.1,3.2,0.8,4.5,2c0.3,0.2,0.3,0.6,0.1,0.8l0,0l0,0
	c-0.1,0.1-0.3,0.2-0.4,0.2c-0.2,0-0.3-0.1-0.4-0.1l0,0l0,0c-1.1-1-2.4-1.7-3.8-1.7l0,0l0,0c-0.1,0-0.2,0-0.4,0c-0.3,0-0.6,0-0.9,0.1
	l0,0l0,0c-2.8,0.4-4.9,2.9-4.9,5.9c0,2.9,2,5.4,4.9,5.8l0,0l0,0c0.3,0,0.6,0.1,0.9,0.1c0.1,0,0.3,0,0.4,0l0,0l0,0
	c1.4-0.1,2.7-0.6,3.8-1.7l0,0l0,0c0.3-0.2,0.6-0.2,0.9,0l0,0l0,0c0.2,0.3,0.1,0.6-0.1,0.8c-1.3,1.3-2.9,1.9-4.5,2
	c-0.1,0-0.3,0-0.4,0h0c-0.3,0-0.6,0-0.9-0.1c-3.5-0.5-6.1-3.5-6.1-7C13.6,28.2,16.1,25,19.7,24.6z M20.6,24.8c-0.3,0-0.6,0-0.9,0.1
	l0,0v0c-3.4,0.4-5.8,3.4-5.8,6.7c0,3.4,2.5,6.3,5.8,6.7l0,0c0.3,0,0.6,0.1,0.9,0.1c0.1,0,0.3,0,0.4,0l0,0l0,0
	c1.6-0.1,3.1-0.7,4.3-1.9l0,0l0,0c0.1-0.1,0.2-0.3,0.1-0.4c-0.1-0.1-0.3-0.1-0.4,0c-1.1,1.1-2.5,1.7-4,1.7c-0.1,0-0.3,0-0.4,0h0
	c-0.3,0-0.6,0-0.9-0.1c-3-0.5-5.2-3.1-5.2-6.1c0-3.2,2.2-5.7,5.2-6.2c0.3-0.1,0.6-0.1,1-0.1h0c0.1,0,0.3,0,0.4,0
	c1.5,0.1,2.9,0.7,4,1.8c0.1,0.1,0.2,0.1,0.2,0.1c0.1,0,0.1,0,0.2-0.1c0.1-0.1,0.1-0.3-0.1-0.4l0,0l0,0c-1.2-1.2-2.7-1.9-4.3-2l0,0
	l0,0C20.9,24.8,20.8,24.8,20.6,24.8z"/>
<path class="st0" d="M39.9,35.9c-1.1,1.1-2.4,1.6-3.9,1.7c-0.1,0-0.3,0-0.4,0c-0.3,0-0.6,0-0.9-0.1c-2.9-0.4-5-3-5-6
	c0-3.1,2.2-5.6,5-6c0.3-0.1,0.6-0.1,0.9-0.1c0.1,0,0.3,0,0.4,0c1.4,0.1,2.8,0.7,3.9,1.8c0.2,0.2,0.5,0.2,0.7,0
	c0.1-0.2,0.1-0.4-0.1-0.6c-1.3-1.2-2.8-1.9-4.4-2c-0.1,0-0.3,0-0.4,0c-0.3,0-0.6,0-0.9,0.1c-3.5,0.4-5.9,3.5-5.9,6.9
	c0,3.5,2.6,6.4,5.9,6.9c0.3,0,0.6,0.1,0.9,0.1c0.1,0,0.3,0,0.4,0c1.6-0.1,3.2-0.7,4.4-2c0.2-0.2,0.2-0.4,0.1-0.6
	C40.4,35.8,40.1,35.8,39.9,35.9z"/>
<path class="st0" d="M34.7,24.6c0.3,0,0.6-0.1,0.9-0.1h0c0.1,0,0.3,0,0.4,0c1.7,0.1,3.2,0.8,4.5,2c0.3,0.2,0.3,0.6,0.1,0.8l0,0l0,0
	c-0.1,0.1-0.3,0.2-0.4,0.2c-0.2,0-0.3-0.1-0.4-0.1l0,0l0,0c-1.1-1-2.4-1.7-3.8-1.7l0,0l0,0c-0.1,0-0.2,0-0.4,0c-0.3,0-0.6,0-0.9,0.1
	l0,0l0,0c-2.8,0.4-4.9,2.9-4.9,5.9c0,2.9,2,5.4,4.9,5.8l0,0l0,0c0.3,0,0.6,0.1,0.9,0.1c0.1,0,0.3,0,0.4,0l0,0l0,0
	c1.4-0.1,2.7-0.6,3.8-1.7l0,0l0,0c0.3-0.2,0.6-0.2,0.9,0l0,0l0,0c0.2,0.3,0.1,0.6-0.1,0.8c-1.3,1.3-2.9,1.9-4.5,2
	c-0.1,0-0.3,0-0.4,0h0c-0.3,0-0.6,0-0.9-0.1c-3.5-0.5-6.1-3.5-6.1-7C28.7,28.2,31.2,25,34.7,24.6z M35.7,24.8c-0.3,0-0.6,0-0.9,0.1
	l0,0v0c-3.4,0.4-5.8,3.4-5.8,6.7c0,3.4,2.5,6.3,5.8,6.7l0,0c0.3,0,0.6,0.1,0.9,0.1c0.1,0,0.3,0,0.4,0l0,0l0,0
	c1.6-0.1,3.1-0.7,4.3-1.9l0,0l0,0c0.1-0.1,0.2-0.3,0.1-0.4c-0.1-0.1-0.3-0.1-0.4,0c-1.1,1.1-2.5,1.7-4,1.7c-0.1,0-0.3,0-0.4,0h0
	c-0.3,0-0.6,0-0.9-0.1c-3-0.5-5.2-3.1-5.2-6.1c0-3.2,2.2-5.7,5.2-6.2c0.3-0.1,0.6-0.1,1-0.1h0c0.1,0,0.3,0,0.4,0
	c1.5,0.1,2.9,0.7,4,1.8c0.1,0.1,0.2,0.1,0.2,0.1c0.1,0,0.1,0,0.2-0.1c0.1-0.1,0.1-0.3-0.1-0.4l0,0l0,0c-1.2-1.2-2.7-1.9-4.3-2l0,0
	l0,0C35.9,24.8,35.8,24.8,35.7,24.8z"/>
<path class="st0" d="M70.1,24.8c-0.3,0-0.5,0.2-0.5,0.4v11.4l0,0l-2.4-3.1l-0.9-1.1L60.6,25c-0.1-0.2-0.4-0.2-0.6-0.2
	c-0.2,0.1-0.3,0.2-0.3,0.4v12.6c0,0.2,0.2,0.4,0.4,0.4c0.3,0,0.5-0.2,0.5-0.4V26.4l4.8,6.3l0.8,1l2.8,3.6l0.6,0.8
	c0.1,0.1,0.2,0.2,0.3,0.2c0.1,0,0.1,0,0.2,0c0.2-0.1,0.3-0.2,0.3-0.4V25.3C70.5,25,70.3,24.8,70.1,24.8z"/>
<path class="st0" d="M60.1,24.7c0.2,0,0.5,0,0.7,0.2l0,0l6.6,8.6l2.1,2.8v-11c0-0.3,0.3-0.6,0.6-0.6c0.3,0,0.6,0.2,0.6,0.6v12.7
	c0,0.3-0.2,0.5-0.4,0.6c-0.1,0.1-0.2,0-0.3,0l0,0l0,0c-0.1,0-0.3-0.1-0.4-0.2l0,0L69,37.5l0,0l-2.8-3.6l-0.8-1l-4.6-6v11.1
	c0,0.3-0.3,0.6-0.6,0.6c-0.3,0-0.6-0.3-0.6-0.6V25.3C59.7,25,59.8,24.8,60.1,24.7L60.1,24.7L60.1,24.7z M60.1,25
	c-0.1,0-0.2,0.2-0.2,0.3v12.6c0,0.2,0.1,0.3,0.3,0.3c0.2,0,0.3-0.1,0.3-0.3V26l5.1,6.7l0.8,1l2.8,3.6l0,0l0.6,0.8
	c0.1,0.1,0.2,0.1,0.2,0.1c0.1,0,0.1,0,0.1,0l0,0l0,0c0.1-0.1,0.2-0.2,0.2-0.3V25.3c0-0.2-0.1-0.3-0.3-0.3c-0.2,0-0.3,0.1-0.3,0.3V37
	l-0.3-0.3l-2.4-3.1l0,0l-6.6-8.6C60.4,25,60.3,24.9,60.1,25z"/>
<path class="st0" d="M83.2,24.8h-9.6c-0.3,0-0.4,0.2-0.4,0.4c0,0.2,0.2,0.4,0.4,0.4H78v12.2c0,0.3,0.2,0.5,0.4,0.5
	c0.3,0,0.5-0.2,0.5-0.5V25.7h4.3c0.3,0,0.5-0.2,0.5-0.4C83.7,25,83.5,24.8,83.2,24.8z"/>
<path class="st0" d="M73,25.3c0-0.3,0.3-0.6,0.6-0.6h9.6c0.4,0,0.6,0.3,0.6,0.6l0,0v0c0,0.3-0.3,0.6-0.6,0.6H79v12.1
	c0,0.3-0.3,0.6-0.6,0.6c-0.3,0-0.6-0.3-0.6-0.6V25.8h-4.2C73.3,25.8,73,25.6,73,25.3z M73.6,25c-0.2,0-0.3,0.1-0.3,0.3
	c0,0.1,0.1,0.2,0.3,0.2h4.5v12.4c0,0.2,0.1,0.3,0.3,0.3c0.2,0,0.3-0.1,0.3-0.3V25.5h4.5c0.2,0,0.3-0.1,0.3-0.2
	c0-0.2-0.1-0.3-0.3-0.3H73.6z"/>
<path class="st0" d="M83,37.3c-0.3,0-0.6,0.3-0.6,0.6c0,0.3,0.3,0.6,0.6,0.6s0.6-0.3,0.6-0.6C83.6,37.5,83.3,37.3,83,37.3z"/>
<path class="st0" d="M82.2,37.9c0-0.4,0.3-0.8,0.8-0.8c0.4,0,0.7,0.4,0.7,0.8c0,0.4-0.3,0.8-0.7,0.8C82.6,38.6,82.2,38.3,82.2,37.9z
	 M83,37.4c-0.2,0-0.5,0.2-0.5,0.5c0,0.3,0.2,0.5,0.5,0.5c0.2,0,0.4-0.2,0.4-0.5C83.4,37.6,83.2,37.4,83,37.4z"/>
<path class="st0" d="M101.6,29.1c-0.6-0.5-1.3-0.7-2.1-0.7c-0.2,0-0.4,0-0.6,0.1c-1.1,0.2-2.1,1-2.4,2.1c-0.4-1.3-1.6-2.1-2.9-2.1
	c-1.1,0-2.2,0.7-2.8,1.7v-1.1c0-0.3-0.2-0.5-0.4-0.5c-0.2,0-0.4,0.2-0.4,0.4v9c0,0.3,0.2,0.5,0.5,0.5c0.2,0,0.4-0.2,0.4-0.5v-6.1
	c0-1.3,1.2-2.5,2.5-2.5c1.3,0,2.5,1,2.5,2.4v6.2c0,0.3,0.2,0.5,0.5,0.5c0.2,0,0.4-0.2,0.4-0.5v-6.1c0-0.7,0.3-1.4,0.9-1.8
	c0.4-0.4,1-0.6,1.7-0.6c0.2,0,0.3,0,0.5,0.1c1.1,0.2,2,1.2,2,2.3v6.2c0,0.3,0.2,0.5,0.5,0.5c0.2,0,0.4-0.2,0.4-0.5v-6.2
	C102.8,30.6,102.3,29.7,101.6,29.1z"/>
<path class="st0" d="M90.8,29.6c0.7-0.8,1.7-1.3,2.7-1.3c1.3,0,2.4,0.7,2.9,1.9c0.5-0.9,1.4-1.6,2.4-1.8l0,0l0,0
	c0.2,0,0.4-0.1,0.6-0.1c0.9,0,1.6,0.3,2.2,0.8c0.8,0.6,1.3,1.6,1.3,2.6v0v6.2c0,0.3-0.3,0.6-0.6,0.6c-0.3,0-0.6-0.3-0.6-0.6v-6.2
	c0-1.1-0.9-2-1.9-2.2c-0.2,0-0.3,0-0.5,0c-0.6,0-1.1,0.2-1.6,0.6c-0.5,0.4-0.8,1.1-0.8,1.7v6.1c0,0.3-0.3,0.6-0.6,0.6
	c-0.3,0-0.6-0.3-0.6-0.6v-6.2c0-1.3-1.1-2.2-2.4-2.2c-1.3,0-2.4,1.1-2.4,2.3v6.1c0,0.3-0.3,0.6-0.6,0.6c-0.3,0-0.6-0.3-0.6-0.6v-9
	c0-0.3,0.2-0.6,0.5-0.6c0.1,0,0.3,0,0.4,0.2c0.1,0.1,0.1,0.3,0.1,0.5V29.6z M93.5,28.5c-1,0-2.1,0.6-2.7,1.6l-0.3,0.5v-1.7
	c0-0.1,0-0.2-0.1-0.3c0,0-0.1-0.1-0.1-0.1c-0.1,0-0.2,0.1-0.2,0.3v9c0,0.2,0.1,0.3,0.3,0.3c0.1,0,0.3-0.1,0.3-0.3v-6.1
	c0-1.4,1.2-2.6,2.7-2.6c1.4,0,2.7,1.1,2.7,2.6v6.2c0,0.2,0.1,0.3,0.3,0.3c0.1,0,0.3-0.1,0.3-0.3v-6.1c0-0.8,0.4-1.5,0.9-2l0,0
	c0.5-0.4,1.1-0.7,1.8-0.7c0.2,0,0.4,0,0.5,0.1l0,0l0,0c1.1,0.2,2.1,1.2,2.1,2.5v6.2c0,0.2,0.1,0.3,0.3,0.3c0.1,0,0.3-0.1,0.3-0.3
	v-6.2c0-1-0.5-1.8-1.2-2.4v0c-0.6-0.4-1.3-0.7-2-0.7c-0.2,0-0.4,0-0.6,0c-1.1,0.2-2,0.9-2.3,2L96.4,31l-0.1-0.4
	C95.9,29.3,94.8,28.5,93.5,28.5z"/>
<path class="st0" d="M115.4,24.7c-0.3,0-0.4,0.2-0.4,0.5v5.7c-0.8-1.5-2.3-2.5-4.2-2.5c-2.8,0-5,2.2-5,5c0,2.8,2.2,5.1,5,5.1
	c0.5,0,1-0.1,1.4-0.2c0.5-0.2,0.9-0.4,1.4-0.7c0.7-0.5,1.3-1.2,1.6-2v2.3c0,0.3,0.2,0.5,0.4,0.5c0.2,0,0.4-0.2,0.4-0.4V25.2
	C115.8,24.9,115.6,24.7,115.4,24.7z M110.8,37.6c-2.4,0-4.2-1.9-4.2-4.2c0-2.3,1.8-4.2,4.2-4.2c2.1,0,3.9,1.6,4.2,3.6
	c0,0.1,0,0.1,0,0.2c0,0.1,0,0.3,0,0.4C115,35.7,113.1,37.6,110.8,37.6z"/>
<path class="st0" d="M114.8,25.2c0-0.3,0.2-0.6,0.6-0.6c0.3,0,0.6,0.3,0.6,0.6v12.8c0,0.3-0.2,0.6-0.5,0.6c-0.1,0-0.3,0-0.4-0.2
	c-0.1-0.1-0.2-0.3-0.2-0.5v-1.7c-0.4,0.6-0.8,1.1-1.4,1.5l0,0c-0.4,0.3-0.9,0.5-1.4,0.7l0,0l0,0c-0.5,0.1-0.9,0.2-1.5,0.2
	c-2.8,0-5.1-2.4-5.1-5.2c0-2.9,2.3-5.2,5.2-5.2c1.7,0,3.1,0.8,4,2.1V25.2z M115.4,24.9c-0.2,0-0.3,0.1-0.3,0.3v5.7l-0.3,0.1
	c-0.8-1.4-2.3-2.4-4-2.4c-2.7,0-4.9,2.2-4.9,4.9c0,2.7,2.2,4.9,4.8,4.9c0.5,0,0.9-0.1,1.4-0.2c0.5-0.1,0.9-0.4,1.3-0.6
	c0.7-0.5,1.2-1.2,1.6-1.9l0.3,0.1v2.3c0,0.1,0,0.2,0.1,0.3c0,0,0.1,0.1,0.1,0.1c0.1,0,0.2-0.1,0.2-0.3V25.2
	C115.7,25,115.6,24.9,115.4,24.9z M110.8,29.4c-2.3,0-4,1.8-4,4c0,2.2,1.8,4,4,4c2.3,0,4-1.9,4-4c0-0.1,0-0.2,0-0.4l0,0v0
	c0,0,0-0.1,0-0.1c0,0,0,0,0,0c0,0,0-0.1,0-0.1C114.5,30.9,112.8,29.4,110.8,29.4z M106.5,33.4c0-2.4,1.9-4.3,4.3-4.3
	c2.2,0,4,1.6,4.3,3.7l0,0v0c0,0,0,0,0,0.1l0,0c0,0,0,0.1,0,0.1c0,0.1,0,0.3,0,0.4v0c0,2.3-1.9,4.3-4.3,4.3
	C108.3,37.8,106.5,35.8,106.5,33.4z"/>
<path class="st1" d="M55.3,26.6H45.1c-0.3,0-0.5-0.2-0.5-0.5v-0.3c0-0.3,0.2-0.5,0.5-0.5h10.3c0.3,0,0.5,0.2,0.5,0.5v0.3
	C55.8,26.3,55.6,26.6,55.3,26.6z"/>
<path class="st1" d="M55.3,32.3H45.1c-0.3,0-0.5-0.2-0.5-0.5v-0.3c0-0.3,0.2-0.5,0.5-0.5h10.3c0.3,0,0.5,0.2,0.5,0.5v0.3
	C55.8,32.1,55.6,32.3,55.3,32.3z"/>
<path class="st1" d="M55.3,38H45.1c-0.3,0-0.5-0.2-0.5-0.5v-0.3c0-0.3,0.2-0.5,0.5-0.5h10.3c0.3,0,0.5,0.2,0.5,0.5v0.3
	C55.8,37.8,55.6,38,55.3,38z"/>
</svg>
