<svg id="Слой_1" data-name="Слой 1" xmlns="http://www.w3.org/2000/svg" viewBox="0 0 116.07 25.92">
  <defs>
    <style>
      .cls-1 {
        fill: #fff;
      }

      .cls-2 {
        fill: #de152d;
      }
    </style>
  </defs>
  <g>
    <path class="cls-1" d="M21.69,10.27a8.25,8.25,0,0,0-6.39-2h0L4.54,9.49a2.56,2.56,0,1,0,.6,5.09l10.73-1.27a3.09,3.09,0,0,1,3.43,3.08v.78L7.43,19A7.53,7.53,0,0,0,8.5,34H18.85a5.58,5.58,0,0,0,5.57-5.57v-12A8.26,8.26,0,0,0,21.69,10.27ZM19.3,28.38a.45.45,0,0,1-.45.45H8.5A2.41,2.41,0,0,1,8.16,24h0L19.3,22.35Z" transform="translate(-0.97 -8.04)"/>
    <path class="cls-1" d="M52.79,34a2.74,2.74,0,0,1-2.61-1.91L45,15.73a3,3,0,0,0-1.06-1.47,3.14,3.14,0,0,0-3.71,0,3,3,0,0,0-1.06,1.47L33.91,32.05a2.75,2.75,0,1,1-5.23-1.67l5.23-16.32a8.37,8.37,0,0,1,3-4.2,8.58,8.58,0,0,1,10.25,0,8.37,8.37,0,0,1,3,4.2l5.23,16.32A2.74,2.74,0,0,1,52.79,34" transform="translate(-0.97 -8.04)"/>
    <path class="cls-1" d="M83.7,34a2.74,2.74,0,0,1-2.61-1.91L75.87,15.73a3,3,0,0,0-1.06-1.47,3.14,3.14,0,0,0-3.71,0A3,3,0,0,0,70,15.73L64.82,32.05a2.75,2.75,0,1,1-5.23-1.67l5.22-16.32a8.43,8.43,0,0,1,3-4.2,8.59,8.59,0,0,1,10.26,0,8.37,8.37,0,0,1,3,4.2l5.23,16.32A2.74,2.74,0,0,1,83.7,34" transform="translate(-0.97 -8.04)"/>
    <path class="cls-2" d="M105.3,16.72a2.88,2.88,0,0,0-1.5.42.82.82,0,0,1-.43.17h0a.92.92,0,0,1-.43-.18,2.88,2.88,0,0,0-1.5-.42,2.68,2.68,0,0,0-2.6,2.9,6.41,6.41,0,0,0,4,5.46,1.72,1.72,0,0,0,.39.1,1.15,1.15,0,0,0,.37,0,1.8,1.8,0,0,0,.41-.11,6.4,6.4,0,0,0,4-5.47A2.67,2.67,0,0,0,105.3,16.72Z" transform="translate(-0.97 -8.04)"/>
    <path class="cls-2" d="M103.43,33.89a5.07,5.07,0,0,1-.94-.09,8.51,8.51,0,0,1-1.3-.32c-5.45-1.7-11.52-8.85-11.52-15.94,0-5.45,3.67-9.44,8.72-9.5a9.14,9.14,0,0,1,5,1.4h0A9.13,9.13,0,0,1,108.32,8h0c5.05.05,8.71,4,8.71,9.49,0,7.09-6.06,14.24-11.5,15.94a9,9,0,0,1-1.37.36A4.4,4.4,0,0,1,103.43,33.89Zm-5-21.57h0C95.33,12.35,94,15,94,17.54c0,5,4.69,10.69,8.53,11.86l.11,0a5.56,5.56,0,0,0,.65.15.74.74,0,0,0,.22,0,3.63,3.63,0,0,0,.66-.18l.1,0c3.85-1.18,8.54-6.88,8.54-11.87,0-2.57-1.39-5.19-4.48-5.22a4.85,4.85,0,0,0-2.66.75,4.31,4.31,0,0,1-2.12.76h-.23a4.31,4.31,0,0,1-2.18-.76A5,5,0,0,0,98.48,12.32Z" transform="translate(-0.97 -8.04)"/>
  </g>
</svg>
