<?xml version="1.0" encoding="UTF-8"?>
<svg width="121px" height="35px" viewBox="0 0 121 35" version="1.1" xmlns="http://www.w3.org/2000/svg" xmlns:xlink="http://www.w3.org/1999/xlink">
    <title>Group 6</title>
    <defs>
        <polygon id="path-1" points="0.000105590261 0.0461393103 119.640952 0.0461393103 119.640952 18.1969915 0.000105590261 18.1969915"></polygon>
    </defs>
    <g id="Page-1" stroke="none" strokeWidth="1" fill="none" fillRule="evenodd">
        <g id="Group-6" transform="translate(0.400000, 0.500000)">
            <g id="Group-3" transform="translate(0.000000, 15.371831)">
                <mask id="mask-2" fill="white">
                    <use xlink:href="#path-1"></use>
                </mask>
                <g id="Clip-2"></g>
                <path d="M77.7839524,4.07023099 L83.3077619,4.07023099 C84.0696667,4.07023099 84.640619,4.30966761 84.9268095,4.69324507 C85.1649048,4.98009014 85.2601429,5.26741408 85.2601429,5.6984 C85.2601429,6.17727324 85.0696667,6.60873803 84.7363333,6.8955831 C84.4025238,7.18290704 83.9263333,7.32704789 83.355381,7.32704789 L77.7839524,7.32704789 C77.2125238,7.32704789 76.7363333,7.18290704 76.403,6.8955831 C76.0220476,6.60873803 75.8310952,6.22516056 75.8310952,5.6984 C75.8310952,5.31578028 75.9268095,4.98009014 76.1649048,4.69324507 C76.403,4.30966761 77.0215714,4.07023099 77.7839524,4.07023099 L77.7839524,4.07023099 Z M93.5458571,0.0955830986 C93.1649048,0.0955830986 93.1172857,0.383385915 93.2601429,0.574456338 L100.354905,8.81107606 C100.354905,8.81107606 100.593,9.05051268 100.593,9.0984 C100.593,9.19417465 100.354905,9.38620282 100.354905,9.38620282 C100.354905,9.38620282 93.4982381,17.3833859 93.355381,17.5270479 C93.0696667,17.8622592 93.355381,18.1491042 93.5934762,18.1491042 L100.164905,18.1491042 C100.498238,18.1491042 100.641095,17.9575549 100.736333,17.8622592 L106.022048,11.7322028 C106.117286,11.5885408 106.212524,11.5411324 106.403,11.5411324 C106.593476,11.5411324 106.688714,11.5885408 106.783476,11.7322028 L112.069667,17.8622592 C112.164905,17.9575549 112.307762,18.1491042 112.641095,18.1491042 L119.212524,18.1491042 C119.450619,18.1491042 119.736333,17.8622592 119.450619,17.5270479 C119.355381,17.3833859 112.450619,9.38620282 112.450619,9.38620282 C112.450619,9.38620282 112.212524,9.1467662 112.212524,9.0984 C112.212524,9.00310423 112.450619,8.81107606 112.450619,8.81107606 L119.545857,0.574456338 C119.736333,0.383385915 119.640619,0.0955830986 119.260143,0.0955830986 L113.069667,0.0955830986 C112.641095,0.0955830986 112.497762,0.23924507 112.355381,0.383385915 C112.355381,0.383385915 107.307762,5.98572394 106.783476,6.51296338 C106.641095,6.65614648 106.498238,6.7524 106.403,6.7524 C106.307286,6.7524 106.164905,6.65614648 106.022048,6.51296338 C105.498238,5.98572394 100.450619,0.383385915 100.450619,0.383385915 C100.307762,0.23924507 100.164905,0.0955830986 99.7363333,0.0955830986 L93.5458571,0.0955830986 Z M76.4982381,0.0481746479 C72.3077619,0.0481746479 69.5934762,2.44254085 69.5934762,5.79465352 L69.5934762,12.3552169 C69.5934762,15.754738 72.3077619,18.1016958 76.4982381,18.1016958 L90.7363333,18.1016958 C91.0220476,18.1016958 91.3072857,18.1016958 91.3072857,17.7664845 L91.3072857,14.5575549 C91.3072857,14.1749352 91.0691905,14.2223437 90.7363333,14.2223437 L77.450619,14.2223437 C76.545381,14.2223437 75.8310952,13.5040338 75.8310952,12.5946535 C75.8310952,11.6843155 76.545381,10.9660056 77.450619,10.9660056 L90.3077619,10.9660056 C90.9744286,10.9660056 91.3072857,10.9185972 91.3072857,10.1519211 L91.3072857,5.79465352 C91.3072857,2.39417465 88.5934762,0.0481746479 84.4025238,0.0481746479 L76.4982381,0.0481746479 Z M49.355381,0.0481746479 C48.9268095,0.0481746479 48.8315714,0.143949296 48.8315714,0.47868169 L48.8315714,3.87916056 C48.8315714,4.21437183 48.9268095,4.30966761 49.355381,4.30966761 L54.8315714,4.30966761 C55.1172857,4.30966761 55.1649048,4.3580338 55.1649048,4.64487887 L55.1649048,17.9575549 C55.1649048,18.1016958 55.3077619,18.1969915 55.4982381,18.1969915 L60.9744286,18.1969915 C61.1649048,18.1969915 61.3072857,18.1016958 61.3072857,17.9575549 L61.3072857,4.69324507 C61.3072857,4.40544225 61.403,4.3580338 61.6887143,4.3580338 L67.1172857,4.3580338 C67.4977619,4.3580338 67.6410952,4.26178028 67.6410952,3.92656901 L67.6410952,0.574456338 C67.5934762,0.191357746 67.4977619,0.0955830986 67.0696667,0.0955830986 L49.355381,0.0481746479 Z M36.0220476,0.0481746479 L36.0220476,0.0481746479 L30.9268095,0.0955830986 C30.5934762,0.0955830986 30.355381,0.0481746479 30.355381,0.430794366 L30.355381,9.57727324 C30.355381,9.57727324 30.2601429,12.8340901 30.5934762,14.0312732 C31.2125238,16.3298648 32.8315714,17.4786817 36.2125238,17.9096676 C37.403,18.0533296 38.9268095,18.1016958 40.9744286,18.1016958 L50.7363333,18.1016958 C51.0696667,18.1016958 51.3077619,18.1491042 51.3077619,17.7664845 L51.3077619,14.2707099 C51.3077619,13.9354986 51.0220476,13.9354986 50.7363333,13.9354986 L41.8791905,13.9354986 C36.5934762,13.9354986 36.5934762,13.3129634 36.5934762,8.71530141 L36.5934762,0.383385915 C36.5934762,0.0481746479 36.3077619,0.0481746479 36.0220476,0.0481746479 L36.0220476,0.0481746479 Z M14.8315714,0.0481746479 C13.1649048,-0.000191549296 11.450619,0.813892958 10.355381,2.44254085 C9.45061905,3.83079437 1.68871429,15.2758648 0.117285714,17.6228225 C-0.168428571,18.0059211 0.117285714,18.1491042 0.450619048,18.1491042 L5.97442857,18.1491042 C6.4982381,18.1016958 6.64109524,18.1491042 7.02204762,17.6228225 C7.73633333,16.5209352 12.8791905,8.04535775 13.9268095,6.41670986 C14.1172857,6.12986479 14.450619,5.89042817 14.8315714,5.89042817 C15.2125238,5.89042817 15.4982381,6.08149859 15.7363333,6.41670986 C16.7363333,7.99699155 21.9268095,16.5209352 22.6410952,17.6228225 C23.0220476,18.1491042 23.1649048,18.1016958 23.6887143,18.1491042 L29.2125238,18.1491042 C29.5934762,18.1491042 29.8315714,18.0059211 29.5458571,17.6228225 C27.9744286,15.2758648 20.2125238,3.83079437 19.3077619,2.44254085 C18.2125238,0.813892958 16.4982381,-0.000191549296 14.8315714,0.0481746479 L14.8315714,0.0481746479 Z" id="Fill-1" fill="#D71440" mask="url(#mask-2)"></path>
            </g>
            <path d="M21.355381,6.70422535 C21.355381,6.70422535 21.355381,6.75211268 21.2601429,6.8 C21.2601429,6.8 18.9268095,7.56619718 17.2125238,9.24225352 C15.5458571,10.9183099 14.7839524,13.3126761 14.7839524,13.3126761 C14.7839524,13.4084507 14.6887143,13.4084507 14.6887143,13.4084507 C14.6887143,13.4084507 14.6410952,13.4084507 14.5934762,13.3126761 C14.5934762,13.3126761 13.8315714,10.9183099 12.1649048,9.24225352 C10.4982381,7.56619718 8.11728571,6.8 8.11728571,6.8 C8.02204762,6.8 8.02204762,6.70422535 8.02204762,6.70422535 C8.02204762,6.70422535 8.02204762,6.65633803 8.11728571,6.6084507 C8.11728571,6.6084507 10.450619,5.84225352 12.1649048,4.16619718 C13.8315714,2.49014085 14.5934762,0.0957746479 14.5934762,0.0957746479 C14.5934762,0 14.6887143,0 14.6887143,0 C14.6887143,0 14.7839524,0 14.7839524,0.0957746479 C14.7839524,0.0957746479 15.5458571,2.49014085 17.2125238,4.16619718 C18.8791905,5.84225352 21.2601429,6.6084507 21.2601429,6.6084507 C21.355381,6.65633803 21.355381,6.70422535 21.355381,6.70422535" id="Fill-4" fill="#FFCB05"></path>
        </g>
    </g>
</svg>