<?xml version="1.0" encoding="UTF-8"?>
<svg width="194px" height="40px" viewBox="0 0 194 40" version="1.1" xmlns="http://www.w3.org/2000/svg" xmlns:xlink="http://www.w3.org/1999/xlink">
    <!-- Generator: sketchtool 57.1 (101010) - https://sketch.com -->
    <title>9AE0A397-F03A-472A-8C1D-56177E81501B</title>
    <desc>Created with sketchtool.</desc>
    <defs>
        <polygon id="path-1" points="5.60222619e-05 0.0726448598 193.21686 0.0726448598 193.21686 39.8105888 5.60222619e-05 39.8105888"></polygon>
    </defs>
    <g id="Confirmed-Home-Pages" stroke="none" stroke-width="1" fill="none" fill-rule="evenodd">
        <g id="Homepage-R1-a" transform="translate(-253.000000, -33.000000)">
            <g id="Logo-blue-bg" transform="translate(220.000000, 0.000000)">
                <g id="Group-36">
                    <g id="Group-6" transform="translate(33.000000, 33.000000)">
                        <g id="Group-5" transform="translate(0.000000, 0.207757)">
                            <mask id="mask-2" fill="white">
                                <use xlink:href="#path-1"></use>
                            </mask>
                            <g id="Clip-4"></g>
                            <path d="M15.2960943,0.0726448598 L4.02497543,0.0726448598 C1.85775423,0.0726448598 5.60222619e-05,1.77731776 5.60222619e-05,4.01245794 L5.60222619e-05,19.9413364 L5.60222619e-05,35.8690935 C5.60222619e-05,38.1003084 1.85775423,39.8086262 4.02497543,39.8086262 L15.2960943,39.8086262 C22.1731071,39.8086262 25.5386444,37.1484393 25.5386444,29.657972 L25.5386444,27.0249813 C25.5386444,23.310028 24.5694593,20.6201215 23.2156814,19.9413364 C24.62156,19.174514 25.5386444,16.7661028 25.5386444,12.8571308 L25.5386444,10.2232991 C25.5386444,3.2672243 22.2750676,0.0726448598 15.2960943,0.0726448598 L15.2960943,0.0726448598 Z M19.2229747,14.9041402 C19.2229747,15.9903084 18.3350219,16.8684393 17.2425878,16.8684393 L10.4106729,16.8720841 L10.4106729,23.0223645 L17.2425878,23.0111495 C18.3350219,23.0111495 19.2229747,23.8929252 19.2229747,24.9799346 L19.2229747,31.700215 C19.2229747,32.7835794 18.3350219,33.6673178 17.2425878,33.6673178 L6.65746151,33.6673178 C6.25045978,33.6673178 6.20340108,33.6594673 6.20340108,33.1116168 L6.20340108,6.77049533 C6.20340108,6.2201215 6.25045978,6.21591589 6.65746151,6.21591589 L17.2425878,6.21591589 C18.3350219,6.21591589 19.2229747,7.09769159 19.2229747,8.18442056 L19.2229747,14.9041402 Z M66.337697,21.752271 L66.3463804,31.6968505 C66.3463804,36.1789065 62.6800035,39.8105888 58.1618081,39.8105888 L49.2856409,39.8105888 C44.7478377,39.8105888 41.087063,36.1789065 41.087063,31.6968505 L41.087063,8.18694393 C41.087063,3.70572897 44.7478377,0.0726448598 49.2671536,0.0726448598 L53.3534174,0.0726448598 L53.6226043,0.0726448598 L58.6315548,0.0726448598 C60.2315506,0.0726448598 61.5295864,1.35871963 61.5295864,2.94619626 L61.5295864,3.35357944 C61.5295864,4.93657009 60.2315506,6.22320561 58.6315548,6.22320561 L53.6226043,6.22320561 L49.3825594,6.21535514 C49.180039,6.21535514 49.0102915,6.2501215 49.0102915,6.2501215 C48.10049,6.42759813 47.4002117,7.23199065 47.4002117,8.18694393 L47.4002117,31.7815234 C47.4002117,32.7375981 48.10049,33.5375047 49.0102915,33.7163832 C49.0102915,33.7163832 49.1772378,33.7486262 49.3172935,33.7486262 L58.2976621,33.7486262 C58.5024234,33.7486262 58.6707703,33.7163832 58.6707703,33.7163832 C59.5819724,33.5375047 60.2794496,32.7375981 60.2794496,31.7815234 L60.2794496,22.947785 L52.3041204,22.947785 L52.3072016,16.8019907 L63.1124954,16.797785 L63.2253802,16.797785 L63.5088529,16.797785 C65.069353,16.797785 66.335176,18.0532991 66.335176,19.5992804 L66.337697,21.752271 Z M125.001409,0.0726448598 L120.498619,0.0726448598 L115.438969,0.0726448598 C110.900325,0.0726448598 107.410698,3.71862617 107.410698,8.1872243 L107.420782,37.005729 C107.420782,38.5578785 108.690527,39.8105888 110.247666,39.8105888 L110.649065,39.8105888 C112.213207,39.8105888 113.476229,38.5578785 113.476229,37.005729 L113.473428,25.0531121 C113.534492,25.0592804 113.595556,25.0699346 113.657461,25.0699346 L127.11989,25.0648879 L127.114008,37.005729 C127.114008,38.5578785 128.379271,39.8105888 129.942012,39.8105888 L130.342291,39.8105888 C131.904192,39.8105888 133.170015,38.5578785 133.170015,37.005729 L133.18262,8.1872243 C133.18262,3.70572897 129.520164,0.0726448598 125.001409,0.0726448598 L125.001409,0.0726448598 Z M127.11989,19.0606822 L113.657461,19.061243 C113.595556,19.061243 113.534492,19.0693738 113.473428,19.0693738 L113.467825,8.09638318 C113.467825,7.14619626 114.170064,6.34516822 115.080706,6.16741121 C115.136168,6.14750467 115.249053,6.13404673 115.39079,6.13404673 L125.205049,6.13404673 C125.342024,6.13404673 125.448186,6.14750467 125.513172,6.16741121 C126.422693,6.34516822 127.125212,7.14619626 127.125212,8.09638318 L127.11989,19.0606822 Z M163.344725,8.18694393 L163.3817,36.8689065 C163.3817,38.4933925 162.050331,39.8105888 160.41112,39.8105888 L159.990392,39.8105888 C158.351181,39.8105888 157.019812,38.4933925 157.019812,36.8689065 L157.029616,8.18694393 C157.029616,7.09825234 156.141663,6.21535514 155.048388,6.21535514 L144.461862,6.21535514 C144.064664,6.21535514 144.017045,6.21535514 144.017045,6.76600935 L143.992115,36.9415234 C143.992115,38.5250748 142.698561,39.8105888 141.099405,39.8105888 L140.687642,39.8105888 C139.086806,39.8105888 137.791851,38.5250748 137.791851,36.9415234 L137.808658,4.01301869 C137.808658,1.78292523 139.666076,0.0726448598 141.832177,0.0726448598 L155.165475,0.0726448598 C159.685911,0.0726448598 163.344725,3.70572897 163.344725,8.18694393 L163.344725,8.18694393 Z M36.1148072,2.94619626 L36.1148072,36.9415234 C36.1148072,38.5250748 34.8148106,39.8105888 33.2159352,39.8105888 L32.8058523,39.8105888 C31.2075371,39.8105888 29.9134229,38.5250748 29.9134229,36.9415234 L29.9134229,2.94619626 C29.9134229,1.35871963 31.2075371,0.0726448598 32.8058523,0.0726448598 L33.2159352,0.0726448598 C34.8148106,0.0726448598 36.1148072,1.35871963 36.1148072,2.94619626 L36.1148072,2.94619626 Z M92.7241823,0.0751682243 L81.4505425,0.0751682243 C79.2914445,0.0751682243 77.4337463,1.77984112 77.4337463,4.01498131 L77.4337463,19.9438598 L77.4337463,35.8716168 C77.4337463,38.1031121 79.2914445,39.8105888 81.4505425,39.8105888 L92.7241823,39.8105888 C99.598394,39.8105888 102.968413,37.1506822 102.968413,29.6604953 L102.968413,27.0272243 C102.968413,23.312271 102.002309,20.6226449 100.648811,19.9438598 C102.05329,19.176757 102.968413,16.7683458 102.968413,12.8596542 L102.968413,10.2258224 C102.968413,3.26974766 99.7023153,0.0751682243 92.7241823,0.0751682243 L92.7241823,0.0751682243 Z M96.659186,14.9066636 C96.659186,15.9928318 95.7681519,16.8709626 94.6687151,16.8709626 L87.8418422,16.8746075 L87.8418422,23.0248879 L94.6687151,23.0136729 C95.7681519,23.0136729 96.659186,23.8954486 96.659186,24.9821776 L96.659186,31.7024579 C96.659186,32.7863832 95.7681519,33.6698411 94.6687151,33.6698411 L84.0861098,33.6698411 C83.6824694,33.6698411 83.6396124,33.6617103 83.6396124,33.1144206 L83.6396124,6.77301869 C83.6396124,6.22264486 83.6824694,6.21843925 84.0861098,6.21843925 L94.6687151,6.21843925 C95.7681519,6.21843925 96.659186,7.10021495 96.659186,8.18694393 L96.659186,14.9066636 Z M193.216916,31.6968505 C193.216916,36.1789065 189.549698,39.8105888 185.032904,39.8105888 L176.160098,39.8105888 C171.619493,39.8105888 167.956758,36.1789065 167.956758,31.6968505 L167.956758,8.18694393 C167.956758,3.70572897 171.619493,0.0726448598 176.138249,0.0726448598 L185.504051,0.0726448598 C187.103486,0.0726448598 188.397881,1.35871963 188.397881,2.94619626 L188.397881,3.35357944 C188.397881,4.93657009 187.103486,6.22320561 185.504051,6.22320561 L176.255336,6.21535514 C176.049734,6.21535514 175.877185,6.2501215 175.877185,6.2501215 C174.969345,6.42759813 174.266545,7.23199065 174.266545,8.18694393 L174.266545,31.7815234 C174.266545,32.7375981 174.969345,33.5375047 175.877185,33.7163832 C175.877185,33.7163832 176.049734,33.7486262 176.192871,33.7486262 L185.172399,33.7486262 C185.37632,33.7486262 185.543827,33.7163832 185.543827,33.7163832 C186.447746,33.5375047 187.156708,32.7375981 187.156708,31.7815234 L187.156708,22.947785 L179.173815,22.947785 L179.176616,16.8019907 L189.983591,16.797785 L190.098156,16.797785 L190.380228,16.797785 C191.938768,16.797785 193.208793,18.0532991 193.208793,19.5992804 L193.216916,31.6968505 Z" id="Fill-3" fill="#FEFEFE" mask="url(#mask-2)"></path>
                        </g>
                    </g>
                </g>
            </g>
        </g>
    </g>
</svg>