<?xml version="1.0" encoding="utf-8"?>
<!-- Generator: Adobe Illustrator 21.0.2, SVG Export Plug-In . SVG Version: 6.00 Build 0)  -->
<svg width="355" height="110" version="1.1" id="Layer_1" xmlns="http://www.w3.org/2000/svg" xmlns:xlink="http://www.w3.org/1999/xlink" x="0px" y="0px"
	 viewBox="0 0 300 93" style="enable-background:new 0 0 300 93;" xml:space="preserve">
<style type="text/css"> 
	.st0{fill:#535151;}
	.st1{fill:#403F3F;}
	.st2{fill:#929090;}
	.st3{fill:#8D8D8D;}
	.st4{fill:#757373;}
	.st5{fill:#FF9829;}
	.st6{fill:#FD9839;}
</style>
<g id="Слой_x0020_1">
	<g id="_2877038845648">
		<path class="st0" d="M4.9,42.3c0,0,10.8,33.3,70.1,26c-26.5-0.9-63.2-26-63.2-26S4.9,42.3,4.9,42.3z"/>
		<path class="st1" d="M30.4,16c1.9,18.1-3.7,37.4,44.6,52.3c-48.8,3.2-63.2-26-63.2-26S14.4,28.3,30.4,16z"/>
		<path class="st1" d="M44.8,23.9c6.3,0,11.4,5.1,11.4,11.3c0,6.2-5.1,11.3-11.4,11.3c-6.3,0-11.4-5-11.4-11.3
			C33.4,28.9,38.5,23.9,44.8,23.9z"/>
		<path class="st0" d="M46.9,27.2c1.2,2.3,0,5.3-2.7,6.7c-2.7,1.4-5.9,0.7-7-1.6c-1.2-2.3,0-5.3,2.7-6.7
			C42.6,24.2,45.7,24.9,46.9,27.2z"/>
		<path class="st2" d="M57.1,52.7c0,0,4.9,0.2,8.1-0.2c3.3-0.5,0.2-30-6.3-36S43.9,4.1,40.2,3.5c-3.7-0.7-9.8-3-17.9-3
			C37.4,7.4,64.1,24.8,57.1,52.7C57.1,52.7,57.1,52.7,57.1,52.7z"/>
		<path class="st1" d="M22.3,0.4c0,0,36.3-6.3,61.1,29.3C79,50.6,65.3,52.5,65.3,52.5S70.4,10,22.3,0.4C22.3,0.4,22.3,0.4,22.3,0.4z
			"/>
		<path class="st2" d="M30.4,16h-9.1c0,0-14.6,13-16.5,26.3c3.6,0,7,0,7,0L30.4,16L30.4,16z"/>
		<path class="st3" d="M43.5,27.3c0.6,1.1,0,2.5-1.3,3.1c-1.3,0.7-2.7,0.3-3.3-0.7c-0.6-1.1,0-2.5,1.3-3.1
			C41.5,25.9,43,26.2,43.5,27.3L43.5,27.3z"/>
	</g>
	<g id="_2877038850288">
		<g id="_1106100624">
			<path class="st4" d="M104.4,56.9c0,0.1,0,0.2-0.1,0.2c0,0-0.1,0-0.2,0h-0.8c-0.1,0-0.1,0-0.2,0c0,0-0.1-0.1-0.1-0.2v-7.8
				c0-0.1,0-0.2,0.1-0.2c0,0,0.1,0,0.2,0h0.8c0.1,0,0.2,0,0.2,0c0,0,0.1,0.1,0.1,0.2v3.1h1.3c0.2,0,0.3,0,0.5,0
				c0.1,0,0.3-0.1,0.4-0.2c0.1-0.1,0.3-0.2,0.4-0.4c0.1-0.1,0.2-0.3,0.3-0.6l0.6-2c0-0.1,0.1-0.1,0.1-0.2c0,0,0.1,0,0.1,0h0.9
				c0.1,0,0.1,0,0.2,0.1c0,0.1,0,0.1,0,0.2l-0.6,2.1c-0.1,0.3-0.2,0.6-0.4,0.9c-0.2,0.3-0.4,0.5-0.7,0.6l0,0
				c0.4,0.1,0.7,0.3,0.9,0.6c0.2,0.3,0.3,0.5,0.4,0.9l0.8,2.7c0,0.1,0,0.1,0,0.2c0,0.1-0.1,0.1-0.2,0.1h-0.9c0,0-0.1,0-0.1,0
				c-0.1,0-0.1-0.1-0.1-0.1l-0.8-2.6c-0.1-0.4-0.3-0.7-0.6-0.8c-0.3-0.2-0.6-0.3-0.9-0.3h-1.5L104.4,56.9L104.4,56.9L104.4,56.9z
				 M111,49.1c0-0.1,0-0.2,0.1-0.2c0,0,0.1,0,0.2,0h0.9c0.1,0,0.2,0,0.2,0c0,0,0.1,0.1,0.1,0.2v6.1h0.1c0.3-0.4,0.5-0.8,0.7-1.1
				c0.2-0.3,0.4-0.7,0.7-1.1l2.4-3.7c0.1-0.2,0.2-0.3,0.3-0.4c0.1-0.1,0.2-0.1,0.4-0.1h0.4c0.2,0,0.3,0.1,0.4,0.2
				c0.1,0.1,0.2,0.3,0.2,0.5v7.4c0,0.1,0,0.2,0,0.2c0,0-0.1,0-0.2,0h-0.9c-0.1,0-0.1,0-0.2,0c0,0-0.1-0.1-0.1-0.2v-6h-0.1
				c-0.1,0.2-0.2,0.4-0.3,0.5c-0.1,0.2-0.2,0.3-0.3,0.5c-0.1,0.2-0.2,0.3-0.3,0.5c-0.1,0.2-0.2,0.3-0.3,0.5l-2.5,3.7
				c-0.1,0.2-0.2,0.3-0.3,0.4c-0.1,0.1-0.3,0.1-0.4,0.1h-0.4c-0.2,0-0.3-0.1-0.4-0.2c-0.1-0.1-0.2-0.3-0.2-0.5L111,49.1L111,49.1z
				 M123.3,56.2c0.5,0,0.9-0.1,1.2-0.3c0.3-0.2,0.5-0.4,0.7-0.7c0.2-0.3,0.3-0.6,0.4-0.9c0.1-0.3,0.1-0.7,0.1-1c0-0.4,0-0.7-0.1-1
				c-0.1-0.3-0.2-0.6-0.3-0.9c-0.2-0.3-0.4-0.5-0.6-0.6c-0.3-0.2-0.6-0.2-1-0.2c-0.4,0-0.8,0.1-1.3,0.2c-0.4,0.2-0.9,0.4-1.2,0.7
				c0,0.5-0.1,0.9-0.1,1.2c0,0.3,0,0.6,0,0.8c0,0.4,0,0.8,0.1,1.1c0.1,0.3,0.2,0.6,0.4,0.9c0.2,0.2,0.4,0.4,0.7,0.6
				C122.5,56.1,122.9,56.2,123.3,56.2L123.3,56.2z M123.9,49.4c0.6,0,1.1,0.1,1.6,0.3c0.4,0.2,0.7,0.5,1,0.9
				c0.3,0.4,0.4,0.8,0.5,1.2c0.1,0.5,0.2,1,0.2,1.5c0,0.4-0.1,0.9-0.2,1.4c-0.1,0.5-0.3,0.9-0.6,1.3c-0.3,0.4-0.7,0.7-1.2,1
				c-0.5,0.2-1.1,0.4-1.9,0.4c-0.8,0-1.4-0.1-1.8-0.4c-0.5-0.2-0.8-0.5-1.1-0.9s-0.4-0.8-0.5-1.3c-0.1-0.5-0.1-0.9-0.1-1.4
				c0-1,0-1.9,0.1-2.7c0.1-0.8,0.2-1.5,0.5-2c0.2-0.6,0.6-1.1,1-1.5c0.4-0.4,1-0.7,1.7-0.9c0.2-0.1,0.4-0.1,0.7-0.2
				c0.3,0,0.5-0.1,0.8-0.2c0.3-0.1,0.5-0.1,0.7-0.1c0.2,0,0.4-0.1,0.6-0.1c0.1,0,0.2,0,0.2,0c0,0,0.1,0.1,0.1,0.1l0.1,0.6
				c0.1,0.2,0,0.3-0.2,0.4c-0.8,0.2-1.5,0.3-2.1,0.4c-0.5,0.1-0.9,0.3-1.3,0.4c-0.3,0.2-0.6,0.3-0.8,0.6c-0.2,0.2-0.4,0.5-0.5,0.8
				c-0.1,0.3-0.2,0.7-0.3,1.2c0,0,0,0,0,0c0.4-0.3,0.8-0.5,1.3-0.6C123.1,49.5,123.5,49.4,123.9,49.4L123.9,49.4z M132.2,48.7
				c0.6,0,1.1,0.1,1.5,0.2c0.4,0.2,0.8,0.4,1.1,0.7c0.3,0.3,0.5,0.7,0.6,1.1c0.1,0.4,0.2,0.9,0.2,1.4c0,0.3,0,0.5-0.1,0.6
				c-0.1,0.2-0.2,0.3-0.3,0.4c-0.1,0.1-0.2,0.2-0.4,0.2c-0.1,0-0.3,0.1-0.4,0.1h-4.5c0,0.5,0.1,0.9,0.2,1.3c0.1,0.3,0.3,0.6,0.5,0.8
				c0.2,0.2,0.5,0.4,0.8,0.5c0.3,0.1,0.6,0.1,1,0.1c0.3,0,0.7,0,1-0.1c0.3-0.1,0.6-0.2,0.8-0.3c0.1-0.1,0.2,0,0.3,0.1l0.3,0.7
				c0.1,0.2,0,0.3-0.1,0.3c-0.4,0.2-0.8,0.4-1.2,0.5c-0.4,0.1-0.9,0.1-1.3,0.1c-0.6,0-1.1-0.1-1.6-0.2c-0.5-0.2-0.9-0.4-1.2-0.8
				c-0.3-0.4-0.6-0.8-0.8-1.3c-0.2-0.5-0.3-1.2-0.3-1.9c0-0.7,0.1-1.3,0.3-1.8c0.2-0.5,0.4-1,0.8-1.4c0.3-0.4,0.7-0.6,1.2-0.8
				C131.1,48.8,131.6,48.7,132.2,48.7L132.2,48.7L132.2,48.7z M134.3,52.3c0-0.3,0-0.6-0.1-0.9c-0.1-0.3-0.2-0.6-0.3-0.8
				s-0.4-0.4-0.7-0.5c-0.3-0.1-0.6-0.2-1.1-0.2c-0.3,0-0.7,0.1-0.9,0.2c-0.3,0.1-0.5,0.3-0.7,0.5c-0.2,0.2-0.3,0.5-0.4,0.8
				c-0.1,0.3-0.2,0.6-0.2,0.9H134.3z M144.4,53c0,0.6-0.1,1.2-0.2,1.7c-0.2,0.5-0.4,1-0.7,1.4c-0.3,0.4-0.7,0.7-1.1,0.9
				c-0.5,0.2-1,0.3-1.6,0.3c-0.3,0-0.6,0-1,0c-0.3,0-0.7-0.1-1.1-0.2v3c0,0.1,0,0.2,0,0.2c0,0-0.1,0-0.2,0h-0.9c-0.1,0-0.1,0-0.2,0
				c0,0-0.1-0.1-0.1-0.2V49.5c0-0.1,0.1-0.2,0.2-0.3c0.5-0.2,1.1-0.4,1.6-0.5c0.6-0.1,1.1-0.1,1.6-0.1c0.6,0,1.2,0.1,1.6,0.3
				c0.5,0.2,0.8,0.5,1.1,0.9c0.3,0.4,0.5,0.8,0.7,1.4C144.3,51.8,144.4,52.4,144.4,53L144.4,53L144.4,53z M142.9,53
				c0-0.6-0.1-1.1-0.2-1.5c-0.1-0.4-0.3-0.7-0.5-0.9c-0.2-0.2-0.5-0.4-0.8-0.5c-0.3-0.1-0.6-0.2-1-0.2c-0.3,0-0.6,0-0.9,0.1
				c-0.3,0-0.6,0.1-0.9,0.2v5.6c0.4,0.1,0.7,0.2,1,0.2c0.3,0,0.5,0.1,0.8,0.1c0.4,0,0.7-0.1,1-0.2c0.3-0.1,0.5-0.3,0.8-0.5
				c0.2-0.2,0.4-0.6,0.5-1C142.9,54,142.9,53.6,142.9,53L142.9,53L142.9,53z M149.5,56.1c0.4,0,0.7,0,1-0.1c0.3-0.1,0.6-0.2,0.9-0.3
				c0.1,0,0.2-0.1,0.2,0c0,0,0.1,0.1,0.1,0.1l0.3,0.7c0.1,0.1,0.1,0.3-0.1,0.3c-0.4,0.2-0.8,0.4-1.3,0.4c-0.5,0.1-0.9,0.1-1.3,0.1
				c-1.2,0-2-0.4-2.6-1.1c-0.6-0.7-0.9-1.8-0.9-3.2c0-0.7,0.1-1.3,0.3-1.8c0.2-0.5,0.4-1,0.7-1.4c0.3-0.4,0.7-0.7,1.2-0.9
				c0.5-0.2,1-0.3,1.6-0.3c0.4,0,0.8,0,1.2,0.1c0.4,0.1,0.8,0.2,1.1,0.4c0.1,0.1,0.2,0.2,0.1,0.3l-0.3,0.6c0,0.1-0.1,0.1-0.1,0.1
				c0,0-0.1,0-0.2,0c-0.2-0.1-0.5-0.2-0.8-0.3c-0.3-0.1-0.6-0.1-0.9-0.1c-0.4,0-0.8,0.1-1.1,0.3c-0.3,0.2-0.5,0.4-0.7,0.7
				c-0.2,0.3-0.3,0.6-0.4,1c-0.1,0.4-0.1,0.8-0.1,1.2c0,0.4,0,0.8,0.1,1.2c0.1,0.4,0.2,0.7,0.4,1c0.2,0.3,0.4,0.5,0.7,0.7
				C148.7,56,149.1,56.1,149.5,56.1L149.5,56.1L149.5,56.1z M155,56.9c0,0.1,0,0.2-0.1,0.2c0,0-0.1,0-0.2,0h-0.9c-0.1,0-0.2,0-0.2,0
				c0,0-0.1-0.1-0.1-0.2v-7.4c0-0.1,0-0.2,0.1-0.4c0.1-0.2,0.3-0.2,0.5-0.2h5.6c0.3,0,0.4,0.1,0.5,0.2c0.1,0.2,0.1,0.3,0.1,0.4v7.4
				c0,0.1,0,0.2-0.1,0.2c0,0-0.1,0-0.2,0h-0.9c-0.1,0-0.1,0-0.2,0c0,0-0.1-0.1-0.1-0.2v-6.8H155L155,56.9L155,56.9L155,56.9z
				 M169.6,53c0,1.4-0.3,2.5-0.9,3.2c-0.6,0.7-1.6,1.1-2.8,1.1c-1.2,0-2.1-0.4-2.7-1.1c-0.6-0.7-0.9-1.8-0.9-3.2
				c0-0.7,0.1-1.3,0.3-1.8c0.2-0.5,0.4-1,0.8-1.3c0.3-0.4,0.7-0.6,1.2-0.8c0.4-0.2,0.9-0.3,1.5-0.3c1.2,0,2.1,0.4,2.7,1.1
				C169.3,50.6,169.6,51.6,169.6,53L169.6,53L169.6,53z M168.3,53c0-0.4,0-0.8-0.1-1.2c-0.1-0.4-0.2-0.7-0.4-1
				c-0.2-0.3-0.4-0.5-0.7-0.7c-0.3-0.2-0.7-0.3-1.1-0.3c-0.4,0-0.8,0.1-1,0.3s-0.5,0.4-0.7,0.7c-0.2,0.3-0.3,0.6-0.4,1
				c-0.1,0.4-0.1,0.8-0.1,1.2c0,0.5,0,0.9,0.1,1.3c0.1,0.4,0.2,0.7,0.4,1c0.2,0.3,0.4,0.5,0.7,0.7c0.3,0.2,0.7,0.2,1.1,0.2
				c0.4,0,0.8-0.1,1.1-0.3c0.3-0.2,0.5-0.4,0.7-0.7c0.2-0.3,0.3-0.6,0.4-1C168.2,53.8,168.3,53.4,168.3,53
				C168.3,53,168.3,53,168.3,53z M178.5,53c0,0.6-0.1,1.2-0.2,1.7c-0.2,0.5-0.4,1-0.7,1.4c-0.3,0.4-0.7,0.7-1.1,0.9
				c-0.5,0.2-1,0.3-1.6,0.3c-0.3,0-0.6,0-1,0c-0.3,0-0.7-0.1-1.1-0.2v3c0,0.1,0,0.2,0,0.2c0,0-0.1,0-0.2,0h-0.9c-0.1,0-0.1,0-0.2,0
				c0,0-0.1-0.1-0.1-0.2V49.5c0-0.1,0.1-0.2,0.2-0.3c0.5-0.2,1.1-0.4,1.6-0.5c0.6-0.1,1.1-0.1,1.6-0.1c0.6,0,1.2,0.1,1.6,0.3
				c0.5,0.2,0.8,0.5,1.1,0.9c0.3,0.4,0.5,0.8,0.7,1.4C178.4,51.8,178.5,52.4,178.5,53L178.5,53L178.5,53z M177,53
				c0-0.6-0.1-1.1-0.2-1.5c-0.1-0.4-0.3-0.7-0.5-0.9c-0.2-0.2-0.5-0.4-0.8-0.5c-0.3-0.1-0.6-0.2-1-0.2c-0.3,0-0.6,0-0.9,0.1
				c-0.3,0-0.6,0.1-0.9,0.2v5.6c0.4,0.1,0.7,0.2,1,0.2c0.3,0,0.5,0.1,0.8,0.1c0.4,0,0.7-0.1,1-0.2c0.3-0.1,0.6-0.3,0.8-0.5
				c0.2-0.2,0.4-0.6,0.5-1C177,54,177,53.6,177,53L177,53L177,53z M183.4,56.8c0,0.1,0,0.2-0.1,0.2c0,0-0.1,0.1-0.2,0.1h-0.8
				c-0.1,0-0.2,0-0.2-0.1c0,0-0.1-0.1-0.1-0.2v-6.8h-2.4c-0.1,0-0.2,0-0.2-0.1c0,0,0-0.1,0-0.2v-0.6c0-0.1,0-0.2,0-0.2
				c0,0,0.1-0.1,0.2-0.1h6.3c0.1,0,0.2,0,0.2,0.1c0,0.1,0,0.1,0,0.2v0.6c0,0.1,0,0.1,0,0.2c0,0-0.1,0.1-0.2,0.1h-2.5V56.8z
				 M187.4,49.1c0-0.1,0-0.2,0.1-0.2c0,0,0.1,0,0.2,0h0.9c0.1,0,0.2,0,0.2,0c0,0,0.1,0.1,0.1,0.2v6.1h0.1c0.3-0.4,0.5-0.8,0.7-1.1
				c0.2-0.3,0.4-0.7,0.7-1.1l2.4-3.7c0.1-0.2,0.2-0.3,0.3-0.4c0.1-0.1,0.2-0.1,0.5-0.1h0.4c0.2,0,0.3,0.1,0.4,0.2
				c0.1,0.1,0.2,0.3,0.2,0.5v7.4c0,0.1,0,0.2-0.1,0.2c0,0-0.1,0-0.2,0h-0.9c-0.1,0-0.1,0-0.2,0c0,0-0.1-0.1-0.1-0.2v-6h-0.1
				c-0.1,0.2-0.2,0.4-0.3,0.5c-0.1,0.2-0.2,0.3-0.3,0.5c-0.1,0.2-0.2,0.3-0.3,0.5c-0.1,0.2-0.2,0.3-0.4,0.5l-2.5,3.7
				c-0.1,0.2-0.2,0.3-0.3,0.4c-0.1,0.1-0.3,0.1-0.4,0.1H188c-0.2,0-0.3-0.1-0.5-0.2c-0.1-0.1-0.2-0.3-0.2-0.5L187.4,49.1L187.4,49.1
				L187.4,49.1z M202,52.7c0.5,0.2,0.9,0.4,1.1,0.8c0.2,0.4,0.3,0.8,0.3,1.2c0,0.4-0.1,0.7-0.2,1c-0.1,0.3-0.3,0.5-0.6,0.8
				c-0.2,0.2-0.5,0.4-0.9,0.5c-0.3,0.1-0.7,0.2-1.1,0.2h-3.6c-0.2,0-0.4-0.1-0.5-0.2c-0.1-0.1-0.2-0.3-0.2-0.5v-7
				c0-0.2,0.1-0.4,0.2-0.5c0.1-0.1,0.3-0.2,0.5-0.2h3.4c0.7,0,1.3,0.2,1.8,0.5c0.5,0.3,0.7,0.8,0.7,1.6c0,0.4-0.1,0.7-0.3,1
				C202.6,52.2,202.3,52.4,202,52.7L202,52.7L202,52.7L202,52.7z M197.8,52.2h2.7c0.1,0,0.2,0,0.4-0.1c0.1,0,0.3-0.1,0.4-0.2
				c0.1-0.1,0.2-0.2,0.3-0.3c0.1-0.1,0.1-0.3,0.1-0.5c0-0.3-0.1-0.5-0.3-0.7c-0.2-0.2-0.5-0.3-0.8-0.3h-2.7V52.2
				C197.8,52.2,197.8,52.2,197.8,52.2z M202,54.6c0-0.4-0.1-0.7-0.4-1c-0.3-0.3-0.7-0.4-1.2-0.4h-2.6v2.8h2.6c0.3,0,0.6,0,0.8-0.1
				c0.2-0.1,0.4-0.2,0.5-0.4c0.1-0.1,0.2-0.3,0.2-0.5C202,54.9,202,54.8,202,54.6C202,54.6,202,54.6,202,54.6z M206.5,56.8
				c0,0.1,0,0.2-0.1,0.2c0,0-0.1,0.1-0.2,0.1h-0.8c-0.1,0-0.2,0-0.2-0.1c-0.1,0-0.1-0.1-0.1-0.2v-7.7c0-0.1,0-0.2,0.1-0.2
				c0,0,0.1,0,0.2,0h0.8c0.1,0,0.2,0,0.2,0c0,0,0.1,0.1,0.1,0.2v3h4.1v-3c0-0.1,0-0.2,0.1-0.2c0,0,0.1,0,0.2,0h0.8
				c0.1,0,0.2,0,0.2,0c0,0,0.1,0.1,0.1,0.2v7.7c0,0.1,0,0.2-0.1,0.2c0,0-0.1,0.1-0.2,0.1h-0.8c-0.1,0-0.2,0-0.2-0.1
				c0,0-0.1-0.1-0.1-0.2v-3.6h-4.1C206.5,53.3,206.5,56.8,206.5,56.8z M221.9,49.1c0-0.1,0-0.2,0.1-0.2c0,0,0.1-0.1,0.2-0.1h0.8
				c0.1,0,0.2,0,0.2,0.1c0,0,0.1,0.1,0.1,0.2v7.7c0,0.1,0,0.2-0.1,0.2c0,0-0.1,0-0.2,0h-0.8c-0.1,0-0.2,0-0.2,0c0,0-0.1-0.1-0.1-0.2
				V49.1z M217.9,51.7c0.6,0,1.2,0.1,1.6,0.3c0.4,0.2,0.7,0.4,0.9,0.7c0.2,0.3,0.4,0.6,0.4,0.9c0.1,0.3,0.1,0.6,0.1,0.8
				c0,0.4-0.1,0.7-0.2,1.1c-0.1,0.3-0.3,0.6-0.6,0.9s-0.5,0.4-0.9,0.6c-0.3,0.1-0.7,0.2-1.1,0.2h-3.4c-0.3,0-0.5-0.1-0.6-0.3
				c-0.1-0.2-0.1-0.4-0.1-0.6v-7.2c0-0.1,0-0.2,0.1-0.2c0,0,0.1-0.1,0.2-0.1h0.8c0.1,0,0.2,0,0.2,0.1c0,0,0.1,0.1,0.1,0.2v2.6
				L217.9,51.7L217.9,51.7L217.9,51.7z M215.4,52.8V56h2.5c0.4,0,0.7,0,0.9-0.2c0.2-0.1,0.4-0.2,0.5-0.4c0.1-0.2,0.2-0.4,0.3-0.5
				c0-0.2,0.1-0.4,0.1-0.5c0-0.2,0-0.4-0.1-0.6c-0.1-0.2-0.2-0.4-0.3-0.5c-0.1-0.1-0.3-0.3-0.5-0.4c-0.2-0.1-0.5-0.1-0.7-0.1H215.4
				L215.4,52.8L215.4,52.8z M225.3,49.1c0-0.1,0-0.2,0.1-0.2c0,0,0.1,0,0.2,0h0.9c0.1,0,0.2,0,0.2,0c0,0,0.1,0.1,0.1,0.2v6.1h0.1
				c0.3-0.4,0.5-0.8,0.7-1.1c0.2-0.3,0.4-0.7,0.7-1.1l2.4-3.7c0.1-0.2,0.2-0.3,0.3-0.4c0.1-0.1,0.3-0.1,0.5-0.1h0.4
				c0.2,0,0.3,0.1,0.4,0.2c0.1,0.1,0.2,0.3,0.2,0.5v7.4c0,0.1,0,0.2-0.1,0.2c0,0-0.1,0-0.2,0h-0.9c-0.1,0-0.1,0-0.2,0
				c0,0-0.1-0.1-0.1-0.2v-6h-0.1c-0.1,0.2-0.2,0.4-0.3,0.5c-0.1,0.2-0.2,0.3-0.3,0.5c-0.1,0.2-0.2,0.3-0.3,0.5
				c-0.1,0.2-0.2,0.3-0.4,0.5l-2.5,3.7c-0.1,0.2-0.2,0.3-0.3,0.4c-0.1,0.1-0.3,0.1-0.4,0.1h-0.4c-0.2,0-0.3-0.1-0.5-0.2
				c-0.1-0.1-0.2-0.3-0.2-0.5L225.3,49.1L225.3,49.1z M228.7,48c-0.5,0-1-0.2-1.4-0.5c-0.4-0.3-0.8-0.7-1.1-1.2c0,0,0-0.1,0-0.1
				c0,0,0-0.1,0.1-0.2l0.3-0.3c0.1,0,0.2-0.1,0.2-0.1c0,0,0.1,0.1,0.2,0.1c0.3,0.3,0.6,0.6,0.9,0.8c0.3,0.2,0.7,0.3,1,0.3
				c0.2,0,0.5-0.1,0.8-0.2c0.3-0.1,0.7-0.4,1.1-0.9c0.1-0.1,0.1-0.1,0.2-0.1c0,0,0.1,0,0.1,0.1l0.3,0.2c0.1,0.1,0.1,0.2,0.1,0.2
				c0,0.1,0,0.1-0.1,0.1c-0.4,0.6-0.9,1-1.3,1.3C229.5,47.9,229.1,48,228.7,48L228.7,48L228.7,48z M239.9,51.1v5.7
				c0,0.1,0,0.2-0.1,0.2c0,0-0.1,0-0.2,0h-0.8c-0.1,0-0.1,0-0.2,0c0,0-0.1-0.1-0.1-0.2v-7.4c0-0.1,0-0.3,0.1-0.4
				c0.1-0.1,0.3-0.2,0.5-0.2h0.5c0.2,0,0.3,0,0.4,0.1c0.1,0.1,0.2,0.2,0.3,0.4l1.7,3.4c0,0,0.1,0.2,0.2,0.4c0.1,0.2,0.2,0.4,0.3,0.7
				c0.1,0.2,0.2,0.4,0.3,0.7c0.1,0.2,0.1,0.3,0.2,0.3h0c0,0,0.1-0.2,0.2-0.4c0.1-0.2,0.2-0.5,0.4-0.8s0.2-0.5,0.4-0.8
				c0.1-0.2,0.2-0.4,0.2-0.4c0,0,0.1-0.1,0.1-0.3c0.1-0.2,0.2-0.3,0.3-0.6c0.1-0.2,0.2-0.4,0.3-0.7c0.1-0.2,0.2-0.5,0.3-0.7
				c0.1-0.2,0.2-0.4,0.3-0.5c0.1-0.1,0.1-0.2,0.1-0.3c0.1-0.2,0.2-0.3,0.3-0.4c0.1-0.1,0.2-0.1,0.4-0.1h0.5c0.2,0,0.4,0.1,0.5,0.2
				c0.1,0.1,0.1,0.3,0.1,0.4v7.4c0,0.1,0,0.2-0.1,0.2c0,0-0.1,0-0.2,0h-0.8c-0.1,0-0.1,0-0.2,0c0,0-0.1-0.1-0.1-0.2V51h-0.1
				l-0.8,1.7c0,0-0.1,0.2-0.2,0.4c-0.1,0.2-0.2,0.5-0.4,0.8c-0.1,0.3-0.3,0.6-0.5,1c-0.2,0.3-0.3,0.6-0.4,0.8
				c-0.1,0.2-0.2,0.3-0.3,0.4c-0.1,0.1-0.2,0.1-0.4,0.1h-0.4c-0.2,0-0.3,0-0.4-0.1c-0.1-0.1-0.2-0.2-0.3-0.4c0-0.1-0.1-0.3-0.3-0.5
				s-0.3-0.6-0.4-0.9c-0.1-0.3-0.3-0.6-0.4-0.9c-0.1-0.3-0.2-0.5-0.3-0.5c0,0-0.1-0.1-0.1-0.3c-0.1-0.2-0.2-0.4-0.3-0.6
				c-0.1-0.2-0.2-0.4-0.3-0.6C240,51.3,240,51.2,239.9,51.1L239.9,51.1L239.9,51.1L239.9,51.1z M255.9,56.4c0,0.2-0.1,0.3-0.2,0.4
				c-0.5,0.2-1,0.4-1.5,0.4c-0.5,0.1-1.1,0.1-1.6,0.1c-0.7,0-1.2-0.1-1.7-0.2c-0.4-0.1-0.8-0.3-1-0.6c-0.3-0.2-0.4-0.5-0.5-0.8
				c-0.1-0.3-0.1-0.6-0.1-1s0.1-0.7,0.2-1c0.1-0.3,0.3-0.6,0.6-0.9c0.3-0.3,0.6-0.5,1.1-0.6c0.4-0.2,1-0.2,1.6-0.2h1.9v-0.3
				c0-0.3,0-0.5-0.1-0.7c0-0.2-0.1-0.4-0.3-0.5c-0.1-0.1-0.3-0.3-0.6-0.3c-0.2-0.1-0.6-0.1-0.9-0.1c-0.4,0-0.8,0-1.2,0.1
				c-0.4,0.1-0.8,0.1-1,0.2c-0.1,0-0.2,0-0.2,0c0,0-0.1-0.1-0.1-0.1l-0.2-0.7c0-0.1,0-0.1,0-0.2c0,0,0.1-0.1,0.1-0.1
				c0.4-0.2,0.8-0.3,1.4-0.4c0.5-0.1,1-0.1,1.4-0.1c1,0,1.8,0.2,2.3,0.7c0.5,0.5,0.7,1.2,0.7,2L255.9,56.4L255.9,56.4L255.9,56.4z
				 M254.5,53.1h-1.8c-0.2,0-0.4,0-0.7,0c-0.2,0-0.5,0.1-0.7,0.2c-0.2,0.1-0.4,0.3-0.6,0.5c-0.1,0.2-0.2,0.5-0.2,0.9
				c0,0.3,0,0.5,0.2,0.7c0.1,0.2,0.2,0.4,0.4,0.5c0.2,0.1,0.4,0.2,0.6,0.2c0.2,0,0.5,0.1,0.8,0.1c0.1,0,0.2,0,0.4,0
				c0.2,0,0.3,0,0.5,0c0.2,0,0.4-0.1,0.6-0.1c0.2,0,0.4-0.1,0.5-0.1L254.5,53.1L254.5,53.1L254.5,53.1z M260.5,50.1
				c-0.4,0-0.7,0.1-0.9,0.3c-0.2,0.2-0.3,0.4-0.3,0.8v5.7c0,0.1,0,0.2-0.1,0.2c0,0-0.1,0.1-0.2,0.1h-0.8c-0.1,0-0.2,0-0.2-0.1
				c0,0-0.1-0.1-0.1-0.2v-5.5c0-0.3,0-0.6,0.1-0.9c0.1-0.3,0.2-0.6,0.4-0.8c0.2-0.2,0.4-0.4,0.8-0.5c0.3-0.1,0.7-0.2,1.2-0.2h3.3
				c0.1,0,0.2,0,0.2,0.1c0,0.1,0,0.1,0,0.2v0.6c0,0.1,0,0.2,0,0.2c0,0-0.1,0.1-0.2,0.1L260.5,50.1L260.5,50.1z"/>
			<path class="st4" d="M270.8,56.4c0,0.2-0.1,0.3-0.2,0.4c-0.5,0.2-1,0.4-1.5,0.4c-0.6,0.1-1.1,0.1-1.6,0.1c-0.7,0-1.2-0.1-1.7-0.2
				c-0.4-0.1-0.8-0.3-1-0.6c-0.3-0.2-0.4-0.5-0.5-0.8c-0.1-0.3-0.1-0.6-0.1-1c0-0.4,0.1-0.7,0.2-1c0.1-0.3,0.3-0.6,0.6-0.9
				c0.3-0.3,0.6-0.5,1.1-0.6c0.4-0.2,1-0.2,1.6-0.2h1.9v-0.3c0-0.3,0-0.5-0.1-0.7c0-0.2-0.1-0.4-0.3-0.5c-0.1-0.1-0.3-0.3-0.6-0.3
				c-0.2-0.1-0.6-0.1-1-0.1c-0.4,0-0.8,0-1.2,0.1c-0.4,0.1-0.8,0.1-1,0.2c-0.1,0-0.2,0-0.2,0c-0.1,0-0.1-0.1-0.1-0.1l-0.2-0.7
				c0-0.1,0-0.1,0-0.2c0,0,0.1-0.1,0.2-0.1c0.4-0.2,0.8-0.3,1.4-0.4c0.5-0.1,1-0.1,1.4-0.1c1,0,1.8,0.2,2.3,0.7
				c0.5,0.5,0.7,1.2,0.7,2L270.8,56.4C270.8,56.4,270.8,56.4,270.8,56.4z M269.4,53.1h-1.8c-0.2,0-0.4,0-0.7,0
				c-0.2,0-0.5,0.1-0.7,0.2c-0.2,0.1-0.4,0.3-0.6,0.5c-0.1,0.2-0.2,0.5-0.2,0.9c0,0.3,0,0.5,0.2,0.7c0.1,0.2,0.2,0.4,0.4,0.5
				c0.2,0.1,0.4,0.2,0.6,0.2c0.2,0,0.5,0.1,0.8,0.1c0.1,0,0.2,0,0.4,0c0.2,0,0.3,0,0.5,0c0.2,0,0.4-0.1,0.6-0.1
				c0.2,0,0.4-0.1,0.5-0.1L269.4,53.1L269.4,53.1L269.4,53.1z M277.1,52.8c0.5,0.1,0.9,0.4,1.2,0.7c0.3,0.3,0.4,0.8,0.4,1.2
				c0,0.4-0.1,0.7-0.2,1c-0.1,0.3-0.4,0.6-0.6,0.8c-0.3,0.2-0.6,0.4-1.1,0.6c-0.4,0.1-0.9,0.2-1.5,0.2c-0.5,0-1,0-1.6-0.1
				c-0.6-0.1-1-0.2-1.4-0.4c-0.1-0.1-0.2-0.2-0.1-0.3l0.3-0.7c0-0.1,0.1-0.1,0.1-0.1c0,0,0.1,0,0.2,0.1c0.2,0.1,0.6,0.2,1,0.3
				c0.4,0.1,0.9,0.2,1.3,0.2c0.8,0,1.4-0.1,1.7-0.4c0.4-0.3,0.5-0.7,0.5-1.1c0-0.4-0.2-0.7-0.6-1c-0.4-0.2-1-0.4-1.8-0.4
				c-0.2,0-0.3,0-0.4-0.1c-0.1,0-0.1-0.2-0.1-0.3v-0.3c0-0.3,0.2-0.4,0.5-0.4c1.4,0,2.1-0.4,2.1-1.2c0-0.3-0.1-0.6-0.4-0.8
				c-0.3-0.2-0.8-0.3-1.4-0.3c-0.4,0-0.7,0-1.1,0.1c-0.4,0.1-0.7,0.2-1,0.3c0,0-0.1,0-0.2,0c-0.1,0-0.1,0-0.1-0.1l-0.3-0.7
				c0-0.1,0-0.2,0.1-0.3c0.4-0.2,0.8-0.4,1.3-0.5c0.5-0.1,1-0.2,1.5-0.2c0.9,0,1.6,0.2,2.2,0.6c0.5,0.4,0.8,0.9,0.8,1.6
				c0,0.4-0.1,0.8-0.4,1.1C277.8,52.3,277.5,52.5,277.1,52.8L277.1,52.8C277.1,52.8,277.1,52.8,277.1,52.8z M280.4,49.1
				c0-0.1,0-0.2,0.1-0.2c0,0,0.1,0,0.2,0h0.9c0.1,0,0.2,0,0.2,0c0,0,0.1,0.1,0.1,0.2v6.1h0.1c0.3-0.4,0.5-0.8,0.7-1.1
				c0.2-0.3,0.4-0.7,0.7-1.1l2.4-3.7c0.1-0.2,0.2-0.3,0.3-0.4c0.1-0.1,0.2-0.1,0.5-0.1h0.4c0.2,0,0.3,0.1,0.4,0.2
				c0.1,0.1,0.2,0.3,0.2,0.5v7.4c0,0.1,0,0.2-0.1,0.2c0,0-0.1,0-0.2,0h-0.9c-0.1,0-0.1,0-0.2,0c0,0-0.1-0.1-0.1-0.2v-6h-0.1
				c-0.1,0.2-0.2,0.4-0.3,0.5c-0.1,0.2-0.2,0.3-0.3,0.5c-0.1,0.2-0.2,0.3-0.3,0.5c-0.1,0.2-0.2,0.3-0.3,0.5l-2.5,3.7
				c-0.1,0.2-0.2,0.3-0.3,0.4c-0.1,0.1-0.3,0.1-0.4,0.1H281c-0.2,0-0.3-0.1-0.5-0.2c-0.1-0.1-0.2-0.3-0.2-0.5L280.4,49.1L280.4,49.1
				L280.4,49.1z M290.8,56.8c0,0.1,0,0.2-0.1,0.2c0,0-0.1,0.1-0.2,0.1h-0.8c-0.1,0-0.2,0-0.2-0.1c0,0-0.1-0.1-0.1-0.2v-7.7
				c0-0.1,0-0.2,0.1-0.2c0,0,0.1,0,0.2,0h0.8c0.1,0,0.2,0,0.2,0c0,0,0.1,0.1,0.1,0.2v3h4.1v-3c0-0.1,0-0.2,0.1-0.2c0,0,0.1,0,0.2,0
				h0.8c0.1,0,0.2,0,0.2,0c0,0,0,0.1,0,0.2v7.7c0,0.1,0,0.2,0,0.2c0,0-0.1,0.1-0.2,0.1h-0.8c-0.1,0-0.2,0-0.2-0.1
				c0,0-0.1-0.1-0.1-0.2v-3.6h-4.1V56.8z"/>
		</g>
		<g>
			<path class="st0" d="M123.3,28.2l-1.5-3.4h-14.5c0,0-4.3,0.2-4.3,5c0,4.8,0,6.8,0,6.8s0.7,4.4,4.3,4.4c3.6,0,14.4,0,14.4,0
				l1.2-3.8h-11c0,0-1.9-0.2-1.9-1.6c0-1.3,0-6.1,0-6.1s0-1.4,1.7-1.4C113.4,28.2,123.3,28.2,123.3,28.2L123.3,28.2z"/>
			<path class="st0" d="M124.4,24.8c0,0,1.2,7.9,7,8.4c0,2.6,0,7.2,0,7.2s-0.2,1.4,2.2,1.4c2.4,0,4.6,0,4.6,0v-8.6
				c0,0,4.8,0.6,7.2-8.4c-4.2,0-6.7,0-6.7,0s-2.3,6.1-3.8,6c-1.6-0.1-3.4-6-3.4-6L124.4,24.8C124.4,24.8,124.4,24.8,124.4,24.8z"/>
			<path class="st0" d="M146.4,24.8l1.1,3.8h11.8c0,0,1.4-0.1,1.4,1.4c0,1.6-1.4,1.2-1.4,1.2h-3.4l1.2,3.8h2.4c0,0,1.2,0.1,1.2,1.2
				c0,1.1-1.2,1.2-1.2,1.2h-5v-6c0,0,0.1-1.4-1.7-1.4c-1.8,0-5,0-5,0v11.5h15.9c0,0,4.1-1.2,4.1-4.8c0-2.6-0.7-3.2-1-3.5
				c0,0,1.1-1.2,1.2-3.7c-0.5-4.1-4.3-4.8-4.3-4.8L146.4,24.8C146.4,24.8,146.4,24.8,146.4,24.8z"/>
			<path class="st0" d="M190.6,28.5l1.3-3.6h-17.8c0,0-3.7,1.1-3.6,4.6c0,1.2,0.9,3.7,0.9,3.7c0,0.2-0.1,0.4-0.3,0.7
				c-0.6,1.1-0.6,1.8-0.6,1.8v2.2c0,0,0.8,3.6,3.8,3.6c3,0,17.3,0,17.3,0l-1.2-3.8h-12c0,0-1-0.2-1-1.2c0-1,1-1.4,1-1.4H189l0.2-3.6
				h-10.6c0,0-1.2,0-1.2-1.3s1-1.6,1-1.6H190.6L190.6,28.5L190.6,28.5z"/>
			<path class="st0" d="M193.7,24.8l1.1,3.8h11.8c0,0,1.4-0.1,1.4,1.4c0,1.6-1.4,1.2-1.4,1.2h-3.4l0,3.6c2.3-0.2,2.8,2.2,4.6,6.5
				h7.2c0,0-2-3.8-3.5-6.6c2.7-1.2,3.6-1.9,3.6-5.2c-0.5-4.1-4.2-4.8-4.2-4.8L193.7,24.8L193.7,24.8L193.7,24.8z"/>
			<path class="st0" d="M194.8,29.9v11.5h7.2v-9.6c0,0-0.4-1.9-1.9-1.9C198.5,29.9,194.8,29.9,194.8,29.9L194.8,29.9L194.8,29.9z"/>
			<path class="st0" d="M217.1,24.8v12c0,0,0.5,4.6,3.6,4.6c3.1,0,16.1,0,16.1,0l1.4-3.8H225c0,0-1.2,0.1-1.2-1c0-1.1,0-10.3,0-10.3
				s-0.2-1.4-1.4-1.4C221.2,24.8,217.1,24.8,217.1,24.8z"/>
			<path class="st0" d="M240.4,24.8V40c0,0,0.2,1.4,1.7,1.4c1.4,0,5.3,0,5.3,0V27c0,0,0-2.2-2.2-2.2C243,24.8,240.4,24.8,240.4,24.8
				z"/>
			<path class="st0" d="M270.7,28.5l1.4-3.6h-17.3c0,0-3.8,0.7-3.8,3.8c0,3.1,0,3.4,0,3.4v9.1h6.2c0,0,1.7-0.1,1.7-1.7s0-4.6,0-4.6
				h12l-1.4-3.8h-10.6v-1c0,0-0.1-1.7,1.9-1.7C262.9,28.5,270.7,28.5,270.7,28.5L270.7,28.5L270.7,28.5z"/>
			<path class="st0" d="M294.9,28.5l1.3-3.6h-17.8c0,0-3.7,1.1-3.6,4.6c0,1.2,0.9,3.7,0.9,3.7c0,0.2-0.1,0.4-0.3,0.7
				c-0.6,1.1-0.6,1.8-0.6,1.8v2.2c0,0,0.8,3.6,3.8,3.6c3,0,17.3,0,17.3,0l-1.2-3.8h-12c0,0-1-0.2-1-1.2c0-1,1-1.4,1-1.4h10.6
				l0.2-3.6H283c0,0-1.2,0-1.2-1.3c0-1.3,1-1.6,1-1.6L294.9,28.5L294.9,28.5L294.9,28.5z"/>
		</g>
	</g>
	<g id="_2877038854256">
		<polygon class="st5" points="3.8,77.2 84.6,77.2 84.6,93 3.8,93 		"/>
		<path class="st1" d="M9.4,88.3c2.2,0.1,3.8,0.2,4.5,0.2c0.2,0,0.3-0.1,0.4-0.2s0.2-0.3,0.2-0.4v-1.1h-2.8c-0.9,0-1.5-0.2-1.9-0.6
			c-0.4-0.4-0.6-1-0.6-1.9V84c0-0.9,0.2-1.5,0.6-1.9c0.4-0.4,1-0.6,1.9-0.6H16v1.7h-3.8c-0.5,0-0.7,0.2-0.7,0.7v0.2
			c0,0.5,0.2,0.7,0.7,0.7h2.2c0.8,0,1.4,0.2,1.8,0.6c0.4,0.4,0.6,1,0.6,1.8v0.6c0,0.8-0.2,1.4-0.6,1.8c-0.4,0.4-1,0.6-1.8,0.6
			c-0.4,0-0.9,0-1.3,0l-1.1,0c-0.8,0-1.7-0.1-2.6-0.2V88.3L9.4,88.3z M21.9,90.1h-4.4v-1.7h1.1v-5.1h-1.1v-1.7h4.4v1.7h-1.1v5.1h1.1
			C21.9,88.4,21.9,90.1,21.9,90.1z M30.5,90.1h-2.3L25.2,85v5.1H23v-8.6h2.3l2.9,5.1v-5.1h2.2V90.1z M38.6,90
			c-1.8,0.2-3.3,0.2-4.5,0.2c-0.8,0-1.4-0.2-1.8-0.6c-0.4-0.4-0.6-1-0.6-1.8V84c0-0.9,0.2-1.5,0.6-1.9c0.4-0.4,1-0.6,1.9-0.6h4.4
			v1.7h-3.9c-0.5,0-0.7,0.2-0.7,0.7v3.9c0,0.2,0.1,0.3,0.2,0.4s0.3,0.2,0.4,0.2c0.2,0,0.4,0,0.6,0c0.2,0,0.4,0,0.6,0
			c0.2,0,0.4,0,0.7,0c0.2,0,0.5,0,0.9,0c0.4,0,0.8-0.1,1.3-0.1C38.6,88.3,38.6,90,38.6,90z M46.3,90.1h-6.8v-8.6h6.8v1.7h-4.6v1.7
			h3.6v1.7h-3.6v1.8h4.6V90.1z M57.1,84.2c0,0.7-0.3,1.3-0.9,1.8c-0.2,0.2-0.4,0.3-0.6,0.5L53,88.4h4.1v1.7h-6.6v-2.3l4.4-3.2V84
			c0-0.5-0.2-0.7-0.7-0.7h-3.4v-1.7h3.9c0.9,0,1.5,0.2,1.9,0.6c0.4,0.4,0.6,1,0.6,1.9C57.1,84,57.1,84.2,57.1,84.2z M63,83.9
			c0-0.5-0.2-0.7-0.7-0.7h-1.3c-0.5,0-0.7,0.2-0.7,0.7v3.9c0,0.5,0.2,0.7,0.7,0.7h1.3c0.5,0,0.7-0.2,0.7-0.7V83.9z M65.2,87.8
			c0,0.9-0.2,1.5-0.6,1.9c-0.4,0.4-1,0.6-1.9,0.6h-2.3c-0.9,0-1.5-0.2-1.9-0.6c-0.4-0.4-0.6-1-0.6-1.9v-3.9c0-0.9,0.2-1.5,0.6-1.9
			c0.4-0.4,1-0.6,1.9-0.6h2.3c0.9,0,1.5,0.2,1.9,0.6c0.4,0.4,0.6,1,0.6,1.9V87.8z M71.2,83.9c0-0.5-0.2-0.7-0.7-0.7h-1.3
			c-0.5,0-0.7,0.2-0.7,0.7v3.9c0,0.5,0.2,0.7,0.7,0.7h1.3c0.5,0,0.7-0.2,0.7-0.7V83.9z M73.4,87.8c0,0.9-0.2,1.5-0.6,1.9
			c-0.4,0.4-1,0.6-1.9,0.6h-2.3c-0.9,0-1.5-0.2-1.9-0.6c-0.4-0.4-0.6-1-0.6-1.9v-3.9c0-0.9,0.2-1.5,0.6-1.9c0.4-0.4,1-0.6,1.9-0.6
			H71c0.9,0,1.5,0.2,1.9,0.6c0.4,0.4,0.6,1,0.6,1.9V87.8z M80.8,84.2c0,0.7-0.3,1.3-0.9,1.8c-0.2,0.2-0.4,0.3-0.6,0.5l-2.6,1.9h4.1
			v1.7h-6.6v-2.3l4.4-3.2V84c0-0.5-0.2-0.7-0.7-0.7h-3.4v-1.7h3.9c0.9,0,1.5,0.2,1.9,0.6c0.4,0.4,0.6,1,0.6,1.9
			C80.8,84,80.8,84.2,80.8,84.2z"/>
	</g>
</g>
<g>
	<path class="st6" d="M108.1,79.4c-1,3.1-2.6,9.3-3.2,12c-0.2,0.6-2.6,0.7-2.4-0.1c0.6-2.7,1.5-6.6,2.6-9.1c-0.6,0.9-1.8,2-2.6,2.4
		c-1,0.4-1.6-1.1-1.2-1.4c1.4-0.9,3.2-2.1,4.5-3.9C106.2,78.6,108.3,78.9,108.1,79.4z"/>
	<path class="st6" d="M109.2,89.6c0-0.6,1.5-1.1,1.6-0.6c0.2,1,0.8,1.2,1.4,1.2c1.3,0,2.4-1.9,2.8-3.8c-0.5,0.7-1.4,1-2.2,1
		c-2.5,0-3.5-2.2-3.1-4.2c0.4-2.4,2.1-4.3,4.7-4.3c2.8,0,3.5,2.1,3.4,4.5c-0.2,3.1-1.6,8.4-5.7,8.4
		C110.2,91.8,109.2,90.6,109.2,89.6z M115.5,83.3c0.2-1.7-0.1-2.7-1.1-2.8c-1.2-0.1-2.1,1.1-2.4,2.8c-0.2,1.3,0.1,2.5,1.1,2.5
		C114.3,85.9,115.1,85,115.5,83.3z"/>
	<path class="st6" d="M126.4,86.1L126.4,86.1c-1.2,1.6-2.1,3.8-2.5,5.3c-0.1,0.5-2.4,0.6-2.2-0.1c0.9-2.8,2.3-5.3,4.1-7.4
		c0.5-0.6,3-0.5,2.9,0.1c-0.6,3.9-0.9,6.3,0.1,6.3c0.7,0,1.7-0.7,2.7-2.8c0.1-0.2,0.8,0.2,0.7,0.4c-1.3,2.5-2.6,3.8-4.2,3.8
		C125.9,91.9,125.9,89.8,126.4,86.1z"/>
	<path class="st6" d="M138.7,86.8c-0.7,1.4-2.5,2.1-4.7,1.6c0,1.1,0.7,1.8,2.1,1.9c1.2,0.1,3.1-0.5,4.2-2.8c0.1-0.2,0.8,0.2,0.7,0.4
		c-1.5,3.1-3.6,3.9-5.7,3.9c-3.1-0.1-4.2-2-3.8-4.1c0.4-2.6,2.5-4.2,4.9-4.2C138.7,83.6,139.4,85.4,138.7,86.8z M134.1,87.4
		c1.3,0.1,2.1-0.5,2.4-1.2c0.2-0.5,0.2-1.1-0.4-1.1C135.4,85,134.5,86,134.1,87.4z"/>
	<path class="st6" d="M149,89.5c0.1-0.7,0.6-2.3,0.8-3.3c0.1-0.5,0.2-1.1-0.4-1c-0.6,0-1.4,0.8-1.8,1.5c-0.3,1.3-0.8,3.4-1.1,4.6
		c-0.2,0.4-2.4,0.5-2.5-0.1c0.4-1.7,0.8-3.3,1.3-5.2c0.1-0.4,0.1-0.9-0.4-0.9c-0.5,0-1.3,0.7-1.9,1.5c-0.5,1.6-0.8,3-1.2,4.6
		c-0.2,0.5-2.6,0.5-2.5-0.2c0.7-2.5,1.3-4.9,2.1-7.6c0.4-0.4,2.2-0.3,2.4,0.3c-0.1,0.4-0.3,0.9-0.4,1.2c0.7-0.8,2-1.8,3-1.8
		c1,0,1.5,0.7,1.4,1.7c0.7-0.8,1.8-1.7,3-1.7c1.6,0,2,1,1.6,2.5c-0.3,1.4-1.5,4.3-0.5,4.3c0.6,0,1.7-1.1,2.4-2.7
		c0.1-0.2,0.8,0.2,0.7,0.4c-0.8,1.6-2.2,3.7-4.2,3.8C149.2,91.9,148.7,90.9,149,89.5z"/>
	<path class="st6" d="M158.8,87.2c0.2-1.3,0.7-4.8,2.3-7c0.8-1.2,1.9-1.9,3.2-1.9c3.8-0.1,3.5,4.2,0.8,5.8c2.2,0.3,2,3.7,0.7,5.6
		c0.9,0.1,2-0.3,2.8-2.1c0.1-0.2,0.9,0.2,0.7,0.4c-1.4,2.8-2.9,2.8-4.4,2.6c-0.9,0.8-1.9,1.2-3.3,1.2
		C159.2,91.6,158.5,89.9,158.8,87.2z M163.1,89.8c-0.3-0.6,0.2-1.3,0.8-1.2c0.8-1.5,0.7-3-0.4-3.1c-0.8,0-1.7,0.5-2.1,0.9
		c-0.5,2.1-0.5,3.8,0.7,3.8C162.4,90.3,162.8,90.1,163.1,89.8z M164,83.1c1.1-1,1.6-3,0.2-3c-1.1,0-2,1.8-2.6,4.3
		C162.5,84.1,163.4,83.7,164,83.1z"/>
	<path class="st6" d="M181,88c-1.4,2.7-2.7,3.9-4.2,3.9c-1.5,0-1.7-1.8-1.3-4.7c-0.9,2.3-1.8,3.6-2.4,4.1c-0.6,0.4-1.4,0.4-1.8-0.2
		c-0.4-0.6-0.6-1.9-0.4-4c-0.7,1.4-1.3,3.3-1.6,4.4c-0.1,0.5-2.4,0.6-2.2-0.2c1-3.1,1.9-4.7,3.4-7.3c0.3-0.6,2.6-0.6,2.4,0.1
		c-0.5,1.7-0.7,4.8-0.4,5.3c0.5-0.3,1.9-3.3,2.7-5.3c0.3-0.6,2.6-0.5,2.5,0.1c-0.6,3.5-1,6.3-0.1,6.2c0.6,0,1.5-0.4,2.6-2.8
		C180.4,87.3,181.1,87.7,181,88z"/>
	<path class="st6" d="M187.4,86.8c-0.7,1.4-2.5,2.1-4.7,1.6c0,1.1,0.7,1.8,2.1,1.9c1.2,0.1,3.1-0.5,4.2-2.8c0.1-0.2,0.8,0.2,0.7,0.4
		c-1.5,3.1-3.6,3.9-5.7,3.9c-3.1-0.1-4.2-2-3.8-4.1c0.4-2.6,2.5-4.2,4.9-4.2C187.5,83.6,188.2,85.4,187.4,86.8z M182.9,87.4
		c1.3,0.1,2.1-0.5,2.4-1.2c0.2-0.5,0.2-1.1-0.4-1.1C184.1,85,183.2,86,182.9,87.4z"/>
	<path class="st6" d="M195.8,86.6c-0.5,0.5-2.1,0.5-2.2,0c0.3-0.4,0.8-1.5,0.1-1.5c-0.9-0.1-2,1.3-2.2,3c-0.1,1.4,0.7,2.2,2,2.2
		c1.4,0,2.8-0.8,3.7-2.7c0.1-0.2,0.8,0.2,0.7,0.4c-1.5,3.2-3.7,3.9-5.7,3.8c-2-0.1-3.3-1.7-3.3-3.6c0.1-2.4,2.1-4.7,5-4.7
		C196.5,83.6,196.6,85.4,195.8,86.6z"/>
	<path class="st6" d="M205.9,89.5c0.1-0.7,0.6-2.3,0.8-3.3c0.1-0.5,0.2-1.1-0.4-1c-0.6,0-1.4,0.8-1.8,1.5c-0.3,1.3-0.8,3.4-1.1,4.6
		c-0.2,0.4-2.4,0.5-2.5-0.1c0.4-1.7,0.8-3.3,1.3-5.2c0.1-0.4,0.1-0.9-0.4-0.9c-0.5,0-1.3,0.7-1.9,1.5c-0.5,1.6-0.8,3-1.2,4.6
		c-0.2,0.5-2.6,0.5-2.5-0.2c0.7-2.5,1.3-4.9,2.1-7.6c0.4-0.4,2.2-0.3,2.4,0.3c-0.1,0.4-0.3,0.9-0.4,1.2c0.7-0.8,2-1.8,3-1.8
		c1,0,1.5,0.7,1.4,1.7c0.7-0.8,1.8-1.7,3-1.7c1.6,0,2,1,1.6,2.5c-0.3,1.4-1.5,4.3-0.5,4.3c0.6,0,1.7-1.1,2.4-2.7
		c0.1-0.2,0.8,0.2,0.7,0.4c-0.8,1.6-2.2,3.7-4.2,3.8C206.1,91.9,205.6,90.9,205.9,89.5z"/>
	<path class="st6" d="M218.4,86.8c-0.7,1.4-2.5,2.1-4.7,1.6c0,1.1,0.7,1.8,2.1,1.9c1.2,0.1,3.1-0.5,4.2-2.8c0.1-0.2,0.8,0.2,0.7,0.4
		c-1.5,3.1-3.6,3.9-5.7,3.9c-3.1-0.1-4.2-2-3.8-4.1c0.4-2.6,2.5-4.2,4.9-4.2C218.4,83.6,219.1,85.4,218.4,86.8z M213.8,87.4
		c1.3,0.1,2.1-0.5,2.4-1.2c0.2-0.5,0.2-1.1-0.4-1.1C215.1,85,214.1,86,213.8,87.4z"/>
	<path class="st6" d="M231.1,86.6c-0.5,0.5-2.1,0.5-2.2,0c0.3-0.4,0.8-1.5,0.1-1.5c-0.9-0.1-2,1.3-2.2,3c-0.1,1.4,0.7,2.2,2,2.2
		c1.4,0,2.8-0.8,3.7-2.7c0.1-0.2,0.8,0.2,0.7,0.4c-1.5,3.2-3.7,3.9-5.7,3.8c-2-0.1-3.3-1.7-3.3-3.6c0.1-2.4,2.1-4.7,5-4.7
		C231.9,83.6,232,85.4,231.1,86.6z"/>
	<path class="st6" d="M252.8,82.3c-0.3,1.5-1.9,2.4-3.2,2.4c2,0.3,3.1,2.2,2.7,4c-0.5,2-2.1,3-4.1,3c-1.4,0-2.7-0.5-3.7-1.3
		c-0.7,0.8-1.6,1.3-2.9,1.3c-1.7,0-3.3-0.6-3.2-2.2c0.1-2.2,2.9-2.7,5-1.5c0.9-2.4,1.4-6.4,3.2-7.2c0.6-0.3,1.7,0.1,1.7,0.4
		c-0.5,0.5-0.9,1.8-1.3,2.8c1.6,0,3.1-0.7,3.4-2c0.4-1.5-0.8-2.2-2.8-2.2c-2.9,0-5.4,1.6-4.3,4.1c-0.1,0.6-0.9,1.1-1.5,1
		c-1.8-1.1-1.5-3.4-0.1-4.7c1.4-1.2,3.7-1.9,6-1.9C250.7,78.4,253.2,79.9,252.8,82.3z M241.5,90.3c0.4-0.1,0.9-0.4,1.2-0.9
		c-0.3-0.2-0.8-0.4-1.2-0.5C240.1,88.7,239.9,90.5,241.5,90.3z M245.1,89.3c1.7,1.4,4.2,1.6,4.7-1.1c0.2-1.4-0.5-2.2-1.6-2.5
		c-0.6-0.2-1.1-0.2-1.8-0.2C246,86.8,245.6,88.2,245.1,89.3z"/>
	<path class="st6" d="M262.8,84.7c0.2,0.4-0.6,1.3-1,1.2c-0.8-0.6-1.9-0.9-2.8-0.8c-1.1,0.1-2.2,1.1-2.7,2.4
		c-0.5,1.2-0.6,2.3-0.2,2.6c0.9,0.9,2.6-2.1,3.2-4.1c0.5-0.5,2,0,2.2,0.4c-0.2,0.6-0.5,1.5-0.6,2.4c-0.2,1-0.1,1.4,0.3,1.4
		c0.6,0,1.9-1.2,2.6-2.7c0.1-0.2,0.9,0.2,0.7,0.4c-1.1,2.1-2.6,3.8-4.5,3.8c-1,0-1.4-0.9-1.2-2.3c-0.6,1.1-1.5,2.3-3.1,2.3
		c-1.3,0-2.6-0.8-2.2-3.1c0.4-2.8,2.8-4.8,5-5.2C259.6,83.3,261.7,83.6,262.8,84.7z"/>
	<path class="st6" d="M276.1,88c-1.4,2.7-2.7,3.9-4.2,3.9c-1.5,0-1.7-1.8-1.3-4.7c-0.9,2.3-1.8,3.6-2.4,4.1
		c-0.6,0.4-1.4,0.4-1.8-0.2c-0.4-0.6-0.6-1.9-0.4-4c-0.7,1.4-1.3,3.3-1.6,4.4c-0.1,0.5-2.4,0.6-2.2-0.2c1-3.1,1.9-4.7,3.4-7.3
		c0.3-0.6,2.6-0.6,2.4,0.1c-0.5,1.7-0.7,4.8-0.4,5.3c0.5-0.3,1.9-3.3,2.7-5.3c0.3-0.6,2.6-0.5,2.5,0.1c-0.6,3.5-1,6.3-0.1,6.2
		c0.6,0,1.5-0.4,2.6-2.8C275.5,87.3,276.2,87.7,276.1,88z"/>
	<path class="st6" d="M283.7,84c-0.5,1.9-2,6.3-1.1,6.3c0.6,0,1.8-1.2,2.4-2.7c0.1-0.3,0.8,0.2,0.7,0.4c-0.7,1.4-2.2,3.8-4.2,3.8
		c-1,0-1.5-1.1-1.2-2.4c-1.1,1.8-2.3,2.4-3.6,2.4c-1.8,0-2-1.3-1.8-2.7c0.4-1.8,1-3.7,1.5-5.4c0.3-0.5,2.3-0.3,2.4,0.2
		c-0.3,1.1-0.7,2.6-1.1,4c-0.3,1.2-0.6,2.2,0.1,2.2c0.7,0,1.8-1.2,2.3-2.7c0.4-1.2,0.8-2.6,1.1-3.8C281.6,83.3,283.4,83.4,283.7,84z
		"/>
	<path class="st6" d="M286.7,90.6c0-0.6,0.6-1.2,1.3-1.2c0.7,0,1.1,0.5,1.1,1.2c-0.1,0.6-0.6,1.2-1.2,1.2
		C287.2,91.8,286.7,91.3,286.7,90.6z M290,78.8c0.2-0.8,2.6-0.4,2.4,0.2c-0.9,2.7-1.9,6.1-2.8,8.7c-0.3,0.8-2.1,0.4-2-0.1
		C288.3,85.4,289.4,80.8,290,78.8z"/>
</g>
</svg>
