<svg xmlns="http://www.w3.org/2000/svg" viewBox="0 0 778.749 93.243">
    <g fill="#ffb612">
        <path d="M230.281 59.823c-2.136 2.138-6.255 3.357-10.682 4.123-7.935 1.218-16.633.609-16.633.609v-37.846s8.391-1.07 16.633.609c6.715 1.374 13.277 4.579 15.414 11.14 3.051 8.242.61 16.789-4.731 21.366m388.384-52.801h-146.197v62.875l-37.389-63.334h-150.165l-28.537 48.224c2.746-10.682.459-22.739-6.563-32.657-6.104-9.004-18.005-13.276-30.215-15.261-18.924-3.205-38.61-.611-38.61-.611v81.036s22.281.305 38.61-.919c2.594-.149 5.036-.456 7.325-.76 6.259-.609 11.598-2.594 17.093-5.951-1.831 2.44-5.343 7.63-5.343 7.63h26.555l28.995-48.071 25.944 48.071h26.246l-33.267-59.824h39.069v59.824h24.569v-59.824h36.168l-30.369 59.824h10.226l37.389-67.759 39.981 67.911h12.973v-71.879h16.175c9.765 0 20.906 1.22 24.416 9.004 1.374 3.357 3.206 13.43-3.05 20.296-5.191 4.274-11.143 5.954-18.16 6.409 11.139 12.975 20.448 23.504 31.586 36.17h12.515s-17.398-21.365-26.401-32.047c5.8-1.984 10.834-5.495 13.886-11.294 3.664-9.004 2.596-21.517-4.119-28.537h37.999v72.183h10.682v-72.64h44.714l-4.73-8.088"/>
        <path d="M0 93.243l163.287-46.544-163.287-46.699v93.242z"/>
        <path d="M778.748 0l-163.439 46.699 163.439 46.544v-93.242z"/>
    </g>
</svg>
