<svg width="120" height="31" viewBox="0 0 120 31" fill="none" xmlns="http://www.w3.org/2000/svg">
<path fill-rule="evenodd" clip-rule="evenodd" d="M31.2947 15.084C31.2947 13.0601 30.5065 11.1572 29.0755 9.72589C27.6442 8.29493 25.7413 7.50676 23.7174 7.50676H7.50676V15.084V22.6613H23.7174C25.7413 22.6613 27.6442 21.8728 29.0755 20.4418C30.5065 19.0109 31.2947 17.108 31.2947 15.084ZM38.8019 15.0841C38.8019 23.4149 32.0482 30.1682 23.7174 30.1682H6.1323H2.749H0V15.0841V0H23.7174C32.0482 0 38.8019 6.75332 38.8019 15.0841ZM117.246 14.099C116.383 13.2367 115.378 12.5592 114.258 12.0854C113.096 11.5939 111.865 11.3448 110.597 11.3448V11.357H90.639C89.5723 11.357 88.7048 10.4895 88.7048 9.42311C88.7048 8.35672 89.5723 7.48921 90.639 7.48921H114.294C116.358 7.48921 118.031 5.81657 118.031 3.75316C118.031 1.69011 116.358 0.0174654 114.294 0.0174654H90.639C89.3708 0.0174654 88.1387 0.266905 86.9764 0.758404C85.8561 1.23219 84.8506 1.90966 83.9879 2.77237C83.1256 3.63508 82.4478 4.64058 81.974 5.76085C81.4825 6.92281 81.233 8.15525 81.233 9.42311C81.233 10.6913 81.4825 11.9234 81.974 13.0854C82.4478 14.206 83.1256 15.2115 83.9879 16.0738C84.8506 16.9366 85.8561 17.614 86.9764 18.0882C88.1387 18.5797 89.3708 18.8288 90.639 18.8288H110.597V18.8166C111.662 18.8166 112.528 19.6826 112.528 20.7479C112.528 21.8124 111.662 22.6792 110.597 22.6792H84.9691C82.906 22.6792 81.233 24.3515 81.233 26.4149C81.233 28.4783 82.906 30.1506 84.9691 30.1506H110.597C111.865 30.1506 113.096 29.9015 114.258 29.41C115.378 28.9362 116.383 28.2588 117.246 27.3964C118.108 26.5341 118.785 25.5293 119.259 24.409C119.751 23.2474 120 22.0154 120 20.7479C120 19.48 119.751 18.2483 119.259 17.0864C118.785 15.9665 118.108 14.9613 117.246 14.099ZM71.8758 0H79.348V26.4148C79.348 27.9258 78.4377 29.2878 77.0417 29.8663C76.5794 30.0575 76.0938 30.1505 75.6126 30.1505C74.6403 30.1508 73.685 29.7711 72.9703 29.0564L48.0529 11.0458V30.1682H40.5811V3.75303C40.5811 2.24237 41.4914 0.880049 42.8873 0.301837C44.2836 -0.276376 45.8902 0.0431723 46.9588 1.11178L71.8758 19.1223V0Z" fill="#FC8507"/>
</svg>
