<svg width="174" height="37" viewBox="0 0 174 37" fill="none" xmlns="http://www.w3.org/2000/svg">
<path d="M96.4546 12.2178C94.5419 12.2178 92.5858 13.0754 91.6729 13.9759H91.6295V8.14401C91.6295 7.97248 91.5425 7.88672 91.3686 7.88672H86.9782C86.8043 7.88672 86.7174 7.97248 86.7174 8.14401V31.5145C86.7174 31.686 86.8043 31.7718 86.9782 31.7718H91.3686C91.5425 31.7718 91.6295 31.686 91.6295 31.5145V19.5076C92.325 18.1783 93.9768 17.0205 95.9329 17.0205C98.1933 17.0205 100.367 18.5642 100.367 21.3944V31.5145C100.367 31.686 100.454 31.7718 100.628 31.7718H105.018C105.192 31.7718 105.279 31.686 105.279 31.5145V21.3944C105.235 15.7769 101.845 12.2178 96.4546 12.2178Z" fill="#222222"/>
<path d="M127.883 21.909C127.883 16.2486 123.362 12.2178 118.146 12.2178C112.756 12.2178 108.191 16.4631 108.191 21.8661C108.191 27.5265 112.582 31.9862 118.798 31.9862C122.058 31.9862 124.71 31.1286 126.709 30.0565C126.883 30.0137 126.927 29.8421 126.927 29.6706V25.6826C126.927 25.5968 126.883 25.554 126.84 25.554C126.796 25.554 126.753 25.5968 126.709 25.5968C125.318 26.4545 121.797 27.3979 119.406 27.3979C115.711 27.3979 113.799 25.4682 113.408 23.4099H127.97V21.909H127.883ZM113.538 19.9365C113.755 18.3499 115.538 16.6775 118.189 16.6775C120.71 16.6775 122.493 18.3499 122.797 19.9365H113.538Z" fill="#222222"/>
<path d="M150.27 12.5179H145.879C145.749 12.5179 145.618 12.6466 145.618 12.7752V14.0188H145.575C144.358 12.9468 142.706 12.2178 140.576 12.2178C134.881 12.2178 130.752 16.7632 130.752 22.0806C130.752 27.3979 134.838 31.9862 140.576 31.9862C142.706 31.9862 144.358 31.2143 145.575 30.1423H145.618V31.5145C145.618 31.6432 145.749 31.7718 145.879 31.7718H150.27C150.4 31.7718 150.53 31.6432 150.53 31.5145V12.7752C150.53 12.6466 150.4 12.5179 150.27 12.5179ZM145.618 24.7821C145.053 25.6397 143.619 27.1406 141.098 27.1406C137.316 27.1406 135.707 24.5248 135.707 22.0806C135.707 19.6792 137.316 17.0205 141.098 17.0205C143.575 17.0205 145.053 18.5214 145.618 19.379V24.7821Z" fill="#222222"/>
<path d="M173.048 7.88672H168.657C168.483 7.88672 168.396 7.97248 168.396 8.14401V14.0188H168.353C167.136 12.9468 165.484 12.2178 163.31 12.2178C157.616 12.2178 153.53 16.7632 153.53 22.0805C153.53 27.3979 157.616 31.9862 163.31 31.9862C165.484 31.9862 167.092 31.1715 168.353 30.1423H168.396V31.5574C168.396 31.686 168.483 31.8147 168.657 31.8147H173.048C173.178 31.8147 173.265 31.686 173.265 31.5574V8.14401C173.265 8.01536 173.178 7.88672 173.048 7.88672ZM168.396 24.7821C167.831 25.6397 166.397 27.1406 163.876 27.1406C160.094 27.1406 158.529 24.5248 158.529 22.0805C158.529 19.6792 160.137 17.0205 163.876 17.0205C166.397 17.0205 167.831 18.5214 168.396 19.379V24.7821Z" fill="#222222"/>
<path d="M62.1572 7.88672H57.8538C57.6799 7.88672 57.5495 8.05825 57.5495 8.18689V14.0188H57.506C56.2889 12.9468 54.637 12.2178 52.4636 12.2178C46.7256 12.2178 42.683 16.7632 42.683 22.0805C42.683 27.3979 46.7256 31.9862 52.4636 31.9862C54.5936 31.9862 56.2454 31.1715 57.506 30.1423H57.5495V31.5145C57.5495 31.686 57.6799 31.8147 57.8538 31.8147H62.1572C62.3311 31.8147 62.4615 31.686 62.4615 31.5145V8.22977C62.418 8.05825 62.2876 7.88672 62.1572 7.88672ZM57.5495 24.7821C56.9844 25.6397 55.5064 27.1406 53.0287 27.1406C49.2469 27.1406 47.682 24.5248 47.682 22.0805C47.682 19.6792 49.2469 17.0205 53.0287 17.0205C55.5064 17.0205 56.9844 18.5214 57.5495 19.379V24.7821Z" fill="#222222"/>
<path d="M82.1531 29.4988C82.1531 27.998 80.8925 26.7544 79.3711 26.7544C77.8062 26.7544 76.5891 27.998 76.5891 29.4988C76.5891 30.9997 77.8062 32.2432 79.3711 32.2432C80.8925 32.2432 82.1531 30.9997 82.1531 29.4988Z" fill="#222222"/>
<path d="M77.5454 12.2178C75.0676 12.2178 73.068 13.2898 72.2421 14.4905H72.1987V12.8181C72.1987 12.6466 72.0248 12.5179 71.8944 12.5179H67.5909C67.417 12.5179 67.2866 12.6466 67.2866 12.8181V31.4716C67.2866 31.6432 67.4605 31.7718 67.5909 31.7718H71.8944C72.0682 31.7718 72.1987 31.6432 72.1987 31.4716V20.108C72.8072 18.5214 74.3287 17.0205 76.9368 17.0205H78.067C78.2409 17.0205 78.3713 16.8919 78.3713 16.7203V12.5179C78.3713 12.3464 78.1974 12.2178 78.067 12.2178H77.5454Z" fill="#222222"/>
<path d="M19.818 3.72767V0.768834C19.818 0.554426 19.6876 0.425781 19.5138 0.425781H15.2538C15.0799 0.425781 14.9495 0.554426 14.9495 0.768834V3.72767C6.86417 4.97124 0.734999 11.7465 0.734999 20.0227L0.691528 36.1033C0.691528 36.3606 0.908876 36.575 1.16969 36.575H17.5142C26.7731 36.575 34.3368 29.1994 34.3368 20.0656C34.3368 11.7037 27.9903 4.84259 19.818 3.72767ZM17.3838 17.3212C18.9921 17.3212 20.2962 18.6076 20.2962 20.2371C20.2962 21.8237 18.9921 23.1102 17.3838 23.1102C15.7754 23.1102 14.4278 21.8237 14.4278 20.2371C14.4278 18.6076 15.7319 17.3212 17.3838 17.3212ZM17.5142 31.8152H6.08173C5.82091 31.8152 5.60356 31.6008 5.60356 31.3435V20.0227C5.60356 14.4481 9.60274 9.77399 14.906 8.61618V13.2045C11.9501 14.1908 9.77662 16.9781 9.77662 20.2371C9.77662 24.3538 13.1672 27.6985 17.3403 27.6985C21.5133 27.6985 24.9039 24.3538 24.9039 20.2371C24.9039 16.9781 22.774 14.1908 19.818 13.2045V8.5733C25.2517 9.64534 29.3813 14.3623 29.3813 20.0656C29.3813 26.4978 24.0346 31.8152 17.5142 31.8152Z" fill="#00AEFF"/>
</svg>
