<svg width="144" height="54" xmlns="http://www.w3.org/2000/svg"><g fill="none" fill-rule="evenodd"><g fill="#F80"><path d="M143.819 16.74V5.515h-10.5V0h-9.109l-.054.096c-1.34 2.38-6.572 7.197-10.644 10.6l-.065.054-.197 6.18h4.881v12.184c.12 2.057 1.277 5.506 7.688 5.506l4.14-.001c.363-.031.78-.061 1.24-.095 2.378-.175 5.972-.44 9.288-1.241l.116-.028 1.572-7.576h-4.731c-.195 0-.42.013-.66.026-.912.051-2.047.114-2.649-.464-.297-.285-.441-.702-.441-1.274V16.74h10.125zM0 .76l.019 33.764h16.763v-8.94h19.593v-9.891H16.782v-3.519h19.593V.761zM61.575 5.422v17.595c0 2.172-1.591 3.144-3.168 3.144-1.64 0-3.3-1.093-3.3-3.182V5.404l-15.694-.078-.038 17.691c0 4.454 1.366 7.366 4.3 9.165 2.622 1.607 6.466 2.324 12.463 2.324h5.625c2.98 0 7.225-.405 10.523-2.332 3.344-1.953 5.04-5.041 5.04-9.176V5.422h-15.75zM111.833 19.864c-1.633-2.953-4.809-4.647-8.713-4.647h-6.75c-.82 0-1.293-.189-1.545-.347-.289-.18-.448-.418-.448-.67 0-.521.698-1.075 2.002-1.076.073-.004 7.382-.373 14.414.19l.202.016V5.164l-.157-.026c-1.207-.204-9.905-.953-17.38-.953h-.009l-4.767.38c-6.162 0-9.471 4.769-9.555 9.48-.085 4.815 3.138 9.794 10.538 10.065l5.948.047c2.046.077 3.024.606 3.256 1.075a.52.52 0 0 1-.047.553c-.312.46-1.304.856-2.835.702-6.556.289-11.414-.853-15.69-2.132l-.24-.072v8.261l.098.054c3.248 1.804 11.012 2.061 15.177 2.061a82.86 82.86 0 0 0 2.725-.04c6.26.234 11.182-1.852 13.517-5.729 1.689-2.802 1.787-6.26.259-9.026"/></g><g fill="#FFF"><path d="M9.155 31.34H5.143v-1.136c0-.455.092-.783.561-1.102.31-.219.821-.311 1.332-.311.502-.009 1.005.075 1.298.219.603.277.82.74.82 1.32v1.01zm-.12-3.135c-.436-.286-1.19-.563-2.254-.563-.628 0-1.105.143-1.357.269C4.302 28.448 4 29.238 4 29.869v2.855h6.107v-2.771c0-.64-.419-1.329-1.073-1.748zM4 26.91h1.048v-1.182H4v1.182zm1.524 0h4.548v-1.182H5.524v1.182zM5.6 24.711h6.378v-1.182H9.672c.387-.353.664-.605.664-1.226 0-.639-.127-.941-.504-1.31-.89-.875-2.883-.8-3.762.05-.225.226-.585.646-.543 1.278.039.72.375.88.76 1.208H5.6v1.182zm1.067-2.21c0-.268.134-.58.51-.78.177-.085.512-.202.89-.202.376 0 .711.117.887.201.377.202.512.513.512.782 0 .277-.135.588-.512.79a2.168 2.168 0 0 1-.888.201c-.377 0-.712-.118-.888-.202-.377-.201-.511-.512-.511-.79zM4 19.639h6.107v-1.182H4zM8.952 17.809h1.224v-1.266H8.952zM4 15.513h6.107v-1.266H4zM5.595 13.336v-1.182h.69v-.017c-.477-.227-.762-.665-.761-1.114 0-1.043.434-1.751 1.573-1.751h3.046v1.181H7.44c-.403 0-.881.05-.881.846 0 .712.394.855.763.855h2.82v1.182H5.595zM5.6 5.397h.688c-.386.328-.72.488-.76 1.212-.043.632.316 1.054.541 1.281.878.852 2.872.927 3.762.05.378-.37.505-.673.505-1.313 0-.624-.278-.877-.665-1.23h.639c.504-.009.872.505.872 1.028 0 .539-.251.825-.51.825v1.232c.728 0 1.307-.662 1.307-1.905 0-.86-.16-1.265-.352-1.567-.277-.428-.805-.714-1.366-.714H5.6v1.1zm1.067 1.109c0-.295.134-.623.51-.843.177-.092.512-.219.889-.219s.712.127.888.22c.377.219.512.547.512.842 0 .295-.135.623-.512.842a2.013 2.013 0 0 1-.888.22 2.01 2.01 0 0 1-.888-.22c-.377-.219-.511-.547-.511-.842zM8.952 3.266h1.224V2H8.952z"/></g><g fill="#313131"><path d="M9.323 40v6.463c-.027 2.843-2.202 3.96-4.661 3.96-2.46 0-4.635-1.117-4.662-3.96V40h2.702v6.322c.04 1.301.69 2.121 1.96 2.121s1.918-.82 1.959-2.121V40h2.702zM13.908 44.133c.581-.707 1.257-.99 2.122-.99 1.459 0 2.54.99 2.54 2.56v4.752h-2.568v-4.172c-.027-.693-.189-1.443-.986-1.443-1.27 0-1.108 1.457-1.108 1.542v4.073h-2.567V45.18c0-.637-.014-1.06-.081-1.825h2.608l.04.778zM25.108 50.211h2.5V40H25.04v3.946h-.027c-.5-.736-1.35-1.047-2.202-1.047-2.013 0-2.919 1.91-2.919 3.79 0 1.768.906 3.734 2.838 3.734.96 0 1.905-.396 2.256-1.258h.054l.068 1.046zm-1.332-5.497c1.122 0 1.257 1.259 1.257 2.207 0 .933-.203 2.206-1.257 2.206-1.054 0-1.256-1.273-1.256-2.206 0-.948.135-2.207 1.256-2.207zM40.687 47.442c0-2.644-.878-4.3-3.635-4.3-2.04 0-3.648 1.274-3.648 3.522 0 2.787 1.081 4.003 3.797 4.003.797 0 1.554-.156 2.148-.552.649-.396 1.203-1.06 1.284-1.98h-2.378c-.095.665-.54 1.018-1.257 1.018-.959 0-1.189-.791-1.175-1.71h4.864zm-5.03-1.604c.067-.807.283-1.471 1.175-1.514.392-.028.689.156.891.453.203.297.311.678.311 1.06h-2.378zM45.634 45.547c0-.24-.04-.452-.162-.594-.135-.155-.351-.254-.703-.254-.378 0-.608.226-.608.636 0 .523 1.04.495 2.649 1.018.81.269 1.364.792 1.364 1.952 0 1.881-1.689 2.362-3.243 2.362-1.662 0-3.283-.354-3.27-2.518h2.433a.8.8 0 0 0 .175.637c.149.184.365.325.608.325.5 0 .865-.198.865-.65 0-1.26-4.013-.51-4.013-3.084 0-1.753 1.784-2.234 3.135-2.234 1.608 0 3.094.438 3.202 2.404h-2.432zM54.567 50.38v-5.402h-1.27v-1.697h1.297c-.081-2.376.513-3.281 2.824-3.281.46 0 .918.07 1.378.17v1.683c-.23-.071-.487-.156-.716-.156-.865 0-.973.792-.946 1.584h1.58v1.697h-1.58v5.403h-2.567zM64.714 49.465c-.58.707-1.257.99-2.121.99-1.46 0-2.54-.99-2.54-2.56v-4.752h2.567v4.172c.027.693.189 1.443.986 1.443 1.27 0 1.108-1.457 1.108-1.542v-4.073h2.567v5.275c0 .637.014 1.06.081 1.825h-2.607l-.04-.778zM71.709 44.133c.58-.707 1.256-.99 2.121-.99 1.46 0 2.54.99 2.54 2.56v4.752h-2.567v-4.172c-.027-.693-.19-1.443-.986-1.443-1.27 0-1.108 1.457-1.108 1.542v4.073H69.14V45.18c0-.637-.013-1.06-.08-1.825h2.607l.04.778zM80.696 46.283l2.337-3.14h2.797l-2.297 2.984 2.635 4.116h-3.04l-2.432-3.96zm-2.628 3.928h2.567V40h-2.567v10.211zM87.65 43.272v-1.075l2.567-1.018v2.093h1.486v1.697h-1.486v2.814c0 .184-.108 1.103.486 1.103.338 0 .69 0 .987-.042v1.598a6.89 6.89 0 0 1-1.379.142c-1.743 0-2.797-.255-2.662-2.433v-3.182h-1.324v-1.697h1.324zM93.081 41.895h2.595V40H93.08v1.895zm0 8.348h2.568v-7.1H93.08v7.1zM101.156 43.143c-2.122 0-3.946 1.145-3.946 3.762 0 2.616 1.824 3.762 3.946 3.762 2.12 0 3.945-1.146 3.945-3.762 0-2.617-1.824-3.762-3.945-3.762m-1.319 3.778c0-1.004.23-2.207 1.31-2.207 1.082 0 1.311 1.203 1.311 2.207 0 1.004-.23 2.206-1.31 2.206-1.081 0-1.31-1.202-1.31-2.206M109.241 44.133c.581-.707 1.257-.99 2.122-.99 1.46 0 2.54.99 2.54 2.56v4.752h-2.567v-4.172c-.027-.693-.19-1.443-.987-1.443-1.27 0-1.108 1.457-1.108 1.542v4.073h-2.567V45.18c0-.637-.013-1.06-.08-1.825h2.607l.04.778zM115.601 41.895h2.594V40h-2.594v1.895zm0 8.348h2.567v-7.1h-2.567v7.1zM127.013 47.442c0-2.644-.88-4.3-3.636-4.3-2.04 0-3.647 1.274-3.647 3.522 0 2.787 1.08 4.003 3.796 4.003.798 0 1.554-.156 2.149-.552.648-.396 1.202-1.06 1.283-1.98h-2.378c-.094.665-.54 1.018-1.256 1.018-.96 0-1.19-.791-1.176-1.71h4.865zm-5.031-1.604c.067-.807.283-1.471 1.175-1.514.392-.028.689.156.892.453.202.297.31.678.31 1.06h-2.377zM131.01 44.686h.028c.297-1.174 1.135-1.57 2.27-1.542v2.277c-.19-.014-.365-.014-.54-.014-1.339.014-1.798.849-1.757 2.206v2.843h-2.568v-5.275c0-.636-.013-1.06-.08-1.825h2.607l.04 1.33zM134.941 43.272v-1.075l2.567-1.018v2.093h1.486v1.697h-1.486v2.814c0 .184-.108 1.103.487 1.103.337 0 .689 0 .986-.042v1.598a6.89 6.89 0 0 1-1.378.142c-1.743 0-2.797-.255-2.662-2.433v-3.182h-1.324v-1.697h1.324zM140.373 50.371h2.431V48.25h-2.431z"/></g></g></svg>