<?xml version="1.0" encoding="utf-8"?>
<!-- Generator: Adobe Illustrator 20.0.0, SVG Export Plug-In . SVG Version: 6.00 Build 0)  -->
<svg version="1.1" id="Logotype" xmlns="http://www.w3.org/2000/svg" xmlns:xlink="http://www.w3.org/1999/xlink" x="0px" y="0px"
	 viewBox="0 0 632.4 191.6" style="enable-background:new 0 0 632.4 191.6;" xml:space="preserve">
<style type="text/css">
	.st0{fill:#2B2B2B;}
	.st1{fill:#00B3E0;}
</style>
<g>
	<g>
		<path class="st0" d="M120.9,49.3h25.7v97h-25.7V49.3z"/>
		<path class="st0" d="M253.9,128.3c-11,13.7-25.3,20.5-43.2,20.5c-7.5,0-14.3-1.3-20.5-3.8c-6.2-2.5-11.5-6-15.9-10.5
			c-4.4-4.5-7.9-9.8-10.3-16c-2.5-6.2-3.7-13-3.7-20.5c0-7.4,1.2-14.2,3.6-20.4c2.4-6.3,5.9-11.7,10.3-16.3c4.5-4.6,9.8-8.2,16-10.8
			c6.2-2.6,13-3.9,20.5-3.9c8.4,0,16.2,1.4,23.4,4.2c7.2,2.8,13.2,7.7,18.2,14.7l-17,17.2c-2.7-3.7-6-6.6-9.7-8.9
			c-3.8-2.2-8.1-3.3-12.9-3.3c-4.1,0-7.7,0.7-10.9,2c-3.2,1.4-5.9,3.2-8.1,5.7c-2.2,2.4-3.9,5.3-5,8.5c-1.2,3.2-1.7,6.8-1.7,10.5
			c0,3.9,0.6,7.5,1.8,10.8c1.2,3.3,2.9,6.2,5.2,8.6c2.2,2.4,4.9,4.3,8.1,5.7c3.1,1.4,6.7,2,10.5,2c5.6,0,10.2-1,13.7-3
			c3.5-2,7-5.1,10.4-9.4L253.9,128.3z"/>
		<path class="st0" d="M307.4,148.6c-7.3,0-14-1.3-20.1-3.9c-6.2-2.6-11.5-6.1-16-10.6c-4.5-4.5-8-9.9-10.5-16.1
			c-2.5-6.3-3.8-13.1-3.8-20.4c0-7.4,1.3-14.2,3.8-20.4c2.5-6.3,6-11.6,10.5-16.1c4.5-4.5,9.8-8,16-10.5c6.2-2.5,12.9-3.8,20.1-3.8
			s14,1.3,20.2,3.8c6.2,2.5,11.5,6,16,10.5c4.5,4.5,7.9,9.9,10.5,16.1c2.5,6.3,3.8,13.1,3.8,20.4c0,7.4-1.3,14.2-3.8,20.4
			c-2.5,6.3-6,11.6-10.5,16.1c-4.5,4.5-9.8,8-16,10.6C321.4,147.4,314.6,148.6,307.4,148.6z M307.4,124.5c3.8,0,7.1-0.7,10.1-2.1
			c3-1.4,5.5-3.3,7.5-5.7c2-2.4,3.6-5.3,4.7-8.6c1.1-3.3,1.6-6.8,1.6-10.5c0-3.7-0.5-7.2-1.6-10.5c-1.1-3.3-2.6-6.2-4.7-8.6
			c-2-2.4-4.5-4.3-7.5-5.7c-3-1.4-6.3-2.1-10.1-2.1s-7.1,0.7-10.1,2.1c-3,1.4-5.5,3.3-7.5,5.7c-2,2.4-3.6,5.3-4.7,8.6
			c-1.1,3.3-1.6,6.8-1.6,10.5c0,3.7,0.5,7.2,1.6,10.5c1.1,3.3,2.6,6.2,4.7,8.6c2,2.4,4.5,4.3,7.5,5.7
			C300.2,123.8,303.6,124.5,307.4,124.5z"/>
		<path class="st0" d="M358.4,49.3h28.1l21.8,67.5l20.4-67.5h27.5l-35.3,97h-27.2L358.4,49.3z"/>
		<path class="st0" d="M466.3,49.3h69.8v22.2h-44v15h36.2v20.9H492v16.6h47.1v22.2h-72.8V49.3z"/>
		<path class="st0" d="M552.5,49.3h40.1c5.2,0,10,0.7,14.2,2c4.2,1.4,7.8,3.4,10.8,6c3,2.7,5.3,6,7,10c1.6,4,2.5,8.6,2.5,13.8
			c0,6.4-1.4,11.9-4.2,16.6c-2.8,4.7-6.5,8.5-11.2,11.3l20.8,37.2h-27.6l-16.4-33h-10.8v33h-25.2V49.3z M590.1,93.1
			c3.4,0,6.2-1,8.3-3.1c2.1-2.1,3.2-4.9,3.2-8.4c0-3.7-1-6.6-3.1-8.7c-2-2.1-4.9-3.2-8.6-3.2h-12.4v23.4H590.1z"/>
	</g>
	<rect x="120.9" class="st1" width="25.7" height="25.7"/>
	<polygon class="st1" points="71.5,49.3 0,49.3 0,75.1 53.3,75.1 10.3,118.1 28.5,136.3 71.5,93.2 71.5,146.6 97.2,146.6 97.2,75.1 
		97.2,49.3 	"/>
</g>
<g>
	<g>
		<path class="st0" d="M296.7,170.1h11.7v3.6h-7.8v13.9h-4V170.1z"/>
		<path class="st0" d="M313.2,170.1h4.4l6.4,17.5h-4.3l-1.3-4h-6.2l-1.3,4h-4.1L313.2,170.1z M317.4,180.5l-2.1-6.6l-2.2,6.6H317.4z
			"/>
		<path class="st0" d="M342.1,170.1v14.1h1.8v7.5h-3.5v-4h-11.6v4h-3.4v-7.5h1.6c0.6-0.9,1.1-1.8,1.5-2.8c0.4-0.9,0.8-2,1-3.1
			c0.3-1.1,0.5-2.4,0.7-3.7s0.3-2.8,0.4-4.5H342.1z M338.3,173.5h-4.4c-0.1,1.2-0.2,2.3-0.4,3.3c-0.2,1-0.4,1.9-0.6,2.7
			c-0.2,0.8-0.5,1.6-0.8,2.4c-0.3,0.7-0.6,1.5-1,2.2h7.2V173.5z"/>
		<path class="st0" d="M359.2,187.6h-3.9v-7.2h-1.3c-0.6,0-1,0.2-1.3,0.5c-0.3,0.3-0.6,0.9-0.9,1.5l-2.3,5.1h-4.4l3.1-6.4
			c0.4-0.9,0.8-1.5,1.3-1.9c0.4-0.4,0.9-0.7,1.4-0.8c-0.5-0.2-0.9-0.6-1.4-1c-0.4-0.4-0.8-1-1.1-1.7l-2.6-5.7h4.3l2.1,4.8
			c0.3,0.7,0.6,1.1,1,1.5c0.3,0.3,0.8,0.5,1.4,0.5h0.8v-6.7h3.9v6.7h0.9c0.6,0,1-0.2,1.4-0.5c0.3-0.3,0.7-0.8,1-1.5l2.1-4.8h4.3
			l-2.6,5.7c-0.3,0.7-0.7,1.3-1.1,1.7c-0.4,0.4-0.9,0.8-1.4,1c0.5,0.2,1,0.5,1.4,0.8c0.4,0.4,0.9,1,1.3,1.9l3.1,6.4h-4.6l-2.3-5.1
			c-0.3-0.7-0.6-1.2-0.9-1.5c-0.3-0.3-0.7-0.5-1.3-0.5h-1.2V187.6z"/>
		<path class="st0" d="M371.4,170.1h12v3.5h-8v3.4h6.2v3.4h-6.2v3.8h8.6v3.5h-12.5V170.1z"/>
		<path class="st0" d="M391.2,173.6h-5.7v-3.5h15.3v3.5h-5.6v14h-4V173.6z"/>
		<path class="st0" d="M403.2,170.1h3.9v5.8h2.4c0.9,0,1.8,0.1,2.6,0.4c0.8,0.3,1.4,0.6,2,1.1c0.6,0.5,1,1.1,1.3,1.8
			c0.3,0.7,0.5,1.5,0.5,2.4c0,0.8-0.1,1.6-0.4,2.3c-0.3,0.7-0.7,1.3-1.2,1.8c-0.5,0.5-1.2,0.9-2,1.2c-0.8,0.3-1.7,0.4-2.8,0.4h-6.1
			V170.1z M407.1,179.2v5.2h2c0.8,0,1.5-0.2,2-0.7c0.5-0.4,0.7-1.1,0.7-1.9c0-0.8-0.2-1.5-0.7-1.9c-0.5-0.5-1.2-0.7-2-0.7H407.1z
			 M418.1,170.1h4v17.5h-4V170.1z"/>
	</g>
	<path class="st0" d="M450.4,187.6h-3.9v-11.8l-7.8,11.8h-3.6v-17.5h3.9v11.6l7.6-11.6h3.8V187.6z"/>
	<path class="st0" d="M137.5,170.1v17.5h-4v-13.9h-4.3c-0.1,2.4-0.4,4.4-0.7,6.2s-0.7,3.2-1.4,4.4c-0.6,1.2-1.4,2-2.4,2.6
		c-1,0.6-2.2,0.9-3.7,0.9h-0.3v-3.5c0.8,0,1.4-0.2,2-0.6c0.6-0.4,1-1.1,1.4-2.2c0.4-1,0.7-2.5,0.9-4.3c0.2-1.8,0.4-4.2,0.5-7H137.5z
		"/>
	<path class="st0" d="M145.9,170.1h4.4l6.4,17.5h-4.3l-1.3-4h-6.2l-1.3,4h-4.1L145.9,170.1z M150.1,180.5l-2.1-6.6l-2.2,6.6H150.1z"
		/>
	<path class="st0" d="M173.8,187.6h-3.9v-11.8l-7.8,11.8h-3.6v-17.5h3.9v11.6l7.6-11.6h3.8V187.6z M164.5,165c0,0.4,0.2,0.8,0.4,1
		c0.3,0.3,0.6,0.4,1.1,0.4c0.5,0,0.8-0.1,1.1-0.4c0.3-0.3,0.4-0.6,0.4-1h2.8c0,1.1-0.4,2.1-1.1,2.8s-1.8,1.1-3.1,1.1
		c-1.3,0-2.3-0.4-3.1-1.1c-0.8-0.7-1.1-1.7-1.1-2.8H164.5z"/>
	<path class="st0" d="M184.5,169.2h3.6v1.9c1.2,0.1,2.3,0.3,3.3,0.7c1,0.4,1.8,0.9,2.5,1.6c0.7,0.7,1.2,1.4,1.6,2.3
		c0.4,0.9,0.6,1.9,0.6,3c0,1.1-0.2,2.1-0.5,3c-0.4,0.9-0.9,1.7-1.6,2.3c-0.7,0.7-1.5,1.2-2.5,1.6c-1,0.4-2.1,0.7-3.4,0.8v1.9h-3.6
		v-1.9c-1.2-0.1-2.3-0.3-3.3-0.7c-1-0.4-1.8-0.9-2.5-1.6c-0.7-0.7-1.2-1.4-1.6-2.3c-0.4-0.9-0.6-1.9-0.6-3c0-1.1,0.2-2.1,0.5-3
		c0.4-0.9,0.9-1.7,1.6-2.3c0.7-0.7,1.5-1.2,2.5-1.6c1-0.4,2.1-0.7,3.4-0.8V169.2z M180.4,178.7c0,1.2,0.3,2.1,1,2.9
		c0.7,0.8,1.7,1.2,3.1,1.4v-8.6c-1.4,0.2-2.5,0.7-3.1,1.4C180.7,176.6,180.4,177.6,180.4,178.7z M192.3,178.7c0-1.2-0.3-2.1-1-2.9
		s-1.7-1.2-3.1-1.4v8.6c1.4-0.2,2.5-0.7,3.1-1.4C191.9,180.8,192.3,179.9,192.3,178.7z"/>
	<path class="st0" d="M214.8,184.4c-0.4,0.5-0.8,1-1.3,1.4c-0.5,0.4-1.1,0.8-1.7,1.2c-0.6,0.3-1.3,0.6-2.1,0.8
		c-0.7,0.2-1.5,0.3-2.3,0.3c-1.3,0-2.5-0.2-3.6-0.7c-1.1-0.5-2-1.1-2.8-1.9c-0.8-0.8-1.4-1.8-1.8-2.9c-0.4-1.1-0.7-2.3-0.7-3.7
		c0-1.3,0.2-2.5,0.7-3.6c0.4-1.1,1.1-2.1,1.8-2.9c0.8-0.8,1.7-1.5,2.9-2c1.1-0.5,2.3-0.7,3.7-0.7c1.6,0,3,0.3,4.3,0.9
		c1.2,0.6,2.2,1.5,3,2.6l-2.7,2.6c-0.5-0.7-1.1-1.3-1.9-1.8c-0.7-0.4-1.6-0.7-2.6-0.7c-0.8,0-1.5,0.1-2.1,0.4
		c-0.6,0.3-1.2,0.7-1.6,1.2s-0.8,1.1-1,1.8c-0.2,0.7-0.4,1.4-0.4,2.1c0,0.8,0.1,1.5,0.4,2.2c0.2,0.7,0.6,1.2,1,1.7s1,0.9,1.6,1.2
		c0.6,0.3,1.3,0.4,2.1,0.4c0.6,0,1.2-0.1,1.6-0.2c0.5-0.1,0.9-0.3,1.2-0.5c0.4-0.2,0.7-0.5,1-0.8c0.3-0.3,0.6-0.6,0.8-0.9
		L214.8,184.4z"/>
	<path class="st0" d="M222,173.6h-5.7v-3.5h15.3v3.5H226v14h-4V173.6z"/>
	<path class="st0" d="M236.6,170.1h4.4l6.4,17.5h-4.3l-1.3-4h-6.2l-1.3,4h-4.1L236.6,170.1z M240.8,180.5l-2.1-6.6l-2.2,6.6H240.8z"
		/>
	<path class="st0" d="M264.6,187.6h-3.9v-11.8l-7.8,11.8h-3.6v-17.5h3.9v11.6l7.6-11.6h3.8V187.6z M255.2,165c0,0.4,0.2,0.8,0.4,1
		c0.3,0.3,0.6,0.4,1.1,0.4s0.8-0.1,1.1-0.4c0.3-0.3,0.4-0.6,0.4-1h2.8c0,1.1-0.4,2.1-1.1,2.8c-0.8,0.7-1.8,1.1-3.1,1.1
		c-1.3,0-2.3-0.4-3.1-1.1c-0.8-0.7-1.1-1.7-1.1-2.8H255.2z"/>
	<path class="st0" d="M283.5,170.1v17.5h-4v-13.9h-4.3c-0.1,2.4-0.4,4.4-0.7,6.2s-0.7,3.2-1.4,4.4c-0.6,1.2-1.4,2-2.4,2.6
		c-1,0.6-2.2,0.9-3.7,0.9h-0.3v-3.5c0.8,0,1.4-0.2,2-0.6s1-1.1,1.4-2.2c0.4-1,0.7-2.5,0.9-4.3c0.2-1.8,0.4-4.2,0.5-7H283.5z"/>
	<path class="st0" d="M470,170.1h4.4l6.4,17.5h-4.3l-1.3-4h-6.2l-1.3,4h-4.1L470,170.1z M474.2,180.5l-2.1-6.6l-2.2,6.6H474.2z"/>
	<path class="st0" d="M486.6,187.6h-4v-17.5h4v6.7h1.2c0.7,0,1.2-0.2,1.6-0.5c0.4-0.3,0.8-0.8,1.1-1.4l2.6-4.9h4.4l-3.1,5.7
		c-0.4,0.8-0.8,1.3-1.3,1.7c-0.5,0.4-1,0.7-1.6,1c0.8,0.2,1.4,0.6,1.8,1c0.5,0.4,0.9,1,1.3,1.7l3.6,6.4h-4.7l-2.8-5.2
		c-0.3-0.7-0.7-1.2-1.1-1.5c-0.4-0.3-0.9-0.5-1.5-0.5h-1.4V187.6z"/>
	<path class="st0" d="M514.7,184.4c-0.4,0.5-0.8,1-1.3,1.4c-0.5,0.4-1.1,0.8-1.7,1.2c-0.6,0.3-1.3,0.6-2.1,0.8
		c-0.7,0.2-1.5,0.3-2.3,0.3c-1.3,0-2.5-0.2-3.6-0.7c-1.1-0.5-2-1.1-2.8-1.9c-0.8-0.8-1.4-1.8-1.8-2.9c-0.4-1.1-0.7-2.3-0.7-3.7
		c0-1.3,0.2-2.5,0.7-3.6c0.4-1.1,1.1-2.1,1.8-2.9s1.7-1.5,2.9-2c1.1-0.5,2.3-0.7,3.7-0.7c1.6,0,3,0.3,4.3,0.9c1.2,0.6,2.2,1.5,3,2.6
		l-2.7,2.6c-0.5-0.7-1.1-1.3-1.9-1.8c-0.7-0.4-1.6-0.7-2.6-0.7c-0.8,0-1.5,0.1-2.1,0.4c-0.6,0.3-1.2,0.7-1.6,1.2s-0.8,1.1-1,1.8
		c-0.2,0.7-0.4,1.4-0.4,2.1c0,0.8,0.1,1.5,0.4,2.2c0.2,0.7,0.6,1.2,1,1.7c0.4,0.5,1,0.9,1.6,1.2c0.6,0.3,1.3,0.4,2.1,0.4
		c0.6,0,1.2-0.1,1.6-0.2c0.5-0.1,0.9-0.3,1.2-0.5c0.4-0.2,0.7-0.5,1-0.8c0.3-0.3,0.6-0.6,0.8-0.9L514.7,184.4z"/>
	<path class="st0" d="M516.8,170.1h12v3.5h-8v3.4h6.2v3.4h-6.2v3.8h8.6v3.5h-12.5V170.1z"/>
	<path class="st0" d="M547.1,184.4c-0.4,0.5-0.8,1-1.3,1.4c-0.5,0.4-1.1,0.8-1.7,1.2c-0.6,0.3-1.3,0.6-2.1,0.8
		c-0.7,0.2-1.5,0.3-2.3,0.3c-1.3,0-2.5-0.2-3.6-0.7c-1.1-0.5-2-1.1-2.8-1.9c-0.8-0.8-1.4-1.8-1.8-2.9c-0.4-1.1-0.7-2.3-0.7-3.7
		c0-1.3,0.2-2.5,0.7-3.6c0.4-1.1,1.1-2.1,1.8-2.9s1.7-1.5,2.9-2c1.1-0.5,2.3-0.7,3.7-0.7c1.6,0,3,0.3,4.3,0.9c1.2,0.6,2.2,1.5,3,2.6
		l-2.7,2.6c-0.5-0.7-1.1-1.3-1.9-1.8c-0.7-0.4-1.6-0.7-2.6-0.7c-0.8,0-1.5,0.1-2.1,0.4c-0.6,0.3-1.2,0.7-1.6,1.2s-0.8,1.1-1,1.8
		c-0.2,0.7-0.4,1.4-0.4,2.1c0,0.8,0.1,1.5,0.4,2.2c0.2,0.7,0.6,1.2,1,1.7c0.4,0.5,1,0.9,1.6,1.2c0.6,0.3,1.3,0.4,2.1,0.4
		c0.6,0,1.2-0.1,1.6-0.2c0.5-0.1,0.9-0.3,1.2-0.5c0.4-0.2,0.7-0.5,1-0.8c0.3-0.3,0.6-0.6,0.8-0.9L547.1,184.4z"/>
	<path class="st0" d="M564.5,184.4c-0.4,0.5-0.8,1-1.3,1.4c-0.5,0.4-1.1,0.8-1.7,1.2c-0.6,0.3-1.3,0.6-2.1,0.8
		c-0.7,0.2-1.5,0.3-2.3,0.3c-1.3,0-2.5-0.2-3.6-0.7c-1.1-0.5-2-1.1-2.8-1.9c-0.8-0.8-1.4-1.8-1.8-2.9c-0.4-1.1-0.7-2.3-0.7-3.7
		c0-1.3,0.2-2.5,0.7-3.6c0.4-1.1,1.1-2.1,1.8-2.9s1.7-1.5,2.9-2c1.1-0.5,2.3-0.7,3.7-0.7c1.6,0,3,0.3,4.3,0.9c1.2,0.6,2.2,1.5,3,2.6
		l-2.7,2.6c-0.5-0.7-1.1-1.3-1.9-1.8c-0.7-0.4-1.6-0.7-2.6-0.7c-0.8,0-1.5,0.1-2.1,0.4c-0.6,0.3-1.2,0.7-1.6,1.2s-0.8,1.1-1,1.8
		c-0.2,0.7-0.4,1.4-0.4,2.1c0,0.8,0.1,1.5,0.4,2.2c0.2,0.7,0.6,1.2,1,1.7c0.4,0.5,1,0.9,1.6,1.2c0.6,0.3,1.3,0.4,2.1,0.4
		c0.6,0,1.2-0.1,1.6-0.2c0.5-0.1,0.9-0.3,1.2-0.5c0.4-0.2,0.7-0.5,1-0.8c0.3-0.3,0.6-0.6,0.8-0.9L564.5,184.4z"/>
	<path class="st0" d="M577.7,170.1h4.1l-6.7,13.7c-0.7,1.4-1.4,2.4-2.3,3.1c-0.9,0.7-1.9,1.1-3.2,1.1c-0.8,0-1.5-0.1-2-0.4
		c-0.6-0.3-1.1-0.5-1.6-0.9l1.7-2.8c0.3,0.2,0.6,0.4,0.9,0.5c0.3,0.1,0.7,0.2,1,0.2c0.9,0,1.6-0.6,2.3-1.8l-6.5-12.9h4.3l4,8.9
		L577.7,170.1z"/>
	<path class="st0" d="M585.7,170.1h4.4l6.4,17.5h-4.3l-1.3-4h-6.2l-1.3,4h-4.1L585.7,170.1z M589.9,180.5l-2.1-6.6l-2.2,6.6H589.9z"
		/>
	<path class="st0" d="M598.4,170.1h6.4c1.1,0,2,0.2,2.8,0.5c0.8,0.3,1.4,0.7,1.9,1.2c0.5,0.5,0.9,1.1,1.1,1.8
		c0.2,0.7,0.4,1.4,0.4,2.1c0,0.9-0.2,1.8-0.5,2.5c-0.3,0.7-0.8,1.3-1.3,1.8c-0.6,0.5-1.2,0.8-1.9,1.1c-0.7,0.2-1.5,0.4-2.3,0.4h-2.7
		v6.2h-3.9V170.1z M604.6,178.2c0.7,0,1.3-0.2,1.7-0.7c0.4-0.4,0.6-1,0.6-1.7c0-0.7-0.2-1.3-0.7-1.8c-0.4-0.5-1-0.7-1.8-0.7h-2.3
		v4.9H604.6z"/>
	<path class="st0" d="M613.6,170.1h3.9v5.8h2.4c0.9,0,1.8,0.1,2.6,0.4c0.8,0.3,1.4,0.6,2,1.1c0.6,0.5,1,1.1,1.3,1.8
		c0.3,0.7,0.5,1.5,0.5,2.4c0,0.8-0.1,1.6-0.4,2.3c-0.3,0.7-0.7,1.3-1.2,1.8c-0.5,0.5-1.2,0.9-2,1.2c-0.8,0.3-1.7,0.4-2.8,0.4h-6.1
		V170.1z M617.4,179.1v5.2h2c0.8,0,1.5-0.2,2-0.7c0.5-0.4,0.7-1.1,0.7-1.9c0-0.8-0.2-1.5-0.7-1.9c-0.5-0.5-1.2-0.7-2-0.7H617.4z
		 M628.4,170.1h4v17.5h-4V170.1z"/>
</g>
</svg>
