<?xml version="1.0" encoding="UTF-8"?>
<svg width="79px" height="28px" viewBox="0 0 79 28" version="1.1" xmlns="http://www.w3.org/2000/svg" xmlns:xlink="http://www.w3.org/1999/xlink">
    <!-- Generator: Sketch 49.3 (51167) - http://www.bohemiancoding.com/sketch -->
    <title>typo</title>
    <desc>Created with Sketch.</desc>
    <defs></defs>
    <g id="Symbols" stroke="none" stroke-width="1" fill="none" fill-rule="evenodd">
        <g id="Brand/Logo" transform="translate(-54.000000, -1.000000)" fill="#FFFFFF">
            <g id="typo">
                <g transform="translate(54.000000, 1.000000)">
                    <path d="M58,6.1455 L65.366,6.1455 L65.366,9.1315 C65.696,8.6955 66.064,8.2715 66.471,7.8595 C66.877,7.4485 67.334,7.0875 67.842,6.7795 C68.35,6.4705 68.908,6.2205 69.519,6.0275 C70.128,5.8345 70.801,5.7385 71.537,5.7385 C73.786,5.7385 75.537,6.4195 76.791,7.7825 C78.045,9.1455 78.672,11.0215 78.672,13.4135 L78.672,26.9995 L71.306,26.9995 L71.306,15.7655 C71.306,14.6085 71.039,13.7355 70.506,13.1425 C69.973,12.5515 69.275,12.2555 68.412,12.2555 C67.523,12.2555 66.794,12.5515 66.223,13.1425 C65.651,13.7355 65.366,14.6085 65.366,15.7655 L65.366,26.9995 L58,26.9995 L58,6.1455 Z" id="Fill-24"></path>
                    <path d="M48.5488,16.6503 C48.5488,17.2643 48.4528,17.8543 48.2618,18.4183 C48.0698,18.9813 47.8008,19.4743 47.4538,19.8973 C47.1078,20.3203 46.6828,20.6533 46.1808,20.8963 C45.6778,21.1403 45.1148,21.2613 44.4938,21.2613 C43.8958,21.2613 43.3448,21.1343 42.8428,20.8773 C42.3408,20.6213 41.9028,20.2823 41.5328,19.8593 C41.1618,19.4363 40.8748,18.9433 40.6718,18.3793 C40.4678,17.8163 40.3658,17.2123 40.3658,16.5733 L40.3658,16.4963 C40.3658,15.8803 40.4618,15.2923 40.6528,14.7283 C40.8448,14.1653 41.1138,13.6713 41.4608,13.2493 C41.8078,12.8263 42.2328,12.4923 42.7358,12.2493 C43.2368,12.0053 43.7998,11.8833 44.4218,11.8833 C45.0198,11.8833 45.5698,12.0123 46.0718,12.2673 C46.5748,12.5243 47.0118,12.8643 47.3828,13.2873 C47.7528,13.7093 48.0408,14.2033 48.2438,14.7663 C48.4468,15.3303 48.5488,15.9313 48.5488,16.5733 L48.5488,16.6503 Z M55.0718,12.3243 C54.5098,11.0213 53.7178,9.8863 52.6958,8.9163 C51.6748,7.9463 50.4668,7.1733 49.0748,6.5993 C47.6828,6.0253 46.1558,5.7383 44.4958,5.7383 C42.8348,5.7383 41.3028,6.0253 39.8978,6.5993 C38.4918,7.1733 37.2778,7.9533 36.2578,8.9343 C35.2358,9.9183 34.4368,11.0663 33.8618,12.3803 C33.2868,13.6963 32.9998,15.0933 32.9998,16.5733 L32.9998,16.6503 C32.9998,18.1293 33.2798,19.5213 33.8428,20.8233 C34.4048,22.1253 35.1968,23.2663 36.2188,24.2493 C37.2398,25.2323 38.4468,26.0043 39.8398,26.5653 C41.2328,27.1273 42.7588,27.4083 44.4188,27.4083 C46.0798,27.4083 47.6118,27.1213 49.0178,26.5463 C50.4228,25.9723 51.6358,25.1943 52.6578,24.2113 C53.6798,23.2293 54.4788,22.0813 55.0538,20.7653 C55.6278,19.4513 55.9158,18.0533 55.9158,16.5733 L55.9158,16.4963 C55.9158,15.0163 55.6338,13.6253 55.0718,12.3243 Z" id="Fill-26"></path>
                    <path d="M24.3574,9.8789 C24.3574,10.9899 23.9774,11.8699 23.2194,12.5179 C22.4614,13.1669 21.4134,13.4909 20.0764,13.4909 L16.9904,13.4909 L16.9904,6.1459 L20.0384,6.1459 C21.4004,6.1459 22.4614,6.4569 23.2194,7.0789 C23.9774,7.7009 24.3574,8.6079 24.3574,9.7989 L24.3574,9.8789 Z M28.6764,2.5319 C27.6994,1.7079 26.5174,1.0789 25.1284,0.6489 C23.7404,0.2159 22.1974,-0.0001 20.5014,-0.0001 L10.0004,-0.0001 L10.0004,26.9999 L16.9904,26.9999 L16.9904,19.6339 L20.1154,19.6339 C21.7864,19.6339 23.3354,19.4239 24.7624,19.0049 C26.1894,18.5859 27.4174,17.9579 28.4454,17.1199 C29.4734,16.2819 30.2774,15.2479 30.8554,14.0189 C31.4344,12.7879 31.7234,11.3609 31.7234,9.7379 C31.7234,8.1419 31.4604,6.7799 30.9324,5.5759 C30.4054,4.3719 29.6534,3.3579 28.6764,2.5319 Z" id="Fill-29"></path>
                    <path d="M0,10.0002 L6.99980021,10.0002 L6.99980021,27.0002 L0,26.9962 L0,10.0002 Z M7,0.0003 L7,6.9993 L0,6.9993 L0.000199794497,0.0043 L7,0.0003 Z" id="Combined-Shape"></path>
                </g>
            </g>
        </g>
    </g>
</svg>