<?xml version="1.0" encoding="utf-8"?>
<!-- Generator: Adobe Illustrator 24.0.1, SVG Export Plug-In . SVG Version: 6.00 Build 0)  -->
<svg version="1.1" id="Слой_1" xmlns="http://www.w3.org/2000/svg" xmlns:xlink="http://www.w3.org/1999/xlink" x="0px" y="0px"
	 viewBox="0 0 973.4 133.3" style="enable-background:new 0 0 973.4 133.3;" xml:space="preserve">
<style type="text/css">
	.st0{fill:#FFFFFF;}
	.st1{fill:url(#SVGID_3_);}
	.st2{fill:none;stroke:#FFFFFF;stroke-miterlimit:10;}
	.st3{fill:url(#SVGID_6_);}
	.st4{fill:url(#SVGID_7_);}
	.st5{fill:#F3B700;}
	.st6{fill:url(#SVGID_8_);}
	.st7{fill:url(#SVGID_9_);}
	.st8{fill:url(#SVGID_10_);}
	.st9{fill:url(#SVGID_11_);}
	.st10{fill:url(#SVGID_12_);}
	.st11{fill:url(#SVGID_13_);}
	.st12{filter:url(#Adobe_OpacityMaskFilter);}
	.st13{mask:url(#SVGID_14_);}
	.st14{fill:url(#SVGID_15_);}
	.st15{fill:#DA1145;}
	.st16{fill:#6F1C5A;}
	.st17{fill:#44B4DB;}
	.st18{fill:#2D3C4B;}
	.st19{fill:url(#SVGID_16_);}
	.st20{clip-path:url(#SVGID_18_);}
	.st21{clip-path:url(#SVGID_20_);}
	.st22{clip-path:url(#SVGID_24_);}
	.st23{clip-path:url(#SVGID_26_);}
	.st24{clip-path:url(#SVGID_30_);}
	.st25{clip-path:url(#SVGID_32_);}
	.st26{clip-path:url(#SVGID_36_);}
	.st27{clip-path:url(#SVGID_38_);}
	.st28{opacity:0.9;}
	.st29{clip-path:url(#SVGID_42_);}
	.st30{clip-path:url(#SVGID_44_);}
	.st31{clip-path:url(#SVGID_48_);}
	.st32{clip-path:url(#SVGID_50_);}
	.st33{clip-path:url(#SVGID_54_);}
	.st34{clip-path:url(#SVGID_56_);}
	.st35{clip-path:url(#SVGID_60_);}
	.st36{clip-path:url(#SVGID_62_);}
	.st37{clip-path:url(#SVGID_66_);}
	.st38{clip-path:url(#SVGID_68_);}
	.st39{fill:url(#SVGID_71_);}
	.st40{fill:url(#SVGID_72_);}
	.st41{clip-path:url(#SVGID_74_);}
	.st42{clip-path:url(#SVGID_76_);}
	.st43{fill:#FCC005;}
	.st44{fill:#FF004B;}
	.st45{fill:#80005A;}
	.st46{fill:#A2B6C2;}
	.st47{fill:#E8EDEF;}
	.st48{fill:url(#SVGID_83_);}
	.st49{clip-path:url(#SVGID_85_);}
	.st50{fill:#45BFE5;}
	.st51{clip-path:url(#SVGID_87_);}
	.st52{filter:url(#Adobe_OpacityMaskFilter_1_);}
	.st53{mask:url(#SVGID_88_);}
	.st54{clip-path:url(#SVGID_90_);}
	.st55{clip-path:url(#SVGID_92_);}
	.st56{fill:url(#SVGID_95_);}
	.st57{fill:none;}
	.st58{fill:url(#SVGID_96_);}
	.st59{fill:url(#SVGID_97_);}
	.st60{fill:url(#SVGID_98_);}
	.st61{fill:url(#SVGID_99_);}
	.st62{fill:url(#SVGID_100_);}
	.st63{fill:url(#SVGID_101_);}
	.st64{filter:url(#Adobe_OpacityMaskFilter_2_);}
	.st65{mask:url(#SVGID_102_);}
	.st66{clip-path:url(#SVGID_104_);}
	.st67{clip-path:url(#SVGID_106_);}
	.st68{fill:url(#SVGID_109_);}
	.st69{fill:url(#SVGID_110_);}
	.st70{fill:url(#SVGID_111_);}
	.st71{fill:url(#SVGID_112_);}
	.st72{fill:url(#SVGID_113_);}
	.st73{fill:url(#SVGID_114_);}
	.st74{fill:url(#SVGID_115_);}
	.st75{fill:url(#SVGID_116_);}
	.st76{fill:url(#SVGID_117_);}
	.st77{fill:url(#SVGID_118_);}
	.st78{fill:url(#SVGID_119_);}
	.st79{fill:url(#SVGID_120_);}
	.st80{fill:url(#SVGID_121_);}
	.st81{fill:url(#SVGID_122_);}
	.st82{fill:url(#SVGID_125_);}
	.st83{fill:url(#SVGID_126_);}
	.st84{fill:#E31145;}
	.st85{fill:url(#SVGID_127_);}
	.st86{fill:url(#SVGID_128_);}
	.st87{fill:url(#SVGID_129_);}
	.st88{fill:url(#SVGID_130_);}
	.st89{fill:url(#SVGID_131_);}
	.st90{fill:url(#SVGID_132_);}
	.st91{fill:#791B62;}
	.st92{fill:url(#SVGID_133_);}
	.st93{opacity:0.5;}
	.st94{filter:url(#Adobe_OpacityMaskFilter_3_);}
	.st95{mask:url(#SVGID_134_);}
	.st96{fill:url(#SVGID_135_);}
	.st97{fill:url(#SVGID_136_);}
	.st98{clip-path:url(#SVGID_138_);}
	.st99{clip-path:url(#SVGID_140_);}
	.st100{clip-path:url(#SVGID_144_);}
	.st101{clip-path:url(#SVGID_146_);}
	.st102{clip-path:url(#SVGID_150_);}
	.st103{clip-path:url(#SVGID_152_);}
	.st104{clip-path:url(#SVGID_156_);}
	.st105{clip-path:url(#SVGID_158_);}
	.st106{fill:none;stroke:#2CFFFF;stroke-miterlimit:10;}
	.st107{fill:none;stroke:#E50043;stroke-miterlimit:10;}
	.st108{fill:url(#SVGID_161_);}
	.st109{fill:url(#SVGID_162_);}
	.st110{fill:url(#SVGID_163_);}
	.st111{fill:url(#SVGID_164_);}
	.st112{fill:url(#SVGID_165_);}
	.st113{fill:url(#SVGID_166_);}
	.st114{fill:url(#SVGID_167_);}
	.st115{fill:url(#SVGID_168_);}
	.st116{fill:url(#SVGID_169_);}
	.st117{fill:url(#SVGID_170_);}
	.st118{fill:url(#SVGID_171_);}
	.st119{fill:url(#path4523_32_);}
	.st120{fill:url(#path4525_32_);}
</style>
<g>
	<g>
		<path class="st45" d="M647.4,61.7v0.6c0,4.9-3.2,8.1-8.1,8.1h-43c2,10.7,10.1,17.6,21.9,17.6c5.8,0,11.2-1.7,15.9-5.2
			c1.2-0.9,2.6-1.4,3.7-1.4c3.5,0,6.1,2.6,6.1,6.1c0,2.6-0.9,4-3.5,6.1c-6.3,4.9-13.8,7.2-22.2,7.2c-20.8,0-36.1-15-36.1-34.9
			s15-35.2,34.6-35.2C634.2,30.6,647.4,43.8,647.4,61.7z M596.7,59.1H633c-0.3-9.8-7.2-16.4-17.3-16.4
			C606.2,42.7,599,49.3,596.7,59.1z"/>
		<path class="st45" d="M719,57.4v36.1c0,4.3-3.2,7.5-7.2,7.5c-4.3,0-7.2-3.2-7.2-7.5V59.1c0-9.2-5.8-15.6-14.7-15.6
			s-15.3,6.6-15.3,15.6v34c0,4.3-2.9,7.5-7.2,7.5c-4,0-7.2-3.2-7.2-7.5V38.1c0-4.3,2.9-7.5,7.2-7.5c4,0,6.9,3.2,6.9,7.5
			c4.9-4.6,11.5-7.5,19.3-7.5C709.2,30.6,719,40.9,719,57.4z"/>
		<path class="st45" d="M776.9,93.4c0,2.9-1.4,5.2-4.3,6.1c-2.3,0.9-5.2,1.4-8.9,1.4c-15.9,0-24.8-8.1-24.8-23.4V44.7h-5.5
			c-3.5,0-6.3-2.6-6.3-6.1s2.9-6.3,6.3-6.3h5.5V20.5c0-4,3.2-7.5,7.2-7.5c4,0,7.2,3.2,7.2,7.5v11.8h14.4c3.7,0,6.3,2.9,6.3,6.3
			s-2.9,6.1-6.3,6.1h-14.4v31.4c0,8.1,4,11.5,13.3,11.5c1.7,0,2.9,0,4,0C774.4,87.7,776.9,90,776.9,93.4z"/>
		<path class="st45" d="M826.3,38.1c0,4-2.9,6.6-6.9,6.9c-11,0.3-18.5,7.5-18.5,18.5v30c0,4.3-2.9,7.5-7.2,7.5c-4,0-7.2-3.2-7.2-7.5
			V38.1c0-4.3,2.9-7.5,7.2-7.5c4,0,6.9,3.2,6.9,7.5v2c4.6-5.5,11.2-8.7,18.7-8.7C823.4,31.4,826.3,34.3,826.3,38.1z"/>
		<path class="st45" d="M831.2,90.3c0-5.8,4.9-10.7,10.7-10.7s10.4,4.9,10.4,10.7s-4.6,10.7-10.4,10.7
			C836.1,100.7,831.2,96,831.2,90.3z"/>
		<path class="st45" d="M907,38.1c0,4-2.9,6.6-6.9,6.9c-11,0.3-18.5,7.5-18.5,18.5v30c0,4.3-2.9,7.5-7.2,7.5c-4,0-7.2-3.2-7.2-7.5
			V38.1c0-4.3,2.9-7.5,7.2-7.5c4,0,6.9,3.2,6.9,7.5v2c4.6-5.5,11.2-8.7,18.7-8.7C904.2,31.4,907,34.3,907,38.1z"/>
		<path class="st45" d="M914.5,70.9V38.1c0-4.3,2.9-7.5,7.2-7.5c4.3,0,7.2,3.2,7.2,7.5v34c0,8.9,6.3,15.3,15.3,15.3
			c8.7,0,14.7-6.3,14.7-15.3v-34c0-4.3,2.9-7.5,7.2-7.5c4,0,7.2,3.2,7.2,7.5v33.2c0,17.6-12.1,29.7-29.1,29.7
			C926.7,100.7,914.5,88.5,914.5,70.9z"/>
		<path class="st45" d="M510.7,94c0,3.7-2.9,6.6-6.6,6.6c-2.3,0-4-0.9-5.8-2.9L472,67.2c-1.4-2-2.3-3.5-2.3-5.2c0-2,0.6-3.5,2.3-5.5
			l24.2-23.9c1.4-1.4,3.2-2.3,5.2-2.3c3.7,0,6.9,2.9,6.9,6.6c0,2-0.9,3.5-2.6,5.5L485.6,62L509,89.1C510.1,90.8,510.7,92.3,510.7,94
			z"/>
		<path class="st45" d="M459.1,8.6c-4,0-7.2,3.2-7.2,7.5v77.3c0,4.3,3.2,7.5,7.2,7.5s7.2-2.9,7.2-7.5V16.1
			C466.3,11.8,463.1,8.6,459.1,8.6z"/>
		<path class="st44" d="M556.3,71.2c-0.9-0.9-2-0.9-3.2-0.3c-0.9,0.6-1.4,1.7-1.4,2.9l6.1,36.1c0.3,1.2,0.9,2,2,2.3
			c0.3,0,0.3,0,0.6,0c0.9,0,1.7-0.3,2.3-0.9c0,0,4.6-7.5,7.8-9.8c3.2-2.3,12.7-2.3,12.7-2.3c1.2-0.3,2-0.9,2.3-2
			c0.3-1.2,0-2-0.9-2.9L556.3,71.2z"/>
		<path class="st45" d="M571.3,40.9c-0.3-1.2-0.9-2-2.3-3.2c-2.3-2-5.2-3.7-8.1-4.9c-3.2-1.4-6.9-2.3-10.7-2.6c-0.3,0-0.3,0-0.6,0
			c-0.6,0-0.9,0-1.4,0c-0.3,0-0.6,0-0.9,0c-2.9,0-6.1,0.3-8.9,1.2c-0.3,0-0.3,0-0.6,0.3c-0.3,0-0.9,0.3-1.2,0.3
			c-0.6,0.3-0.9,0.3-1.4,0.6c-0.3,0-0.6,0.3-0.9,0.3c-0.3,0.3-0.6,0.3-0.9,0.3c-0.6,0.3-1.2,0.6-1.7,0.9c-2.6,1.4-4.9,3.2-7.2,5.2
			l-0.3,0.3c-0.6,0.3-0.9,0.9-1.4,1.4c-0.3,0.3-0.9,0.9-1.2,1.2c-0.3,0.3-0.6,0.9-1.2,1.2c-0.3,0.6-0.9,1.2-1.2,1.4
			s-0.6,0.6-0.9,1.2c-0.3,0.6-0.9,1.2-1.2,1.7c-0.3,0.3-0.3,0.6-0.6,0.9c-0.3,0.6-0.9,1.4-1.2,2c-0.3,0.3-0.3,0.6-0.3,1.2
			c-0.3,0.6-0.6,1.4-0.9,2c0,0.3-0.3,0.9-0.3,1.2c-0.3,0.6-0.3,1.4-0.6,2c0,0.3-0.3,0.9-0.3,1.2c-0.3,0.6-0.3,1.4-0.3,2
			c0,0.6,0,0.9-0.3,1.4c0,0.6,0,1.2-0.3,1.7v0.3c0,0.3,0,0.9,0,1.4v0.3l0,0c0,0.3,0,0.6,0,1.2l0,0l0,0l0,0c0,0.9,0,1.4,0,2.3
			c0,0.6,0,0.9,0.3,1.2c0,0.6,0.3,1.4,0.3,2s0.3,0.9,0.3,1.4c0,0.6,0.3,1.2,0.6,1.7v0.3c0,0.3,0.3,0.9,0.3,1.2
			c0,0.3,0.3,0.6,0.3,0.9s0.3,0.3,0.3,0.6c0.3,0.6,0.6,1.2,0.6,1.7c0.3,0.6,0.6,1.2,0.9,1.7c0.3,0.6,0.6,0.9,0.9,1.4
			c0,0.3,0.3,0.6,0.3,0.9c0.3,0.3,0.3,0.6,0.6,0.9c0,0,0.3,0.3,0.3,0.6l0,0c0.3,0.3,0.6,0.6,0.9,0.9c0.3,0.6,0.9,1.2,1.4,1.7
			c0.3,0.3,0.6,0.9,0.9,1.2l0.3,0.3c0.6,0.6,1.2,1.2,1.4,1.4c0,0,0.3,0,0.3,0.3c5.5,5.2,12.7,8.4,20.2,9.2c3.5,0.3,2.3-13.8,0-14.4
			c-3.7-1.2-7.5-3.2-10.4-6.6l-0.3-0.3c-0.6-0.6-0.9-0.9-1.2-1.4l-0.3-0.3c0,0-0.3-0.3-0.3-0.6c0-0.3-0.3-0.3-0.3-0.6
			c-0.6-0.9-0.9-1.4-1.2-2.3l-0.3-0.3c-0.3-0.6-0.6-1.2-0.6-1.7v-0.3c0-0.3,0-0.3-0.3-0.6c0-0.3-0.3-0.9-0.3-1.4v-0.3l0,0
			c-1.7-8.9,2-17.6,9.2-21.9c0,0,0,0,0.3,0c0.6-0.3,1.2-0.6,1.4-0.9c0.6-0.3,0.9-0.6,1.4-0.6c0.3,0,0.3,0,0.3-0.3
			c0.3-0.3,0.9-0.3,1.4-0.3c0.3,0,0.6-0.3,0.6-0.3l0,0c0.6-0.3,1.4-0.3,2.3-0.6c0.3,0,0.9,0,1.2,0c2.3,0,4.6,0,6.9,0.9
			c0.3,0,0.6,0,0.9,0c2,0.6,4,1.7,5.8,2.9c0.6,0.3,1.2,0.6,1.7,0.6l0,0c2,1.4,3.7,1.4,5.5,0.9C570.1,47.9,572.1,44.4,571.3,40.9z"/>
	</g>
	<g id="g4529_29_" transform="matrix(0.6230894,0,0,0.6230894,20.58779,27.202169)">
		<g id="g4527_29_">
			<path id="path4523_29_" class="st84" d="M312.5,21.8c0,0,0.5,0,0.9,0h0.5c8.5-3.7,22.9-7.1,47.7-8c0.9,0,1.4,0,2.3,0
				c0.7,0,1.6,0,2.8,0c5.3,0,10.6,0,15.4,0c9.4,0.5,17.7,1.6,22.9,2.3c5.3,0.9,10.1,1.6,12.8,1.4c5.3-0.9,10.6-4.1,14.7-9.6
				c0.5-0.9,1.4-1.4,1.6-2.3c4.1-5.3,8-14.2,7.1-19.5c0-2.8-0.9-4.1-2.8-4.1c-1.4,0-3.2,1.4-4.8,2.8c-0.9,0.5-1.6,0.9-2.3,1.4
				c-2.8,1.4-7.6,4.1-22.7,5.3c-7.6,0.5-17,0.9-28,0.5c-4.4-0.5-9.4-0.5-13.8,0c-30,2.3-49.3,17.7-54.8,23.4l-0.5,0.5
				c-0.5,0.5-0.5,0.5-0.5,0.9c-0.5-0.5-0.9-0.5-0.9,0l-0.5,0.5c-0.5,0.5-0.5,1.4-0.5,2.3C309.5,20.4,310.7,21.8,312.5,21.8
				L312.5,21.8z"/>
			<path id="path4525_29_" class="st84" d="M530.4,63.1c-2.3,0-4.1,2.3-8.5,6.7c-4.4,4.4-8.9,8-17,8c-7.6,0-15.4-4.1-27.5-14.9
				c-11.9-11-21.8-11-25.7-8.9c-4.1,2.3-6.7,2.8-6.7,2.8s0,0,0.9-6.2c0.9-6.2,0-8-4.4-9.4c-4.4-1.4-9.6-0.9-9.6-0.9
				c-0.5,0-1.4,0.5-1.6,2.3c0,0-2.3,8.9-7.1,20c-4.1,8.9-9.4,22.7-11.5,28c-0.9,0-2.3,0-4.1,0c-3.7,0-6.7-2.3-5.7-8.9
				c0.5-5.3,4.8-13.3,9.4-19c0.9-0.9,1.6-1.6,2.3-2.8c0.9-0.9,1.4-1.4,1.6-2.3c5.7-5.7,2.3-12.4,0.9-14.9c-1.4-2.3-4.1-5.3-8.9-7.6
				c-4.8-2.3-10.6,2.8-22.9,12.8c-12.4,10.1-22.7,20.4-24.8,22.7c-1.6,2.3-4.8,5.3-4.8,4.8c-0.5-0.5,1.4-2.8,6.7-12.8
				c5.3-9.6,6.7-12.8,6.7-16.5c0.5-3.7,1.4-14.2-9.4-13.8c-10.1,0-16.5,6.7-28,16.5C319.1,58.5,305.8,72,305.8,72s0,0,0.9-1.6
				c0.9-1.6,9.4-14.9,11.9-20.9c2.8-5.7,1.6-11,0.5-13.3c-1.1-2.3-4.8-7.6-8.5-7.6c-3.2,0-5.3,2.8-8.5,6.2c-1.4,1.4-2.3,2.8-3.7,4.4
				c-3.2,4.4-17.7,36-21.3,44.3c-2.3,0.5-8,1.4-9.6,0c-1.6-1.6-4.1-5.7,0-14.7c2.3-4.4,4.8-8.5,7.6-11.9c2.3-2.8,4.1-4.4,5.7-5.7
				c0.9-0.9,1.6-1.6,2.3-2.8c3.7-3.7,2.8-7.1,2.8-7.1c-0.5-3.2-0.9-5.7-1.4-8.9c0,0-1.4-5.7-4.8-7.1c-4.1-1.4-8.5,0.5-14.2,7.6
				c-0.5,0.5-0.5,0.5-0.9,0.9c-0.5,0.5-0.9,0.9-0.9,1.4c-5.3,6.2-9.4,14.7-11.5,20c-1.4,0-3.7,0-6.2,0c-4.4,0-8,0.5-10.6,0.9
				c0,0,0.5-2.3,3.7-11c3.2-8.5,10.1-20.4,12.4-25.2s1.4-11.5-3.7-12.4c-6.7-0.9-8.5,0-14.2,4.8c-1.4,0.9-2.8,2.3-3.7,4.1
				c-5.3,5.7-10.1,17.4-16.5,34.2c-4.4,14.9-10.6,23.9-14.2,28.2c-0.5,0.5-0.5,0.9-0.9,0.9l0,0l0,0l0,0
				c-0.9,0.9-13.8,10.6-28.2,10.6c-11.5,0-14.7-11.5-15.4-15.4c4.8-1.4,17.7-5.7,31.4-14.2c7.1-4.8,12.4-9.4,15.8-14.2
				c6.7-7.6,8.9-14.7,8.5-21.3c-0.9-10.1-8.9-18.1-25.2-17.7c-14.7,0-30.7,6.2-44.7,23.9c-1.6,2.3-4.1,4.8-5.7,7.6
				c-14.9,20.9-10.1,36.7-13.8,49.3c0,0.5-0.5,0.9-0.5,1.4c-2.8,2.3-6.7,3.7-10.6,4.1c-3.7-0.9-4.8-2.3-4.8-2.3
				c-4.4-3.2-8.9-14.7-1.4-37.2c7.1-21.8,31-50,38.1-58.5c0.9-1.4,1.6-2.3,2.8-3.2c9.4-11,10.1-18.1,7.6-22.2
				c-2.8-4.4-10.6-4.8-26.1,11.5c-1.6,1.6-4.1,4.4-6.2,7.1C108.1,2.3,89.6,28.9,79.5,41.3c-0.9,0.9-1.6,2.3-2.8,2.8
				C67.8,53,60.2,59.9,54.9,57.8c-5.3-2.3,0.9-20.4,17-48.9c16.5-29.6,17.9-45,8.5-50.2c-3.2-1.6-7.1-2.8-12.4-2.3
				c-11.5,1.4-30.5,9.4-64.2,32.3C-2.9-7.1-8.6-2.3-14.3,2.1c0,0,0,0.5,0.5,0.5c0,0,0-0.5-0.5-0.5C-21.9,8.7-26.7,14-28.6,16.8
				c-0.9,0.9-1.4,1.6-1.6,2.3c-2.3,2.8-3.2,5.7-2.8,7.6c0.5,1.6,1.6,4.4,7.1,4.4c0.5,0,0.5,0,0.9,0C-16.4,30.5-1,20.4-0.6,20l0,0
				C9.5,13.3,22.1,5.1,30.8-0.9c11.9-8,18.1-6.9,18.6-4.6c0.5,2.3-3.2,8.9-29.1,50.9C-6.3,85.3-3.1,97.3-2.4,101.2
				c0.5,4.1,5.3,10.6,17,10.6s18.6-4.8,35.1-17C63.4,84.7,71,79.8,76.3,78.2l0,0c0.5,0,1.4,0,1.6,0c1.4,0,2.3,0.5,3.2,0.9
				c0.5,0.5,0.9,0.9,1.4,1.4c2.3,2.3,2.8,5.7,2.8,5.7c0.9,4.4-0.9,8.5-3.7,11.5c-1.4,1.4-2.8,2.8-3.7,4.1c-0.5,0.9-1.4,1.4-1.4,1.6
				l-0.7,1.1c-3.7,3.7-2.3,4.8,4.8,6.7c7.1,1.8,7.6,13.3,2.8,22.2c-4.8,8.5-9.4,14.7-8.9,20.9c0.5,6.7,7.1,15.4,17.4,15.8
				c9.4,0.5,23.4-5.7,32.3-17.4c2.8-2.8,4.8-6.2,6.2-9.4c6.7-14.2-3.7-30-3.7-30c-4.8-5.7-4.4-9.6-3.2-12.4c1.4-1.4,3.2-1.6,3.2-1.6
				c10.1,13.3,20.9,17.7,32.3,17.7c10.6,0,25.2-9.4,28-11l0,0c0,0-1.4,2.3-1.6,8c-0.5,5.3,0.9,14.7,7.6,14.7c3.7,0,8-2.3,12.4-8
				c4.1-4.1,8-11,11.9-20.9c5.3-13.3,8.9-19.5,10.6-22.2c0.9-0.5,4.4-2.8,9.4-3.7c4.8-1.4,9.6-1.4,9.6-1.4s-4.8,14.2-6.7,21.8
				c-0.5,1.6-0.5,3.7-0.9,5.3c0,1.6,0,4.1,0.5,6.2c0.5,2.3,2.3,4.8,5.3,6.2c7.1,3.2,28-7.6,28-7.6s-1.6,4.4,0.5,8
				c1.4,2.3,4.4,5.3,8.9,4.8c7.1,0,13.8-8,19.5-14.7c7.1-8.5,11.9-14.2,20-22.2c11.9-11.5,17.7-14.2,19-14.2s-8,14.2-13.3,25.2
				c-5.3,10.6-3.2,24.3,6.2,24.3s17.4-11,28.2-23.4c11.5-12.4,19-19.5,20.4-18.1c0.9,0.9-2.8,4.4-5.7,13.8
				c-1.4,4.1-2.3,9.6-2.3,15.4l0,0v0.5c0,3.7,0.9,7.1,2.3,9.6c0.9,1.4,1.6,2.8,3.2,3.7c5.7,3.7,22.7-7.6,22.7-7.6
				c0,0.5,0.5,0.5,0.5,0.9c-4.1,8.5-9.6,20-12.4,24.8c-1.6,3.2-4.1,5.7-5.3,8.9c-1.4,3.2,0,7.1,1.4,10.1c2.3,4.8,7.6,9.6,12.8,6.7
				c1.6-0.9,3.2-2.3,4.1-4.1c1.4-1.4,2.3-2.8,3.2-4.1c1.4-2.8,2.8-5.3,4.1-7.6c4.8-9.4,4.4-8.9,7.1-14.7l0,0
				c0.9-1.4,1.4-3.2,2.3-4.4c0-0.5,0.5-0.9,0.5-0.9l0,0c6.2-13.3,13.3-28.2,15.8-32.3c0.5-0.9,0.9-1.4,1.4-2.3
				c6.2-6.7,17.4-12.4,29.1-8.5c14.7,4.4,14.7,20.9,32.3,20.9c11.9,0,20-6.2,25.2-12.8c3.7-4.1,6.2-8.9,7.1-12.4
				C534.7,67.9,533.1,63.1,530.4,63.1L530.4,63.1z M115,142.5c-3.7,6.7-6.7,7.1-8.5,7.1s-7.1-2.8-4.4-10.6c1.6-5.3,7.6-8.5,10.1-8.5
				C115,130.3,118,135.3,115,142.5z M182.2,26.2c19-0.9-9.6,33.3-28.7,36C153.1,62.2,163.2,27.3,182.2,26.2z"/>
		</g>
	</g>
</g>
</svg>
