<svg width="108" height="19" fill="none" xmlns="http://www.w3.org/2000/svg">
  <path d="M0 9.5C0 14.936 4.306 19 9.993 19c2.021 0 3.772-.434 5.29-1.503v-3.549c-1.483.95-3.46 1.566-5.323 1.566-3.605 0-6.297-2.506-6.297-6.014 0-3.508 2.692-6.014 6.297-6.014 1.863 0 3.84.615 5.323 1.566v-3.55C13.765.436 12.015 0 9.993 0 4.306 0 0 4.064 0 9.5zM85.716 4.64c-4.071 0-7.373 3.223-7.373 7.18S81.645 19 85.716 19s7.373-3.222 7.373-7.18c0-3.957-3.302-7.18-7.373-7.18zm0 11.42a4.225 4.225 0 01-4.241-4.24 4.225 4.225 0 014.241-4.24 4.225 4.225 0 014.242 4.24 4.225 4.225 0 01-4.242 4.24zM104.824 4.923l-6.121 8.933V4.923H95.62v13.795h3.131l6.117-8.905v8.905H108V4.923h-3.176zM29.34 11.453c.768-.452 1.508-1.498 1.508-2.657 0-2.233-1.708-3.873-4.042-3.873h-7.817v13.794h8.13c2.334 0 4.1-1.668 4.1-3.957 0-1.554-.94-2.798-1.88-3.307zm-7.22-3.816h4.202c.797 0 1.395.565 1.395 1.328 0 .764-.598 1.33-1.395 1.33H22.12V7.636zm4.401 8.367h-4.4v-2.996h4.4c.911 0 1.566.65 1.566 1.498s-.655 1.498-1.566 1.498zM38.84 4.924c-2.762 0-4.84 2.063-4.84 4.748 0 2.18 1.399 3.957 3.425 4.527l-3.795 4.519h4.042l3.633-4.325h1.737v4.325h3.131V4.924H38.84zm.426 2.713h3.776v4.042h-3.776c-1.252 0-2.135-.933-2.135-2.007 0-1.13.883-2.035 2.135-2.035zM66.564 4.923h-3.132v13.795h3.132V13.12h6.117v5.597h3.131V4.923h-3.131v5.484h-6.117V4.923zM49.269 17.914v-3.052c1.222.636 2.717 1.198 4.425 1.198 2.077 0 3.387-.615 3.387-1.71 0-.977-1.145-1.352-2.602-1.352h-2.39v-2.713h2.39c1.484 0 2.316-.542 2.316-1.282 0-1.087-1.312-1.423-2.83-1.423-1.752 0-3.175.505-4.338 1.067V5.689c1.206-.59 2.803-1.049 4.791-1.049 3.032 0 5.495 1.602 5.495 3.809 0 1.609-.95 2.599-1.712 2.933.978.458 2.084 1.6 2.084 3.25 0 2.588-2.502 4.368-6.165 4.368-2.101 0-3.64-.451-4.851-1.086z" fill="#fff"/>
  <path d="M101.551 4.177c2.406 0 4.242-1.478 4.441-3.645L103.483.22c0 .937-.856 1.656-1.932 1.656s-1.932-.72-1.932-1.656L97.11.53c.199 2.168 2.035 3.646 4.441 3.646z" fill="#FF0098"/>
</svg>
