<svg width="600" height="83" viewBox="0 0 600 83" fill="none" xmlns="http://www.w3.org/2000/svg">
<path d="M0 15.019V25.2964H17.7682V56.2784H30.4127V25.2964H48.2109V15.019H0Z" fill="#115194"/>
<path fill-rule="evenodd" clip-rule="evenodd" d="M99.2984 37.8808C99.2984 43.8735 98.0399 46.1208 92.0473 46.1208H75.8671C69.8744 46.1208 68.6459 43.8435 68.6459 37.8808V33.4463C68.6459 28.2926 69.9044 25.1764 76.5563 25.1764H91.3881C98.0399 25.1764 99.2984 28.1727 99.2984 33.4463V37.8808ZM112.302 29.4012C112.302 17.4159 105.501 14.4196 94.1147 14.4196H73.8296C62.4435 14.4196 55.6419 17.2661 55.6419 29.4012V41.7162C55.6419 53.7015 62.4435 56.6978 73.8296 56.6978H94.1147C105.501 56.6978 112.302 53.8513 112.302 41.7162V29.4012ZM159.165 31.259C159.247 31.8307 159.2 32.4135 159.027 32.9646C158.854 33.5157 158.56 34.0211 158.167 34.4437C157.773 34.8662 157.289 35.1951 156.752 35.4062C156.214 35.6173 155.636 35.7052 155.06 35.6636H135.404V25.2963H153.981C157.787 25.2963 159.165 26.8843 159.165 29.6709V31.259ZM157.247 15.0189H122.85V56.3682H135.494V45.911H160.633C169.622 45.911 172.259 38.8397 172.259 32.6972V29.1615C172.259 21.0715 169.263 15.0189 157.277 15.0189H157.247ZM193.922 33.4163C193.922 28.2926 195.181 25.1764 201.833 25.1764H216.814C223.466 25.1764 224.725 28.1727 224.725 33.4163V37.8808C224.725 43.8735 223.466 46.1208 217.474 46.1208H201.293C195.301 46.1208 194.072 43.8435 194.072 37.8808L193.922 33.4163ZM199.106 56.7277H219.391C230.777 56.7277 237.579 53.8812 237.579 41.7461V29.4012C237.579 17.4159 230.777 14.4196 219.391 14.4196H199.106C187.72 14.4196 180.948 17.2661 180.948 29.4012V41.7162C180.948 53.7015 187.72 56.6978 199.106 56.6978V56.7277ZM13.6334 78.7208H8.35983C6.02269 78.7208 5.54328 77.8519 5.54328 75.5147V73.7769C5.54328 71.7693 6.02269 70.5408 8.53961 70.5408H13.933C15.3712 70.5408 16.2102 70.8704 16.2102 72.039V72.4884H21.244C21.244 67.934 20.3751 66.4958 13.3637 66.4958H7.55082C2.9964 66.4059 0.449524 67.5445 0.449524 72.2487V77.0429C0.449524 81.7471 3.11626 82.8557 7.55082 82.8557H15.5211C20.465 82.8557 21.5137 80.7283 21.5137 78.0316V76.5035H16.5098C16.5098 78.5111 15.8506 78.7208 13.5135 78.7208H13.6334ZM42.6977 76.2338H54.713V72.9079H42.6977V70.3311H55.3722V66.5857H37.7838V82.6759H55.6718V78.8107H42.6977V76.2338V76.2338ZM88.9311 78.2713H88.9011L79.6425 66.5857H71.9719V82.6759H76.9158V70.9903H76.9757L86.2344 82.6759H93.875V66.5857H88.9311V78.2713ZM109.366 70.6007H116.318V82.6759H121.261V70.6007H128.183V66.5857H109.366V70.6007ZM158.596 72.818C158.596 73.9866 158.116 74.496 156.768 74.496H148.618V70.6007H156.318C157.877 70.6007 158.596 70.8704 158.596 72.2787V72.818ZM158.596 66.5857H143.824V82.6759H148.618V78.5111H156.378C157.907 78.5111 158.386 79.0504 158.386 80.7583V82.6759H163.33V79.9493C163.33 77.3125 162.101 76.6533 160.633 76.3837C162.91 75.8443 163.39 74.5859 163.39 72.4285V71.3498C163.39 68.3535 162.371 66.5557 158.566 66.5557L158.596 66.5857ZM187.301 76.3837L190.297 70.391L193.473 76.3837H187.301ZM187.301 66.5857L178.581 82.6759H184.094L185.533 79.6796H195.54L197.069 82.6759H202.582L193.593 66.5857H187.301ZM228.14 72.6682C222.837 72.6682 222.148 72.6682 222.148 71.2599C222.148 70.391 222.897 70.0314 224.035 70.0314H229.489C231.766 70.0314 231.886 70.5109 231.886 71.6794H236.83V71.17C236.83 68.3535 236.29 66.4059 230.597 66.4059H223.706C217.504 66.4059 217.234 68.6531 217.234 71.5895C217.234 75.5147 218.073 76.4136 225.504 76.4136C231.856 76.4136 232.425 76.4136 232.425 77.9118C232.425 79.4099 231.347 79.2601 230.298 79.2601H224.305C222.867 79.2601 222.178 79.2601 222.178 77.4024H217.294V78.541C217.294 82.0168 219.092 82.8557 223.586 82.8557H229.579C236.141 82.8557 237.609 82.1666 237.609 77.8219C237.609 73.4772 235.841 72.6682 228.17 72.6682H228.14ZM346.525 35.3939C350.421 33.8957 350.421 31.8882 349.941 29.8807C349.344 25.5501 347.189 21.5855 343.88 18.7287C340.571 15.8719 336.335 14.3187 331.963 14.3597C329.193 14.3856 326.455 14.9674 323.913 16.0707C321.372 17.1739 319.077 18.7761 317.166 20.7823C315.255 22.7885 313.766 25.1579 312.787 27.7501C311.808 30.3423 311.36 33.1046 311.468 35.8733C311.468 48.9073 319.768 57.4169 332.443 57.4169C343.169 57.4169 349.522 51.9037 349.522 47.8886C349.522 44.8923 346.106 43.9035 345.117 43.9035C343.17 47.8886 339.754 50.8849 332.443 50.8849C330.754 50.9408 329.071 50.6608 327.491 50.0613C325.911 49.4617 324.466 48.5545 323.24 47.3922C322.014 46.2299 321.03 44.8357 320.347 43.2904C319.663 41.7451 319.294 40.0795 319.259 38.3902C318.784 36.4208 318.784 34.367 319.259 32.3976C319.503 29.2188 320.956 26.2546 323.32 24.1144C325.683 21.9743 328.776 20.821 331.963 20.8917C334.556 20.7581 337.103 21.6107 339.093 23.2782C341.083 24.9457 342.368 27.3045 342.69 29.8807V30.39C335.858 33.3864 323.663 33.3864 322.195 33.3864V38.3902C330.445 39.0723 338.746 38.0524 346.585 35.3939H346.525ZM569.003 44.8923C569.003 44.8923 566.006 45.881 566.006 48.398C566.006 52.413 571.849 57.3869 582.606 57.3869C592.824 57.3869 599.176 52.3831 599.176 44.3529C599.176 35.3639 590.876 33.8658 584.554 32.3676C578.231 30.8694 574.786 29.8807 574.786 26.375C574.786 22.8692 577.782 20.8617 583.565 20.8617C585.747 20.7753 587.917 21.2374 589.874 22.2057C591.832 23.1741 593.516 24.6178 594.771 26.4049H595.281C595.281 26.9143 598.277 25.4161 598.277 22.3898C598.277 18.9141 593.423 14.3896 583.295 14.3896C573.527 14.3896 567.205 19.3935 567.205 27.3937C567.205 35.9033 575.475 37.9108 581.348 38.9296C587.67 40.4277 591.565 41.4165 591.565 45.4316C591.565 48.9373 588.569 50.9149 582.816 50.9149C580.294 51.0868 577.769 50.6292 575.467 49.5832C573.166 48.5371 571.161 46.9355 569.632 44.9222H569.153L569.003 44.8923ZM546.021 14.4196C543.238 14.4032 540.481 14.9564 537.919 16.045C535.358 17.1336 533.046 18.7347 531.127 20.7498C529.207 22.7649 527.72 25.1514 526.757 27.7625C525.794 30.3737 525.375 33.1542 525.526 35.9332C525.526 48.4579 533.826 57.4768 546.021 57.4768C557.707 57.4768 563.07 49.9561 563.07 46.4503C563.085 45.8452 562.961 45.2446 562.709 44.6943C562.457 44.1439 562.083 43.6583 561.615 43.2741C561.147 42.89 560.598 42.6175 560.009 42.4774C559.42 42.3372 558.807 42.3331 558.216 42.4652C557.301 44.918 555.622 47.0114 553.426 48.4359C551.23 49.8604 548.633 50.5405 546.021 50.3755C538.71 50.3755 533.317 44.3829 533.317 35.8433C533.317 27.3038 538.71 21.3411 546.021 21.3411C548.652 21.1866 551.262 21.8885 553.46 23.3415C555.658 24.7945 557.327 26.9205 558.216 29.4012C558.769 29.5432 559.347 29.5617 559.909 29.4554C560.47 29.3491 561.001 29.1205 561.465 28.786C561.928 28.4514 562.312 28.0191 562.589 27.5196C562.867 27.02 563.031 26.4656 563.07 25.8955C563.07 21.9104 557.707 14.3896 546.021 14.3896V14.4196ZM511.863 52.443C511.863 55.9487 513.81 56.4281 515.758 56.4281H516.747C518.694 56.4281 520.163 55.9487 520.163 52.443V18.9441C520.163 15.9477 518.694 14.929 516.747 14.929H515.758C515.225 14.8859 514.689 14.9613 514.189 15.1496C513.689 15.3379 513.236 15.6345 512.864 16.0182C512.492 16.402 512.209 16.8632 512.036 17.3691C511.863 17.8749 511.804 18.4127 511.863 18.9441V52.443ZM511.383 4.50176C511.331 5.17328 511.417 5.84845 511.638 6.48483C511.859 7.12121 512.209 7.70504 512.666 8.19963C513.124 8.69422 513.678 9.08887 514.295 9.35878C514.912 9.62869 515.579 9.76802 516.252 9.76802C516.926 9.76802 517.592 9.62869 518.209 9.35878C518.827 9.08887 519.381 8.69422 519.839 8.19963C520.296 7.70504 520.646 7.12121 520.867 6.48483C521.087 5.84845 521.174 5.17328 521.121 4.50176C521.025 3.27638 520.471 2.13233 519.568 1.29789C518.666 0.463456 517.482 0 516.252 0C515.023 0 513.839 0.463456 512.937 1.29789C512.034 2.13233 511.48 3.27638 511.383 4.50176ZM468.955 52.443C468.955 55.9487 470.394 56.4281 472.371 56.4281H473.42C475.368 56.4281 477.315 55.9487 477.315 52.443V28.9518C478.303 26.8482 479.871 25.0707 481.835 23.8285C483.799 22.5864 486.078 21.9313 488.402 21.9404C493.765 21.9404 497.181 25.9255 497.181 32.9369V52.473C497.181 55.9787 498.649 56.4581 501.076 56.4581H502.065C504.012 56.4581 505.451 55.9787 505.451 52.473V31.9481C505.451 21.9404 500.597 14.4196 490.469 14.4196C487.79 14.3704 485.14 14.9849 482.756 16.2082C480.372 17.4316 478.328 19.2258 476.806 21.431C476.806 16.4271 474.379 14.929 471.922 14.929C470.454 14.929 468.925 15.4384 468.925 16.4271L468.955 52.443ZM443.457 50.3755C441.587 50.3793 439.736 49.9993 438.019 49.259C436.302 48.5186 434.755 47.4338 433.475 46.0715C432.194 44.7092 431.206 43.0986 430.573 41.3393C429.94 39.5799 429.674 37.7094 429.793 35.8433C429.691 33.987 429.969 32.1295 430.61 30.3843C431.251 28.6392 432.241 27.0432 433.52 25.694C434.799 24.3448 436.34 23.2709 438.049 22.5378C439.757 21.8048 441.598 21.4282 443.457 21.431C451.277 21.431 456.64 27.4237 456.64 35.9332C456.754 37.7542 456.5 39.5793 455.893 41.3C455.287 43.0207 454.34 44.6018 453.11 45.9492C451.88 47.2967 450.392 48.3829 448.733 49.1433C447.075 49.9037 445.28 50.3228 443.457 50.3755V50.3755ZM443.457 14.4196C440.638 14.3546 437.837 14.8708 435.227 15.936C432.617 17.0012 430.255 18.5927 428.287 20.6111C426.319 22.6296 424.788 25.0317 423.789 27.6679C422.791 30.304 422.346 33.1176 422.482 35.9332C422.482 48.4579 430.782 57.4768 443.457 57.4768C446.277 57.5421 449.081 57.0251 451.694 55.9581C454.306 54.891 456.67 53.2968 458.638 51.2751C460.606 49.2534 462.137 46.8476 463.133 44.2079C464.13 41.5682 464.572 38.7513 464.431 35.9332C464.567 33.1176 464.123 30.304 463.124 27.6679C462.125 25.0317 460.594 22.6296 458.626 20.6111C456.659 18.5927 454.296 17.0012 451.686 15.936C449.076 14.8708 446.275 14.3546 443.457 14.4196ZM397.613 52.473C397.613 55.9787 399.081 56.4581 401.508 56.4581H402.017C404.444 56.4581 405.913 55.9787 405.913 52.473V38.3902C405.913 28.8919 408.34 22.3599 414.692 22.3599C416.651 22.4264 418.534 23.1314 420.055 24.3674C420.791 23.8678 421.395 23.1986 421.817 22.4164C422.24 21.6341 422.468 20.7618 422.482 19.8729C422.482 16.3672 420.055 14.3597 415.651 14.3597C413.399 14.2539 411.183 14.9524 409.399 16.3301C407.615 17.7079 406.379 19.6752 405.913 21.8805C405.913 16.3672 402.916 14.8691 400.549 14.8691C399.081 14.8691 397.553 15.3784 397.553 16.3672L397.613 52.473ZM354.825 18.9441C354.825 15.9477 356.263 14.929 358.72 14.929H359.2C361.627 14.929 363.095 15.9178 363.095 18.9441V38.9595C363.095 45.941 366.511 49.9561 372.384 49.9561C374.723 50.0031 377.025 49.3642 379.006 48.1183C380.987 46.8723 382.559 45.0738 383.53 42.9446V18.974C383.53 15.9777 384.998 14.9589 386.946 14.9589H387.905C388.44 14.9112 388.979 14.983 389.483 15.1692C389.987 15.3555 390.444 15.6514 390.819 16.0357C391.195 16.42 391.481 16.8829 391.655 17.3911C391.83 17.8993 391.89 18.44 391.83 18.974V55.4693C391.83 55.9787 390.362 56.4581 388.834 56.4581C385.837 56.4581 383.47 55.4693 383.47 50.4654C382.008 52.6102 380.047 54.3685 377.756 55.5896C375.465 56.8107 372.912 57.4583 370.316 57.4768C359.559 57.4768 354.705 49.9561 354.705 39.9483L354.825 18.9441Z" fill="#115194"/>
<path fill-rule="evenodd" clip-rule="evenodd" d="M296.007 42.0158C296.007 40.5177 297.985 40.0383 297.985 42.0158C298.464 45.5215 299.453 55.4694 299.453 56.9975C299.518 57.1588 299.55 57.3313 299.549 57.5052C299.547 57.6791 299.511 57.851 299.443 58.011C299.374 58.1709 299.275 58.3159 299.151 58.4377C299.027 58.5594 298.88 58.6554 298.719 58.7204C298.557 58.7853 298.385 58.8178 298.211 58.816C298.037 58.8143 297.865 58.7783 297.705 58.7101C297.545 58.642 297.4 58.543 297.279 58.4188C297.157 58.2946 297.061 58.1476 296.996 57.9863C296.487 57.4769 288.007 48.5179 287.677 48.0385C286.689 47.0197 286.689 47.0197 285.7 47.5291C285.22 47.5291 276.411 51.0048 272.486 52.503C269.49 53.4918 268.561 51.5142 270.029 49.5067C271.977 46.5103 277.37 38.5401 277.879 38.0307C278.389 37.5213 278.359 37.0419 277.37 36.0531C275.197 33.1567 272.737 30.4865 270.029 28.0829C269.04 26.5848 267.033 25.0866 267.572 23.6184C267.689 23.0526 267.997 22.5443 268.444 22.1787C268.892 21.8132 269.451 21.6126 270.029 21.6108C271.977 22.1202 281.295 25.0866 284.232 25.596C284.741 25.596 285.22 25.0866 285.7 23.6184C289.145 19.1239 291.692 15.1388 292.561 13.6406C294.539 11.1537 296.487 11.663 296.996 14.6294C297.054 19.299 297.384 23.9612 297.985 28.5923C297.985 29.5811 298.464 30.0905 299.453 30.5699C302.437 31.6814 305.565 32.3575 308.741 32.5774V33.0568C308.421 34.361 308.26 35.6991 308.262 37.0419C308.741 37.5513 308.262 37.5513 308.262 37.5513C303.868 36.7591 299.59 35.4203 295.528 33.5662C295.027 33.3347 294.587 32.9892 294.244 32.5574C293.9 32.1255 293.663 31.6193 293.55 31.0792C293.55 30.5699 293.071 23.109 293.071 20.6221C291.602 23.109 288.157 28.5923 287.677 29.0717C287.498 29.4079 287.251 29.7032 286.951 29.939C286.652 30.1747 286.307 30.3459 285.938 30.4416C285.569 30.5374 285.185 30.5556 284.808 30.4951C284.432 30.4347 284.072 30.2969 283.752 30.0905C280.927 29.4197 278.146 28.5792 275.422 27.5735C276.411 29.5811 280.816 34.0456 281.415 35.0644C281.873 35.2941 282.255 35.6509 282.515 36.0919C282.775 36.5329 282.903 37.0396 282.883 37.5513C282.883 38.0307 281.894 39.0495 281.415 39.5289C280.936 40.5177 276.531 46.001 275.033 48.0085C277.49 46.9897 284.351 44.0234 285.82 43.514C286.081 43.3803 286.366 43.2998 286.659 43.2772C286.951 43.2546 287.246 43.2904 287.524 43.3823C287.803 43.4743 288.061 43.6207 288.282 43.8131C288.504 44.0054 288.685 44.2398 288.816 44.5028C291.687 47.2155 294.304 50.1842 296.636 53.3719L296.157 41.926" fill="#FBCD09"/>
<path d="M520.852 68.8929C520.131 68.8268 519.404 68.9248 518.727 69.1796C518.049 69.4343 517.438 69.8393 516.939 70.364C516.44 70.8887 516.067 71.5196 515.847 72.2093C515.627 72.899 515.566 73.6296 515.668 74.3462C515.629 75.0372 515.736 75.7286 515.983 76.3752C516.23 77.0218 516.61 77.6091 517.1 78.0984C517.589 78.5878 518.176 78.9683 518.823 79.215C519.469 79.4616 520.161 79.5689 520.852 79.5298C522.118 79.5764 523.36 79.173 524.357 78.3912V75.8444H520.432V72.848H527.534V79.9194C526.755 80.9407 525.733 81.7503 524.56 82.2738C523.387 82.7973 522.102 83.018 520.822 82.9157C519.664 83.0127 518.498 82.859 517.405 82.4652C516.312 82.0714 515.316 81.4466 514.486 80.6335C513.656 79.8203 513.01 78.8378 512.594 77.7529C512.177 76.6679 512 75.506 512.072 74.3462C511.987 73.1728 512.156 71.9948 512.568 70.8925C512.979 69.7903 513.623 68.7898 514.457 67.9593C515.29 67.1288 516.293 66.4879 517.396 66.0802C518.5 65.6725 519.679 65.5076 520.852 65.5969C521.972 65.57 523.085 65.7803 524.117 66.2141C525.15 66.6479 526.08 67.2953 526.844 68.1138L524.567 70.421C523.554 69.4794 522.234 68.9366 520.852 68.8929V68.8929ZM541.017 82.4063L536.792 77.0129H534.155V82.4063H530.35V65.9565H538.171C538.934 65.8988 539.702 65.9993 540.425 66.2515C541.149 66.5038 541.812 66.9024 542.374 67.4226C542.937 67.9427 543.386 68.5733 543.694 69.2748C544.001 69.9762 544.161 70.7337 544.163 71.4997C544.245 72.6743 543.908 73.84 543.211 74.7892C542.514 75.7383 541.503 76.4095 540.358 76.6833L544.882 82.1367V82.4063H541.017ZM534.155 73.8967H538.32C538.634 73.9175 538.949 73.8729 539.245 73.7659C539.541 73.6589 539.811 73.4917 540.039 73.275C540.267 73.0582 540.448 72.7965 540.57 72.5064C540.692 72.2164 540.752 71.9042 540.747 71.5896C540.76 71.2622 540.705 70.9358 540.586 70.6304C540.467 70.3251 540.287 70.0473 540.057 69.8142C539.827 69.5812 539.551 69.3978 539.248 69.2754C538.944 69.153 538.618 69.0942 538.29 69.1026H534.155V73.8967ZM555.369 82.8258C553.671 82.7611 552.029 82.198 550.649 81.2067C549.268 80.2155 548.21 78.8398 547.605 77.2512C547.001 75.6626 546.878 73.9313 547.251 72.2731C547.623 70.6148 548.476 69.103 549.702 67.9259C550.928 66.7489 552.474 65.9587 554.146 65.6538C555.818 65.3489 557.543 65.5428 559.105 66.2113C560.668 66.8799 561.999 67.9935 562.933 69.4134C563.867 70.8333 564.363 72.4968 564.358 74.1964C564.424 75.3781 564.234 76.56 563.801 77.6613C563.367 78.7626 562.701 79.7571 561.847 80.5767C560.993 81.3963 559.972 82.0216 558.854 82.4099C557.736 82.7981 556.547 82.94 555.369 82.8258V82.8258ZM555.369 68.833C554.65 68.8149 553.935 68.9467 553.269 69.2202C552.604 69.4937 552.002 69.9027 551.503 70.4213C551.004 70.9399 550.619 71.5567 550.371 72.2325C550.124 72.9082 550.02 73.6281 550.066 74.3462C550.036 75.0506 550.153 75.7535 550.409 76.4103C550.665 77.0672 551.055 77.6638 551.553 78.1623C552.052 78.6608 552.648 79.0504 553.305 79.3064C553.962 79.5625 554.665 79.6794 555.369 79.6497C556.074 79.6843 556.777 79.5706 557.435 79.316C558.092 79.0613 558.689 78.6713 559.186 78.1713C559.683 77.6713 560.07 77.0724 560.321 76.4135C560.572 75.7546 560.682 75.0503 560.643 74.3462C560.703 73.6275 560.61 72.9042 560.369 72.2242C560.129 71.5443 559.746 70.9232 559.248 70.402C558.749 69.8808 558.146 69.4714 557.477 69.2009C556.809 68.9304 556.09 68.805 555.369 68.833ZM581.767 75.1552C581.885 76.1652 581.778 77.1887 581.454 78.1525C581.129 79.1162 580.596 79.9962 579.891 80.7294C579.187 81.4626 578.329 82.0308 577.378 82.3932C576.428 82.7557 575.41 82.9034 574.396 82.8258C573.369 82.9076 572.337 82.7651 571.371 82.4081C570.405 82.0511 569.528 81.4882 568.801 80.7585C568.074 80.0287 567.515 79.1496 567.161 78.182C566.808 77.2145 566.67 76.1816 566.755 75.1552V65.9565H570.411V75.1552C570.329 75.7203 570.375 76.2965 570.545 76.8416C570.714 77.3868 571.003 77.8873 571.391 78.3065C571.779 78.7256 572.255 79.053 572.785 79.2647C573.316 79.4763 573.886 79.5669 574.456 79.5298C577.183 79.5298 578.112 77.7021 578.112 75.1552V65.9565H581.767V75.1552ZM588.868 82.4063H585.183V65.9565H592.973C593.835 65.8056 594.719 65.845 595.563 66.0721C596.408 66.2991 597.192 66.7083 597.862 67.2708C598.532 67.8332 599.07 68.5355 599.439 69.3282C599.809 70.1208 600 70.9847 600 71.8592C600 72.7338 599.809 73.5977 599.439 74.3903C599.07 75.183 598.532 75.8853 597.862 76.4478C597.192 77.0102 596.408 77.4194 595.563 77.6464C594.719 77.8735 593.835 77.9129 592.973 77.762H588.868V82.4063ZM592.973 74.3462C593.3 74.3462 593.623 74.2819 593.925 74.1569C594.227 74.0319 594.501 73.8487 594.732 73.6178C594.963 73.3869 595.146 73.1127 595.271 72.811C595.396 72.5092 595.46 72.1858 595.46 71.8592C595.46 71.5327 595.396 71.2093 595.271 70.9075C595.146 70.6058 594.963 70.3317 594.732 70.1007C594.501 69.8698 594.227 69.6866 593.925 69.5616C593.623 69.4366 593.3 69.3723 592.973 69.3723H588.868V74.3462H592.973Z" fill="#FBCD09"/>
</svg>
