<svg xmlns="http://www.w3.org/2000/svg" width="210" height="18" viewBox="0 0 210 18"><path fill="#f8b700" d="M179.469 12.422c1.509 0 2.566 1.073 2.592 2.681 0 1.532-1.02 2.644-2.512 2.683h-.106c-1.51 0-2.566-1.124-2.566-2.681 0-1.584 1.082-2.683 2.592-2.683zM192.056 0c1.917 0 3.474.365 4.203.74l.051.027-.88 3.626a8.182 8.182 0 0 0-3.147-.614c-2.619 0-4.885 1.56-4.885 5.089 0 3.145 1.838 5.088 4.96 5.088 1.065 0 2.247-.213 2.963-.479l.083-.032.63 3.627c-.654.306-2.24.715-4.28.715-6.344 0-9.137-4.035-9.137-8.613 0-6.084 4.379-9.174 9.439-9.174zM14.253 0c.913 0 1.826.347 2.52 1.04a3.545 3.545 0 0 1 1.041 2.514c0 .878-.322 1.756-.965 2.438l-.076.078L6.081 16.746a3.577 3.577 0 0 1-5.04 0 3.561 3.561 0 0 1-.067-4.963l.067-.07L11.733 1.04A3.557 3.557 0 0 1 14.253 0zm195.579.281v2.63l-7.275 10.687v.102h7.4v3.806H196.44v-2.452l7.501-10.865v-.103h-6.796V.281h12.687z"/><path fill="#12437c" d="M65.16 0c1.98 0 3.39.36 4.506.85l.1.045-.955 3.677-.139-.062-.15-.064a8.693 8.693 0 0 0-3.411-.692c-1.387 0-2.143.512-2.143 1.279 0 .87.907 1.227 3.05 2.045 3.044 1.125 4.428 2.787 4.428 5.19 0 2.965-2.29 5.519-7.251 5.519-1.991 0-3.934-.536-4.914-1.037l-.069-.036.856-3.806c1.031.537 2.718 1.073 4.404 1.073 1.563 0 2.319-.536 2.319-1.405 0-.845-.756-1.33-2.672-1.995-2.869-1.023-4.755-2.633-4.755-5.19C58.364 2.35 60.88 0 65.16 0zm29.333 0c5.464 0 8.231 4.112 8.231 8.715 0 5.548-3.27 9.072-8.509 9.072-5.262 0-8.155-4.01-8.155-8.791C86.06 3.985 89.306 0 94.493 0zm-67.17.003c.914 0 1.826.347 2.52 1.04a3.542 3.542 0 0 1 1.042 2.515c0 .91-.347 1.822-1.041 2.515l-4.61 4.6h12.778a3.571 3.571 0 0 1 3.564 3.557 3.57 3.57 0 0 1-3.564 3.556l-21.383-.002a3.558 3.558 0 0 1-2.52-1.038 3.56 3.56 0 0 1 0-5.032L24.803 1.042a3.558 3.558 0 0 1 2.52-1.04zm49.922.15l.324.002.335.003c2.03.03 3.32.214 4.528.838 1.309.613 2.29 1.864 2.29 3.526 0 1.432-.752 2.814-2.66 3.588l-.108.043v.05c2.09.588 3.322 2.146 3.322 4.192 0 1.612-.755 2.89-1.887 3.758-1.284.97-3.398 1.558-7.026 1.558l-.37-.002c-1.811-.016-3.146-.152-4.023-.291l-.086-.014V.51l.155-.025.186-.027c1.133-.16 3.137-.304 5.02-.304zM57.933.282v3.857h-4.406v13.368h-4.555V4.138h-4.33V.28h13.29zm50.759 0v6.39h5.517V.281h4.528v17.225h-4.528v-6.8h-5.517v6.8h-4.555V.28h4.555zm23.214 0v3.754h-6.471v2.79h6.093v3.728h-6.093v3.173h6.823v3.78h-11.377V.28h11.025zm8.663 0l1.133 4.624.152.653c.385 1.663.79 3.547 1.096 5.312l.06.351h.102l.321-1.405.267-1.153c.293-1.25.594-2.488.88-3.544l1.326-4.838h5.991l.856 17.225h-4.43l-.202-6.157-.034-1.417-.011-.556a171.433 171.433 0 0 1-.033-4.675l.003-.308h-.076a131.014 131.014 0 0 1-1.654 6.293l-.133.458-1.687 6.004h-3.55l-1.435-5.978-.093-.41a111.739 111.739 0 0 1-1.2-6.114l-.04-.253h-.05l-.199 4.908-.08 2.048-.25 6.157h-4.18L134.452.28h6.117zm18.529 0v17.225h-4.554V.28h4.554zm11.885 0l5.06 17.225h-4.909l-1.083-3.987h-4.38l-.956 3.987h-4.707L164.94.28h6.042zM77.47 10.17h-1.083v4.094c.328.05.73.05 1.31.05 1.512 0 2.797-.613 2.797-2.122 0-1.432-1.265-2.001-2.934-2.021h-.09zm16.946-6.517c-2.166 0-3.551 2.097-3.551 5.267 0 3.222 1.385 5.216 3.576 5.216 2.192 0 3.477-2.173 3.477-5.267 0-2.966-1.31-5.216-3.502-5.216zm73.395-.051h-.051c-.236.959-.472 2.277-.708 3.24l-.048.188-.73 3.067h3.148l-.78-3.094-.099-.383c-.218-.868-.473-1.955-.684-2.822l-.048-.196zm-89.938-.153l-.207.001c-.53.007-.88.041-1.141.08l-.138.02v3.353h.907c1.94 0 2.873-.692 2.873-1.792 0-1.023-.756-1.662-2.294-1.662z"/></svg>