<svg xmlns="http://www.w3.org/2000/svg" xmlns:xlink="http://www.w3.org/1999/xlink" width="238.474" height="48.805" viewBox="0 0 238.474 48.805"><defs><style>.a{fill:none;}.b{clip-path:url(#a);}.c{clip-path:url(#b);}.d{fill:#e1251b;}.e{clip-path:url(#c);}.f{fill:#fff;}.g{clip-path:url(#d);}.h{fill:#212121;}.i{clip-path:url(#e);}.j{fill:#020202;}.k{clip-path:url(#f);}</style><clipPath id="a"><path class="a" d="M411.673,577.131l21.566,44.22H446l9.675-19.837H444.991l-5.372,11.012-17.263-35.4Zm90.426,0-17.256,35.4-17.263-35.4H456.894l5.338,10.945,16.228,33.276h12.76l21.56-44.22Z" transform="translate(-411.673 -577.131)"/></clipPath><clipPath id="b"><path class="a" d="M1445.248,704.985v27.259H1328.427V704.985Z" transform="translate(-1328.427 -704.985)"/></clipPath><clipPath id="c"><path class="a" d="M1449.658,781.214a2.047,2.047,0,0,0-1.587.689h-.031v-3.34h-1.065v7.422h.762l.146-.626h.031a2,2,0,0,0,1.66.751,2.348,2.348,0,0,0,2.422-2.453A2.281,2.281,0,0,0,1449.658,781.214Zm-.177,4a1.389,1.389,0,0,1-1.388-1.545,1.423,1.423,0,0,1,1.4-1.545,1.549,1.549,0,0,1-.011,3.09Zm6.045-3.987a1.359,1.359,0,0,1,.491.083v1.013a1.775,1.775,0,0,0-.606-.115c-.741,0-1.242.647-1.242,1.639v2.14h-1.1V781.35h.8l.157.772c.01.011.02.011.042.011A1.561,1.561,0,0,1,1455.526,781.225Zm3.31-.01a2.436,2.436,0,0,0-2.537,2.443,2.358,2.358,0,0,0,2.537,2.433,2.439,2.439,0,1,0,0-4.875Zm.01,3.987a1.416,1.416,0,0,1-1.44-1.565,1.445,1.445,0,1,1,1.44,1.565Zm9.24-3.862h1.1l-2.057,4.708h-.219l-1.493-2.985h-.01l-1.472,2.985h-.219q-1.033-2.349-2.056-4.708h1.128c.386.908.762,1.816,1.148,2.714h.031c.459-.918.909-1.848,1.358-2.766h.188l1.4,2.766h.042Zm4.886,3.351c0,.8-.658,1.4-1.816,1.4a3.56,3.56,0,0,1-1.67-.4v-.95a2.818,2.818,0,0,0,1.545.553c.5,0,.877-.146.877-.553,0-.888-2.286-.8-2.286-2.2,0-.856.741-1.315,1.66-1.315a3.84,3.84,0,0,1,1.461.313v.9a2.84,2.84,0,0,0-1.305-.386c-.418,0-.73.125-.73.5C1470.706,783.239,1472.971,783.166,1472.971,784.69Zm3.081-3.487a2.451,2.451,0,1,0,.219,4.9,3.17,3.17,0,0,0,1.8-.512v-.908a2.8,2.8,0,0,1-1.712.564,1.405,1.405,0,0,1-1.545-1.368h3.476v-.261A2.182,2.182,0,0,0,1476.052,781.2Zm-1.211,1.952a1.256,1.256,0,0,1,1.253-1.127,1.187,1.187,0,0,1,1.179,1.127Zm5.617,2.286a.646.646,0,0,1-.637.637.647.647,0,1,1,.637-.637Zm6.243-4.228a2.046,2.046,0,0,0-1.587.689h-.031v-3.34h-1.065v7.422h.762l.146-.626h.032a2,2,0,0,0,1.66.751,2.349,2.349,0,0,0,2.422-2.453A2.281,2.281,0,0,0,1486.7,781.214Zm-.178,4a1.389,1.389,0,0,1-1.388-1.545,1.423,1.423,0,0,1,1.4-1.545,1.549,1.549,0,0,1-.011,3.09Zm6.786-3.872h1.1v4.645h-.835l-.167-.637h-.042a1.77,1.77,0,0,1-1.493.72q-1.754,0-1.754-1.879v-2.86h1.1v2.714c0,.689.344,1.158.929,1.158.678,0,1.169-.449,1.169-1.513Zm6.6,0-2.912,6.9h-1.075c.365-.835.72-1.67,1.085-2.5l-1.869-4.4h1.117c.417,1.085.845,2.244,1.252,3.33h.063c.24-.6,1.033-2.735,1.274-3.33Zm.992,4.1a.646.646,0,0,1-.636.637.647.647,0,1,1,.636-.637Zm6.056-.23a2.415,2.415,0,0,0,1.221-.334v.908a3.469,3.469,0,0,1-1.472.313,2.234,2.234,0,0,1-2.39-2.39,2.407,2.407,0,0,1,2.494-2.5,3.351,3.351,0,0,1,1.2.209v.929a2.085,2.085,0,0,0-1.034-.261,1.493,1.493,0,0,0-1.545,1.6A1.42,1.42,0,0,0,1506.955,785.212Zm4.457-4a2.436,2.436,0,0,0-2.537,2.443,2.358,2.358,0,0,0,2.537,2.433,2.439,2.439,0,1,0,0-4.875Zm.01,3.987a1.416,1.416,0,0,1-1.441-1.565,1.446,1.446,0,1,1,1.441,1.565Zm3.6-6.639h1.106v7.422h-1.106Zm2.422,0h1.107v7.422h-1.107Zm4.521,2.641a2.451,2.451,0,1,0,.219,4.9,3.169,3.169,0,0,0,1.795-.512v-.908a2.8,2.8,0,0,1-1.711.564,1.4,1.4,0,0,1-1.545-1.368h3.476v-.261A2.182,2.182,0,0,0,1521.968,781.2Zm-1.211,1.952a1.255,1.255,0,0,1,1.252-1.127,1.187,1.187,0,0,1,1.18,1.127Zm6.942,2.056a2.42,2.42,0,0,0,1.222-.334v.908a3.469,3.469,0,0,1-1.472.313,2.234,2.234,0,0,1-2.391-2.39,2.407,2.407,0,0,1,2.5-2.5,3.345,3.345,0,0,1,1.2.209v.929a2.085,2.085,0,0,0-1.034-.261,1.493,1.493,0,0,0-1.545,1.6A1.419,1.419,0,0,0,1527.7,785.212Zm4.187-.031a1.648,1.648,0,0,0,.825-.271v.866a2.118,2.118,0,0,1-1.117.313c-1.169,0-1.441-.7-1.441-1.754v-2.161h-.741v-.626l.836-.24.783-1.44h.219v1.472h1.274v.835h-1.274V784.4C1531.249,784.9,1531.395,785.181,1531.886,785.181Zm2.7.261a.647.647,0,0,1-.637.637.647.647,0,1,1,.637-.637Z" transform="translate(-1446.976 -778.563)"/></clipPath><clipPath id="d"><path class="a" d="M1456.53,573.362l-2.721,6.964h-.209l-1.835-4.587h-.031l-1.8,4.587h-.219L1447,573.362h1.272l1.648,4.243h.031l1.71-4.306h.208l1.742,4.306h.03l1.627-4.243Zm4.473,4.5v.261h-3.473a1.4,1.4,0,0,0,1.543,1.366,2.8,2.8,0,0,0,1.71-.563v.907a3.171,3.171,0,0,1-1.793.511,2.447,2.447,0,1,1-.219-4.89A2.179,2.179,0,0,1,1461,577.866Zm-1.012-.459a1.186,1.186,0,0,0-1.178-1.126,1.254,1.254,0,0,0-1.251,1.126Zm7.027.5a2.347,2.347,0,0,1-2.419,2.45,2,2,0,0,1-1.658-.751h-.031l-.146.625H1462V572.82h1.064v3.337h.032a2.043,2.043,0,0,1,1.585-.688A2.279,2.279,0,0,1,1467.018,577.908Zm-1.074.01a1.445,1.445,0,0,0-1.429-1.543,1.421,1.421,0,0,0-1.4,1.543,1.387,1.387,0,0,0,1.387,1.543A1.436,1.436,0,0,0,1465.944,577.918Zm5.65-2.877c0-.625.584-.865,1.2-.865a3.414,3.414,0,0,1,1.751.542v-1.064a4.3,4.3,0,0,0-1.939-.438,1.964,1.964,0,0,0-2.211,1.846c0,2.033,3.389,1.772,3.389,3.357,0,.688-.636.97-1.408.97a3.779,3.779,0,0,1-2.1-.709v1.116a4.468,4.468,0,0,0,2.252.553c1.533,0,2.451-.772,2.451-1.981C1474.983,576.063,1471.594,576.209,1471.594,575.041Zm7.59,2.9c0,1.064-.49,1.512-1.168,1.512-.584,0-.928-.469-.928-1.157v-2.71h-1.094v2.856q0,1.877,1.752,1.877a1.767,1.767,0,0,0,1.491-.72h.042l.167.636h.834v-4.639h-1.095Zm7.381-.083a2.332,2.332,0,0,1-2.356,2.471,2.166,2.166,0,0,1-1.574-.563.15.15,0,0,0-.042.021v2.7h-1.074v-6.9h.824l.156.657h.042a2.07,2.07,0,0,1,1.679-.782A2.225,2.225,0,0,1,1486.565,577.855Zm-1.084.031a1.384,1.384,0,0,0-1.418-1.532,1.467,1.467,0,0,0-1.428,1.553,1.428,1.428,0,1,0,2.846-.021Zm7.121-.031a2.332,2.332,0,0,1-2.356,2.471,2.168,2.168,0,0,1-1.575-.563.153.153,0,0,0-.041.021v2.7h-1.074v-6.9h.824l.156.657h.042a2.07,2.07,0,0,1,1.679-.782A2.225,2.225,0,0,1,1492.6,577.855Zm-1.085.031a1.384,1.384,0,0,0-1.418-1.532,1.468,1.468,0,0,0-1.429,1.553,1.429,1.429,0,1,0,2.847-.021Zm2.168,2.346h1.105V572.82h-1.105Zm3.065-6.756a.645.645,0,0,0-.636.636.619.619,0,0,0,.636.636.636.636,0,1,0,0-1.272Zm-.573,6.756h1.105v-4.639h-1.105Zm6.86-2.367v.261h-3.471a1.4,1.4,0,0,0,1.543,1.366,2.8,2.8,0,0,0,1.709-.563v.907a3.166,3.166,0,0,1-1.792.511,2.447,2.447,0,1,1-.219-4.89A2.179,2.179,0,0,1,1503.037,577.866Zm-1.01-.459a1.186,1.186,0,0,0-1.178-1.126,1.254,1.254,0,0,0-1.251,1.126Zm2.907-.6c0-.375.313-.5.729-.5a2.834,2.834,0,0,1,1.3.386v-.9a3.84,3.84,0,0,0-1.459-.313c-.917,0-1.657.459-1.657,1.314,0,1.4,2.282,1.313,2.282,2.2,0,.407-.376.553-.876.553a2.814,2.814,0,0,1-1.542-.553v.949a3.556,3.556,0,0,0,1.668.4c1.156,0,1.813-.594,1.813-1.4C1507.2,577.418,1504.934,577.491,1504.934,576.8Z" transform="translate(-1447 -572.82)"/></clipPath><clipPath id="e"><path class="a" d="M1232.546,545.963a3.346,3.346,0,1,1-3.345-3.348A3.347,3.347,0,0,1,1232.546,545.963Z" transform="translate(-1225.854 -542.616)"/></clipPath><clipPath id="f"><path class="a" d="M1247.118,561.115h-.291l-.91-1.012v-.036c.6-.011.863-.306.863-.6a.56.56,0,0,0-.626-.572h-.579v2.224h-.215v-2.406h.823a.761.761,0,0,1,.812.746.785.785,0,0,1-.736.742Z" transform="translate(-1245.36 -558.709)"/></clipPath></defs><g transform="translate(-411.673 -542.616)"><g transform="translate(411.673 547.196)"><g class="b" transform="translate(0 0)"><rect width="109.079" height="63.43" transform="translate(-5.226 -9.804)"/></g></g><g transform="translate(533.326 564.162)"><g class="c" transform="translate(0 0)"><rect class="d" width="126.595" height="37.421" transform="translate(-4.796 -5.272)"/></g></g><g transform="translate(549.057 573.926)"><g class="e" transform="translate(0 0)"><rect class="f" width="95.809" height="20.17" transform="translate(-4.603 -6.278)"/></g></g><g transform="translate(549.06 546.624)"><g class="g" transform="translate(0 0)"><rect class="h" width="64.492" height="15.743" transform="translate(-2.218 -4.008)"/></g></g><g transform="translate(519.714 542.616)"><g class="i" transform="translate(0 0)"><rect class="j" width="8.176" height="8.177" transform="translate(-0.682 -0.796)"/></g></g><g transform="translate(522.303 544.752)"><g class="k" transform="translate(0 0)"><rect class="f" width="5.918" height="5.556" transform="translate(-2.186 -1.577)"/></g></g></g></svg>